<svg width="131" height="70" viewBox="0 0 131 70" fill="none" xmlns="http://www.w3.org/2000/svg">
<path d="M30.9128 17.164C30.7688 17.164 30.6608 17.164 30.5168 17.164H29.9048L27.3128 17.2L30.6968 14.248L31.2368 13.78C31.3088 13.672 31.4168 13.6 31.5248 13.492C35.1608 10 36.7808 5.752 35.0528 3.808C33.3968 1.864 29.0768 2.872 25.1888 6.004L25.7648 2.872H19.4648L19.4288 3.196H22.3808L21.2648 9.424L21.1568 9.892L19.8248 17.272L19.7528 17.56L18.4928 24.508L18.3848 24.94L17.9168 27.676L17.8448 27.964H24.1808H27.9968H28.6448C28.7888 27.964 28.8968 27.928 29.0048 27.928C33.6848 27.676 37.7168 25.336 38.2208 22.492C38.7248 19.612 35.4848 17.344 30.9128 17.164ZM23.0648 17.524L23.1008 17.236L25.0808 6.544C28.2128 4.24 30.5888 4.348 32.1008 6.04C33.6848 7.912 33.7928 10.9 30.3368 14.212L29.4728 14.968L28.4288 15.868L26.9168 17.2L26.5568 17.488L22.4168 21.124L23.0648 17.524ZM34.8728 22.168C34.4048 24.868 32.2448 27.424 27.8528 27.676H27.8168H26.7728H25.5128H24.2168H21.1928V27.64L22.3448 21.52L26.9888 17.488H27.2768H28.9328H28.9688C33.6488 17.452 35.3768 19.36 34.8728 22.168ZM52.625 9.964C50.141 9.964 48.089 11.152 46.613 12.628L47.009 10.36H41.321L41.285 10.72H43.985L40.853 27.64H38.117L38.045 28H47.081L47.153 27.64H44.021L46.649 13.348C48.377 11.62 50.213 10.684 52.265 10.684C53.201 10.684 53.993 10.9 54.569 11.404L54.821 10.324C54.101 10.108 53.381 9.964 52.625 9.964ZM66.9696 27.712L69.0936 16.228C69.8496 12.16 68.0136 10.036 63.1896 10.036C61.2096 10.036 59.3376 10.54 57.1776 11.62L57.1416 11.836C57.1416 11.836 60.3816 10.36 62.8656 10.36C64.0896 10.36 64.9176 10.756 65.4936 11.44L55.9536 20.8L55.5936 21.16C55.5576 21.196 55.5216 21.232 55.4856 21.268C55.4496 21.304 55.4136 21.34 55.4136 21.34C53.9376 22.96 53.0736 24.688 53.1096 26.02C53.1456 26.812 53.4696 27.424 54.0816 27.784C54.5136 28.036 55.0536 28.18 55.6296 28.18C57.4296 28.18 59.7696 27.1 61.8216 25.264C61.8216 25.228 61.8576 25.192 61.8936 25.192C61.9296 25.12 62.0016 25.084 62.0376 25.048L64.8456 22.276L64.3776 24.796L64.1976 25.696L63.7656 28.072H69.4536L69.5256 27.712H66.9696ZM66.1056 15.292L65.5296 18.424L65.4216 19.072L64.9176 21.772L62.6136 24.04V24.076C60.2736 26.38 57.9696 27.064 56.2056 25.984C55.3416 25.444 54.8376 24.724 54.8376 23.896C54.8016 22.96 55.2696 21.952 56.2776 20.872L65.6736 11.692C66.2496 12.556 66.3936 13.816 66.1056 15.292ZM88.0262 27.64L90.1862 16.012C90.8342 12.484 89.3222 9.964 85.5062 9.964C83.2742 9.964 81.0782 10.828 79.1702 12.52L79.5662 10.36H73.7342L73.6622 10.72H76.3622L73.2302 27.64H70.5662L70.4942 28H78.9542L78.9902 27.64H76.3622L78.9902 13.348C80.7542 11.764 82.3382 11.044 83.9222 11.044C86.6942 11.044 87.5942 12.88 87.0182 16.012L84.8942 27.64H82.2302L82.1582 28H90.5462L90.6182 27.64H88.0262ZM111.475 0.675998L109.315 12.448C109.027 12.16 108.703 11.872 108.343 11.656C107.767 11.26 107.155 11.008 106.507 10.792C106.075 10.648 105.643 10.54 105.211 10.468C104.059 10.288 102.907 10.396 101.755 10.684C100.603 11.008 99.4512 11.512 98.3352 12.268C97.2192 13.024 96.2112 13.96 95.3112 15.148C94.4112 16.336 93.7272 17.524 93.3312 18.748C92.9352 19.936 92.7552 21.124 92.8272 22.24C92.8992 23.356 93.0432 24.364 93.5832 25.336C94.0872 26.272 94.5912 27.064 95.5632 27.676C96.4992 28.324 97.6152 28.72 98.9112 28.72C102.511 28.72 105.067 27.496 106.759 26.236L106.687 26.668L106.435 28.108C107.983 28.108 107.983 28.108 109.531 28.108L114.535 0.999998H117.199L117.235 0.675998H111.475ZM108.703 15.724L107.299 23.356C105.895 25.408 103.159 28.18 98.5152 28.18C97.5792 28.18 96.7872 27.928 96.1032 27.46C95.4192 26.992 94.8792 26.38 94.5912 25.588C94.2672 24.796 94.1232 23.932 94.2312 22.924C94.3032 21.952 94.5912 20.908 95.0952 19.756C95.5632 18.64 96.2472 17.488 97.1472 16.372C98.0112 15.22 98.9472 14.248 99.9552 13.456C100.963 12.664 101.935 12.088 102.943 11.692C103.915 11.296 104.851 11.116 105.751 11.152C106.039 11.152 106.327 11.224 106.579 11.26C107.155 11.368 107.695 11.548 108.163 11.872C108.595 12.16 108.919 12.52 109.207 12.952L108.703 15.724ZM12.3147 36.476C7.7427 36.476 3.7827 38.564 2.9907 42.848C1.4427 51.416 14.7267 49.616 13.4307 56.672C12.7827 60.056 10.2987 61.64 6.4107 61.64C6.2667 61.64 6.1227 61.64 5.9787 61.64C2.8467 61.568 0.866703 58.904 1.4427 55.772H1.1187L0.218703 60.488C1.8747 61.856 3.4227 62.36 6.1587 62.36C11.1267 62.36 15.1947 60.164 16.0587 55.484C17.7507 46.412 4.3947 48.32 5.6187 41.588C6.1587 38.78 8.5347 37.196 12.0267 37.196C12.2427 37.196 12.4227 37.196 12.6387 37.196C15.4467 37.34 17.2107 39.716 16.6707 42.524H17.0307L17.7867 38.384C16.1667 37.016 14.6547 36.476 12.3147 36.476ZM24.2619 48.176L24.9099 44.648H30.6339L30.7059 44.288H23.6139C24.6939 43.604 25.2699 42.02 25.6299 40.724C25.9179 39.644 25.9899 38.744 25.9899 38.744H22.8939L21.8499 44.288H19.1859L19.1139 44.648L21.8139 44.612L19.4379 57.428C18.8619 60.704 20.3379 62.324 23.3259 62.324C25.5219 62.324 27.1059 61.352 28.0419 60.164L27.9699 60.092C27.2499 60.74 26.0259 61.064 25.0539 61.064C23.0739 61.064 22.1019 59.876 22.5339 57.5L24.2619 48.176ZM43.291 43.964C40.807 43.964 38.755 45.152 37.279 46.628L37.675 44.36H31.987L31.951 44.72H34.651L31.519 61.64H28.783L28.711 62H37.747L37.819 61.64H34.687L37.315 47.348C39.043 45.62 40.879 44.684 42.931 44.684C43.867 44.684 44.659 44.9 45.235 45.404L45.487 44.324C44.767 44.108 44.047 43.964 43.291 43.964ZM57.6356 61.712L59.7596 50.228C60.5156 46.16 58.6796 44.036 53.8556 44.036C51.8756 44.036 50.0036 44.54 47.8436 45.62L47.8076 45.836C47.8076 45.836 51.0476 44.36 53.5316 44.36C54.7556 44.36 55.5836 44.756 56.1596 45.44L46.6196 54.8L46.2596 55.16C46.2236 55.196 46.1876 55.232 46.1516 55.268C46.1156 55.304 46.0796 55.34 46.0796 55.34C44.6036 56.96 43.7396 58.688 43.7756 60.02C43.8116 60.812 44.1356 61.424 44.7476 61.784C45.1796 62.036 45.7196 62.18 46.2956 62.18C48.0956 62.18 50.4356 61.1 52.4876 59.264C52.4876 59.228 52.5236 59.192 52.5596 59.192C52.5956 59.12 52.6676 59.084 52.7036 59.048L55.5116 56.276L55.0436 58.796L54.8636 59.696L54.4316 62.072H60.1196L60.1916 61.712H57.6356ZM56.7716 49.292L56.1956 52.424L56.0876 53.072L55.5836 55.772L53.2796 58.04V58.076C50.9396 60.38 48.6356 61.064 46.8716 59.984C46.0076 59.444 45.5036 58.724 45.5036 57.896C45.4676 56.96 45.9356 55.952 46.9436 54.872L56.3396 45.692C56.9156 46.556 57.0596 47.816 56.7716 49.292ZM68.0315 48.176L68.6795 44.648H74.4035L74.4755 44.288H67.3835C68.4635 43.604 69.0395 42.02 69.3995 40.724C69.6875 39.644 69.7595 38.744 69.7595 38.744H66.6635L65.6195 44.288H62.9555L62.8835 44.648L65.5835 44.612L63.2075 57.428C62.6315 60.704 64.1075 62.324 67.0955 62.324C69.2915 62.324 70.8755 61.352 71.8115 60.164L71.7395 60.092C71.0195 60.74 69.7955 61.064 68.8235 61.064C66.8435 61.064 65.8715 59.876 66.3035 57.5L68.0315 48.176ZM75.7785 53.36C76.2825 52.244 76.9665 51.092 77.8305 49.976C78.4785 49.148 79.1625 48.428 79.8465 47.78H91.3305C91.2585 47.636 91.1865 47.492 91.0785 47.312C90.5385 46.484 89.6745 45.656 89.0265 45.26C88.4505 44.864 87.8385 44.612 87.1905 44.396C86.7945 44.252 86.3625 44.144 85.8945 44.072C84.7785 43.892 83.6265 44 82.4385 44.288C81.2865 44.612 80.1705 45.116 79.0545 45.872C77.9385 46.628 76.9305 47.564 75.9945 48.752C75.0945 49.94 74.4465 51.128 74.0505 52.352C73.6545 53.54 73.4745 54.728 73.5105 55.844C73.5825 56.96 73.7265 57.968 74.2665 58.94C74.8065 59.876 75.3105 60.668 76.2465 61.28C77.2185 61.928 78.2985 62.324 79.5945 62.324C85.5345 62.324 88.7385 58.976 89.6745 57.788C89.6745 57.752 89.7105 57.752 89.7105 57.716L89.1705 54.98C88.8105 55.628 86.1465 61.784 79.1985 61.784C78.2985 61.784 77.5065 61.532 76.7865 61.064C76.1025 60.596 75.5985 59.984 75.2745 59.192C74.9505 58.4 74.8425 57.536 74.9145 56.528C75.0225 55.556 75.3105 54.512 75.7785 53.36ZM80.6745 47.06C81.6465 46.268 82.6545 45.692 83.6265 45.296C84.5985 44.9 85.5705 44.72 86.4705 44.756C86.7585 44.756 87.0105 44.828 87.2985 44.864C87.8745 44.972 88.3785 45.152 88.8825 45.476C89.5665 45.944 90.0705 46.556 90.3945 47.312H80.3865C80.4585 47.24 80.5665 47.132 80.6745 47.06ZM108.373 43.352C108.445 43.352 108.481 43.352 108.553 43.352C108.697 43.316 109.021 43.316 109.165 43.316L109.345 42.272C109.345 42.272 108.517 42.38 108.445 42.416C107.437 42.56 106.537 43.532 106.105 44.576C106.069 44.576 106.069 44.54 106.033 44.54C105.241 44.072 104.305 43.784 103.297 43.676C102.253 43.568 101.209 43.676 100.201 43.964C99.1934 44.252 98.2214 44.756 97.3574 45.368C96.4934 46.016 95.7374 46.808 95.0894 47.744C94.4054 48.68 93.9014 49.724 93.5774 50.876C93.2534 52.028 93.1454 53.144 93.2894 54.152C93.3974 55.124 93.6854 56.024 94.1534 56.816C94.2254 56.96 94.3334 57.104 94.4414 57.248C93.9734 57.644 93.1094 58.436 93.0374 58.472C91.1654 60.164 90.7334 62.684 91.6334 63.836C92.1734 64.448 92.8934 64.808 93.6854 64.88C93.7574 64.88 93.7934 64.88 93.8654 64.88C94.7294 64.88 95.6294 64.556 96.4574 63.872L99.2654 61.496L99.5894 61.244L99.8774 60.992C100.705 60.308 101.713 59.876 102.721 59.84C102.973 59.84 103.225 59.876 103.477 59.912L103.693 59.948C103.729 59.948 103.801 59.984 103.873 59.984C103.945 60.02 103.981 60.02 104.017 60.02C104.665 60.236 105.205 60.596 105.601 61.1C106.249 61.964 106.465 63.152 106.177 64.304C105.889 65.492 105.169 66.644 104.197 67.472L104.125 67.508C103.369 68.156 102.469 68.516 101.533 68.552C101.497 68.552 101.425 68.552 101.353 68.552C100.381 68.516 99.5174 68.12 98.9414 67.436L97.7534 65.852L95.8454 67.436L95.9174 67.544C96.8174 68.696 98.2574 69.38 99.8054 69.416C99.8414 69.416 99.8774 69.416 99.9134 69.416C99.9854 69.416 100.057 69.416 100.129 69.416C101.605 69.344 103.081 68.768 104.305 67.724L104.377 67.688C105.421 66.788 106.177 65.6 106.501 64.304C106.789 63.08 106.573 61.82 105.853 60.884C105.565 60.524 105.169 60.2 104.701 59.948C104.449 59.84 104.197 59.768 103.945 59.696L103.909 59.66C103.621 59.588 103.333 59.552 103.045 59.552C102.937 59.552 102.865 59.552 102.757 59.552C101.713 59.588 100.597 60.02 99.6974 60.74L98.0414 62.144C96.2414 63.62 94.5134 63.152 93.6494 62.108C92.8214 61.064 92.6774 59.228 94.3694 57.716C94.4054 57.68 94.5134 57.608 94.6574 57.5C95.0534 57.968 95.5214 58.364 96.0614 58.688C96.8534 59.156 97.7894 59.48 98.8334 59.552C99.0854 59.588 99.3374 59.624 99.5894 59.624C100.381 59.624 101.137 59.48 101.893 59.264C102.253 59.156 102.577 59.048 102.901 58.904C103.549 58.652 104.161 58.292 104.737 57.86C105.601 57.212 106.357 56.42 107.041 55.484C107.689 54.584 108.193 53.504 108.517 52.352C108.841 51.2 108.949 50.12 108.841 49.112C108.733 48.104 108.409 47.204 107.941 46.448C107.581 45.8 107.077 45.26 106.429 44.828V44.792C106.825 44.072 107.581 43.388 108.373 43.352ZM106.681 49.076C106.681 50.012 106.537 51.056 106.249 52.136C105.925 53.216 105.493 54.224 104.989 55.088C104.485 55.988 103.873 56.744 103.225 57.356C102.613 57.896 101.965 58.364 101.281 58.652C101.245 58.652 101.173 58.688 101.137 58.688C100.417 58.976 99.6974 59.084 98.9774 59.012C98.2574 58.94 97.6094 58.724 97.1054 58.292C96.5654 57.896 96.1694 57.32 95.8814 56.636C95.5934 55.916 95.4494 55.088 95.4134 54.152C95.4134 53.216 95.5574 52.208 95.8814 51.092C96.1694 50.012 96.6014 49.004 97.1054 48.14C97.6454 47.24 98.2214 46.484 98.9054 45.908C99.4814 45.332 100.165 44.9 100.849 44.612C100.885 44.576 100.921 44.576 100.957 44.54C101.677 44.252 102.433 44.144 103.117 44.216C103.837 44.288 104.485 44.54 105.025 44.936C105.529 45.368 105.961 45.908 106.249 46.628C106.501 47.312 106.681 48.14 106.681 49.076ZM125.266 44.468L125.194 44.828H127.858L120.19 60.488L116.338 44.828H118.93L119.002 44.468H110.902L110.83 44.828H112.882L117.418 61.856H120.226C119.866 62.936 119.218 63.98 118.318 64.808C117.094 65.924 115.51 66.608 113.962 66.608H111.01L110.47 69.56H110.542C112.954 69.56 115.438 68.516 117.382 66.752C118.57 65.636 119.578 64.304 120.154 62.864V62.828C121.09 60.524 122.098 58.22 123.214 55.952L127.534 47.024C128.146 45.728 129.514 44.828 130.918 44.828L130.954 44.468H125.266Z" fill="url(#paint0_linear_69_118)"/>
<defs>
<linearGradient id="paint0_linear_69_118" x1="26" y1="8.00001" x2="124" y2="57.5" gradientUnits="userSpaceOnUse">
<stop offset="0.272321" stop-color="white"/>
<stop offset="1" stop-color="white" stop-opacity="0.22"/>
</linearGradient>
</defs>
</svg>
