<svg width="182" height="89" viewBox="0 0 182 89" fill="none" xmlns="http://www.w3.org/2000/svg">
<path d="M25.5745 18.96C25.4145 18.96 25.2945 18.96 25.1345 18.96H24.4545L21.5745 19L25.3345 15.72L25.9345 15.2C26.0145 15.08 26.1345 15 26.2545 14.88C30.2945 11 32.0945 6.28 30.1745 4.12C28.3345 1.96 23.5345 3.08 19.2145 6.56L19.8545 3.08H12.8545L12.8145 3.44H16.0945L14.8545 10.36L14.7345 10.88L13.2545 19.08L13.1745 19.4L11.7745 27.12L11.6545 27.6L11.1345 30.64L11.0545 30.96H18.0945H22.3345H23.0545C23.2145 30.96 23.3345 30.92 23.4545 30.92C28.6545 30.64 33.1345 28.04 33.6945 24.88C34.2545 21.68 30.6545 19.16 25.5745 18.96ZM16.8545 19.36L16.8945 19.04L19.0945 7.16C22.5745 4.6 25.2145 4.72 26.8945 6.6C28.6545 8.68 28.7745 12 24.9345 15.68L23.9745 16.52L22.8145 17.52L21.1345 19L20.7345 19.32L16.1345 23.36L16.8545 19.36ZM29.9745 24.52C29.4545 27.52 27.0545 30.36 22.1745 30.64H22.1345H20.9745H19.5745H18.1345H14.7745V30.6L16.0545 23.8L21.2145 19.32H21.5345H23.3745H23.4145C28.6145 19.28 30.5345 21.4 29.9745 24.52ZM49.6992 10.96C46.9392 10.96 44.6592 12.28 43.0192 13.92L43.4592 11.4H37.1392L37.0992 11.8H40.0992L36.6192 30.6H33.5792L33.4992 31H43.5392L43.6192 30.6H40.1392L43.0592 14.72C44.9792 12.8 47.0192 11.76 49.2992 11.76C50.3392 11.76 51.2192 12 51.8592 12.56L52.1392 11.36C51.3392 11.12 50.5392 10.96 49.6992 10.96ZM65.6377 30.68L67.9977 17.92C68.8377 13.4 66.7977 11.04 61.4377 11.04C59.2377 11.04 57.1577 11.6 54.7577 12.8L54.7177 13.04C54.7177 13.04 58.3177 11.4 61.0777 11.4C62.4377 11.4 63.3577 11.84 63.9977 12.6L53.3977 23L52.9977 23.4C52.9577 23.44 52.9177 23.48 52.8777 23.52C52.8377 23.56 52.7977 23.6 52.7977 23.6C51.1577 25.4 50.1977 27.32 50.2377 28.8C50.2777 29.68 50.6377 30.36 51.3177 30.76C51.7977 31.04 52.3977 31.2 53.0377 31.2C55.0377 31.2 57.6377 30 59.9177 27.96C59.9177 27.92 59.9577 27.88 59.9977 27.88C60.0377 27.8 60.1177 27.76 60.1577 27.72L63.2777 24.64L62.7577 27.44L62.5577 28.44L62.0777 31.08H68.3977L68.4777 30.68H65.6377ZM64.6777 16.88L64.0377 20.36L63.9177 21.08L63.3577 24.08L60.7977 26.6V26.64C58.1977 29.2 55.6377 29.96 53.6777 28.76C52.7177 28.16 52.1577 27.36 52.1577 26.44C52.1177 25.4 52.6377 24.28 53.7577 23.08L64.1977 12.88C64.8377 13.84 64.9977 15.24 64.6777 16.88ZM89.0339 30.6L91.4339 17.68C92.1539 13.76 90.4739 10.96 86.2339 10.96C83.7539 10.96 81.3139 11.92 79.1939 13.8L79.6339 11.4H73.1539L73.0739 11.8H76.0739L72.5939 30.6H69.6339L69.5539 31H78.9539L78.9939 30.6H76.0739L78.9939 14.72C80.9539 12.96 82.7139 12.16 84.4739 12.16C87.5539 12.16 88.5539 14.2 87.9139 17.68L85.5539 30.6H82.5939L82.5139 31H91.8339L91.9139 30.6H89.0339ZM115.088 0.639997L112.688 13.72C112.368 13.4 112.008 13.08 111.608 12.84C110.968 12.4 110.288 12.12 109.568 11.88C109.088 11.72 108.608 11.6 108.128 11.52C106.848 11.32 105.568 11.44 104.288 11.76C103.008 12.12 101.728 12.68 100.488 13.52C99.2483 14.36 98.1283 15.4 97.1283 16.72C96.1283 18.04 95.3683 19.36 94.9283 20.72C94.4883 22.04 94.2883 23.36 94.3683 24.6C94.4483 25.84 94.6083 26.96 95.2083 28.04C95.7683 29.08 96.3283 29.96 97.4083 30.64C98.4483 31.36 99.6883 31.8 101.128 31.8C105.128 31.8 107.968 30.44 109.848 29.04L109.768 29.52L109.488 31.12C111.208 31.12 111.208 31.12 112.928 31.12L118.488 0.999998H121.448L121.488 0.639997H115.088ZM112.008 17.36L110.448 25.84C108.888 28.12 105.848 31.2 100.688 31.2C99.6483 31.2 98.7683 30.92 98.0083 30.4C97.2483 29.88 96.6483 29.2 96.3283 28.32C95.9683 27.44 95.8083 26.48 95.9283 25.36C96.0083 24.28 96.3283 23.12 96.8883 21.84C97.4083 20.6 98.1683 19.32 99.1683 18.08C100.128 16.8 101.168 15.72 102.288 14.84C103.408 13.96 104.488 13.32 105.608 12.88C106.688 12.44 107.728 12.24 108.728 12.28C109.048 12.28 109.368 12.36 109.648 12.4C110.288 12.52 110.888 12.72 111.408 13.08C111.888 13.4 112.248 13.8 112.568 14.28L112.008 17.36ZM119.404 11.4L119.324 11.8H122.324L118.844 30.6H115.884L115.804 31H125.204L125.244 30.6H122.324L125.884 11.4H119.404ZM128.324 3.44L126.084 0.679999L122.804 3.44L125.044 6.24L128.324 3.44ZM145.792 30.6L148.192 17.68C148.912 13.76 147.232 10.96 142.992 10.96C140.512 10.96 138.072 11.92 135.952 13.8L136.392 11.4H129.912L129.832 11.8H132.832L129.352 30.6H126.392L126.312 31H135.712L135.752 30.6H132.832L135.752 14.72C137.712 12.96 139.472 12.16 141.232 12.16C144.312 12.16 145.312 14.2 144.672 17.68L142.312 30.6H139.352L139.272 31H148.592L148.672 30.6H145.792ZM169.63 10.28C169.71 10.28 169.75 10.28 169.83 10.28C169.99 10.24 170.35 10.24 170.51 10.24L170.71 9.08C170.71 9.08 169.79 9.2 169.71 9.24C168.59 9.4 167.59 10.48 167.11 11.64C167.07 11.64 167.07 11.6 167.03 11.6C166.15 11.08 165.11 10.76 163.99 10.64C162.83 10.52 161.67 10.64 160.55 10.96C159.43 11.28 158.35 11.84 157.39 12.52C156.43 13.24 155.59 14.12 154.87 15.16C154.11 16.2 153.55 17.36 153.19 18.64C152.83 19.92 152.71 21.16 152.87 22.28C152.99 23.36 153.31 24.36 153.83 25.24C153.91 25.4 154.03 25.56 154.15 25.72C153.63 26.16 152.67 27.04 152.59 27.08C150.51 28.96 150.03 31.76 151.03 33.04C151.63 33.72 152.43 34.12 153.31 34.2C153.39 34.2 153.43 34.2 153.51 34.2C154.47 34.2 155.47 33.84 156.39 33.08L159.51 30.44L159.87 30.16L160.19 29.88C161.11 29.12 162.23 28.64 163.35 28.6C163.63 28.6 163.91 28.64 164.19 28.68L164.43 28.72C164.47 28.72 164.55 28.76 164.63 28.76C164.71 28.8 164.75 28.8 164.79 28.8C165.51 29.04 166.11 29.44 166.55 30C167.27 30.96 167.51 32.28 167.19 33.56C166.87 34.88 166.07 36.16 164.99 37.08L164.91 37.12C164.07 37.84 163.07 38.24 162.03 38.28C161.99 38.28 161.91 38.28 161.83 38.28C160.75 38.24 159.79 37.8 159.15 37.04L157.83 35.28L155.71 37.04L155.79 37.16C156.79 38.44 158.39 39.2 160.11 39.24C160.15 39.24 160.19 39.24 160.23 39.24C160.31 39.24 160.39 39.24 160.47 39.24C162.11 39.16 163.75 38.52 165.11 37.36L165.19 37.32C166.35 36.32 167.19 35 167.55 33.56C167.87 32.2 167.63 30.8 166.83 29.76C166.51 29.36 166.07 29 165.55 28.72C165.27 28.6 164.99 28.52 164.71 28.44L164.67 28.4C164.35 28.32 164.03 28.28 163.71 28.28C163.59 28.28 163.51 28.28 163.39 28.28C162.23 28.32 160.99 28.8 159.99 29.6L158.15 31.16C156.15 32.8 154.23 32.28 153.27 31.12C152.35 29.96 152.19 27.92 154.07 26.24C154.11 26.2 154.23 26.12 154.39 26C154.83 26.52 155.35 26.96 155.95 27.32C156.83 27.84 157.87 28.2 159.03 28.28C159.31 28.32 159.59 28.36 159.87 28.36C160.75 28.36 161.59 28.2 162.43 27.96C162.83 27.84 163.19 27.72 163.55 27.56C164.27 27.28 164.95 26.88 165.59 26.4C166.55 25.68 167.39 24.8 168.15 23.76C168.87 22.76 169.43 21.56 169.79 20.28C170.15 19 170.27 17.8 170.15 16.68C170.03 15.56 169.67 14.56 169.15 13.72C168.75 13 168.19 12.4 167.47 11.92V11.88C167.91 11.08 168.75 10.32 169.63 10.28ZM167.75 16.64C167.75 17.68 167.59 18.84 167.27 20.04C166.91 21.24 166.43 22.36 165.87 23.32C165.31 24.32 164.63 25.16 163.91 25.84C163.23 26.44 162.51 26.96 161.75 27.28C161.71 27.28 161.63 27.32 161.59 27.32C160.79 27.64 159.99 27.76 159.19 27.68C158.39 27.6 157.67 27.36 157.11 26.88C156.51 26.44 156.07 25.8 155.75 25.04C155.43 24.24 155.27 23.32 155.23 22.28C155.23 21.24 155.39 20.12 155.75 18.88C156.07 17.68 156.55 16.56 157.11 15.6C157.71 14.6 158.35 13.76 159.11 13.12C159.75 12.48 160.51 12 161.27 11.68C161.31 11.64 161.35 11.64 161.39 11.6C162.19 11.28 163.03 11.16 163.79 11.24C164.59 11.32 165.31 11.6 165.91 12.04C166.47 12.52 166.95 13.12 167.27 13.92C167.55 14.68 167.75 15.6 167.75 16.64ZM27.2375 73.92L27.9175 70.64H27.7975C25.1575 70.64 22.3575 71.8 20.1575 73.76C19.8375 74.08 19.5175 74.4 19.1975 74.72L14.8375 67.56C12.2775 63.36 11.8775 61.32 12.3975 58.8C12.9175 56.12 15.2375 53.96 18.8375 53.96C20.7975 53.96 22.1175 54.4 23.4375 55.44L22.6375 59.48H22.9575L23.9175 54.72C21.9975 53.52 21.2375 53.16 18.7975 53.16C12.9575 53.16 9.5175 55.96 8.7175 59.96C8.3575 61.72 8.5575 63.36 9.5575 65.64C5.2775 66.92 2.1575 69.92 1.3575 73.8C0.4775 78.12 3.3575 81.52 8.3975 81.52C11.7575 81.52 14.7175 80.4 17.1175 78.24L18.8775 81.08H24.9975L25.1175 80.4H22.7175L19.6375 75.44C20.9575 74.48 22.4775 73.92 23.9575 73.92H27.2375ZM11.4775 79.36C6.9975 79.36 4.8775 76.56 5.7175 72.56C6.2375 69.84 7.6375 67.8 9.8375 66.2C10.3175 67.2 10.9575 68.32 11.7175 69.6L16.7175 77.56C14.9575 78.92 13.0775 79.36 11.4775 79.36ZM47.1756 52.08L47.0956 52.44H50.4156L45.4556 79.6H42.1356L42.0556 79.96H52.4156L52.4556 79.6H49.0956L54.0956 52.44H57.4556L57.5356 52.08H47.1756ZM56.7756 45.44L54.2156 42.28L50.4556 45.44L53.0556 48.56L56.7756 45.44ZM75.0688 49.64L72.6688 62.72C72.3488 62.4 71.9888 62.08 71.5888 61.84C70.9488 61.4 70.2688 61.12 69.5488 60.88C69.0688 60.72 68.5888 60.6 68.1088 60.52C66.8288 60.32 65.5488 60.44 64.2688 60.76C62.9888 61.12 61.7088 61.68 60.4688 62.52C59.2288 63.36 58.1088 64.4 57.1088 65.72C56.1087 67.04 55.3488 68.36 54.9088 69.72C54.4688 71.04 54.2688 72.36 54.3488 73.6C54.4288 74.84 54.5888 75.96 55.1888 77.04C55.7488 78.08 56.3088 78.96 57.3888 79.64C58.4288 80.36 59.6688 80.8 61.1088 80.8C65.1088 80.8 67.9488 79.44 69.8288 78.04L69.7488 78.52L69.4688 80.12C71.1888 80.12 71.1888 80.12 72.9088 80.12L78.4688 50H81.4288L81.4688 49.64H75.0688ZM71.9888 66.36L70.4288 74.84C68.8688 77.12 65.8288 80.2 60.6688 80.2C59.6288 80.2 58.7487 79.92 57.9888 79.4C57.2288 78.88 56.6288 78.2 56.3088 77.32C55.9488 76.44 55.7888 75.48 55.9088 74.36C55.9888 73.28 56.3088 72.12 56.8688 70.84C57.3888 69.6 58.1488 68.32 59.1488 67.08C60.1088 65.8 61.1488 64.72 62.2688 63.84C63.3888 62.96 64.4688 62.32 65.5888 61.88C66.6688 61.44 67.7088 61.24 68.7088 61.28C69.0288 61.28 69.3488 61.36 69.6288 61.4C70.2688 61.52 70.8688 61.72 71.3888 62.08C71.8688 62.4 72.2288 62.8 72.5488 63.28L71.9888 66.36ZM80.4644 70.4C81.0244 69.16 81.7844 67.88 82.7444 66.64C83.4644 65.72 84.2244 64.92 84.9844 64.2H97.7444C97.6644 64.04 97.5844 63.88 97.4644 63.68C96.8644 62.76 95.9044 61.84 95.1844 61.4C94.5444 60.96 93.8644 60.68 93.1444 60.44C92.7044 60.28 92.2244 60.16 91.7044 60.08C90.4644 59.88 89.1844 60 87.8644 60.32C86.5844 60.68 85.3444 61.24 84.1044 62.08C82.8644 62.92 81.7444 63.96 80.7044 65.28C79.7044 66.6 78.9844 67.92 78.5444 69.28C78.1044 70.6 77.9044 71.92 77.9444 73.16C78.0244 74.4 78.1844 75.52 78.7844 76.6C79.3844 77.64 79.9444 78.52 80.9844 79.2C82.0644 79.92 83.2644 80.36 84.7044 80.36C91.3044 80.36 94.8644 76.64 95.9044 75.32C95.9044 75.28 95.9444 75.28 95.9444 75.24L95.3444 72.2C94.9444 72.92 91.9844 79.76 84.2644 79.76C83.2644 79.76 82.3844 79.48 81.5844 78.96C80.8244 78.44 80.2644 77.76 79.9044 76.88C79.5444 76 79.4244 75.04 79.5044 73.92C79.6244 72.84 79.9444 71.68 80.4644 70.4ZM85.9044 63.4C86.9844 62.52 88.1044 61.88 89.1844 61.44C90.2644 61 91.3444 60.8 92.3444 60.84C92.6644 60.84 92.9444 60.92 93.2644 60.96C93.9044 61.08 94.4644 61.28 95.0244 61.64C95.7844 62.16 96.3444 62.84 96.7044 63.68H85.5844C85.6644 63.6 85.7844 63.48 85.9044 63.4ZM115.694 79.6L118.094 66.68C118.814 62.76 117.134 59.96 112.894 59.96C110.414 59.96 107.974 60.92 105.854 62.8L106.294 60.4H99.8141L99.7341 60.8H102.734L99.2541 79.6H96.2941L96.2141 80H105.614L105.654 79.6H102.734L105.654 63.72C107.614 61.96 109.374 61.16 111.134 61.16C114.214 61.16 115.214 63.2 114.574 66.68L112.214 79.6H109.254L109.174 80H118.494L118.574 79.6H115.694ZM127.247 64.64L127.967 60.72H134.327L134.407 60.32H126.527C127.727 59.56 128.367 57.8 128.767 56.36C129.087 55.16 129.167 54.16 129.167 54.16H125.727L124.567 60.32H121.607L121.527 60.72L124.527 60.68L121.887 74.92C121.247 78.56 122.887 80.36 126.207 80.36C128.647 80.36 130.407 79.28 131.447 77.96L131.367 77.88C130.567 78.6 129.207 78.96 128.127 78.96C125.927 78.96 124.847 77.64 125.327 75L127.247 64.64ZM135.791 60.4L135.711 60.8H138.711L135.231 79.6H132.271L132.191 80H141.591L141.631 79.6H138.711L142.271 60.4H135.791ZM144.711 52.44L142.471 49.68L139.191 52.44L141.431 55.24L144.711 52.44ZM150.802 64.64L151.522 60.72H157.882L157.962 60.32H150.082C151.282 59.56 151.922 57.8 152.322 56.36C152.642 55.16 152.722 54.16 152.722 54.16H149.282L148.122 60.32H145.162L145.082 60.72L148.082 60.68L145.442 74.92C144.802 78.56 146.442 80.36 149.762 80.36C152.202 80.36 153.962 79.28 155.002 77.96L154.922 77.88C154.122 78.6 152.762 78.96 151.682 78.96C149.482 78.96 148.402 77.64 148.882 75L150.802 64.64ZM174.825 60.52L174.745 60.92H177.705L169.185 78.32L164.905 60.92H167.785L167.865 60.52H158.865L158.785 60.92H161.065L166.105 79.84H169.225C168.825 81.04 168.105 82.2 167.105 83.12C165.745 84.36 163.985 85.12 162.265 85.12H158.985L158.385 88.4H158.465C161.145 88.4 163.905 87.24 166.065 85.28C167.385 84.04 168.505 82.56 169.145 80.96V80.92C170.185 78.36 171.305 75.8 172.545 73.28L177.345 63.36C178.025 61.92 179.545 60.92 181.105 60.92L181.145 60.52H174.825Z" fill="url(#paint0_linear_69_119)"/>
<defs>
<linearGradient id="paint0_linear_69_119" x1="67.5" y1="26.2368" x2="162.025" y2="64.3724" gradientUnits="userSpaceOnUse">
<stop stop-color="white"/>
<stop offset="1" stop-color="white" stop-opacity="0.22"/>
</linearGradient>
</defs>
</svg>
