<svg width="162" height="77" viewBox="0 0 162 77" fill="none" xmlns="http://www.w3.org/2000/svg">
<path d="M35.0805 4.72C34.2005 4.12 33.2405 3.72 32.2405 3.4C31.6005 3.2 30.9605 3 30.2805 2.92C28.5205 2.68 26.7605 2.76 24.9605 3.24C23.2005 3.72 21.4405 4.52 19.7205 5.68C18.0005 6.8 16.4805 8.28 15.0805 10.08C13.6805 11.88 12.6805 13.72 12.0405 15.6C11.4405 17.44 11.1605 19.24 11.2805 20.96C11.3605 22.68 11.6005 24.28 12.4005 25.72C13.2005 27.16 14.0005 28.36 15.4405 29.32C16.9205 30.32 18.6005 30.92 20.6005 30.92C29.6805 30.92 34.6405 25.76 36.0405 23.96C36.0805 23.92 36.0805 23.88 36.1205 23.84L35.3205 19.64C34.7205 20.64 30.6405 30.12 20.0005 30.12C18.6005 30.12 17.3605 29.72 16.2805 29C15.2405 28.28 14.4405 27.32 13.9605 26.12C13.4805 24.92 13.2805 23.56 13.4005 22.04C13.5605 20.52 14.0005 18.92 14.7205 17.2C15.4805 15.44 16.5205 13.72 17.8805 11.96C19.2405 10.2 20.6805 8.72 22.2005 7.52C23.7605 6.28 25.2805 5.4 26.7605 4.8C28.2805 4.16 29.7205 3.88 31.1205 3.92C31.5605 3.96 31.9605 4.04 32.4005 4.12C33.2805 4.32 34.0805 4.6 34.8005 5.08C35.8805 5.76 36.6805 6.72 37.1605 7.92C37.2805 8.28 37.3605 8.68 37.4405 9.08L38.1205 7.84C37.3605 6.64 36.3605 5.56 35.0805 4.72ZM51.8086 10.96C49.0486 10.96 46.7686 12.28 45.1286 13.92L45.5686 11.4H39.2486L39.2086 11.8H42.2086L38.7286 30.6H35.6886L35.6086 31H45.6486L45.7286 30.6H42.2486L45.1686 14.72C47.0886 12.8 49.1286 11.76 51.4086 11.76C52.4486 11.76 53.3286 12 53.9686 12.56L54.2486 11.36C53.4486 11.12 52.6486 10.96 51.8086 10.96ZM54.1558 21.4C54.7158 20.16 55.4758 18.88 56.4358 17.64C57.1558 16.72 57.9158 15.92 58.6758 15.2H71.4358C71.3558 15.04 71.2758 14.88 71.1558 14.68C70.5558 13.76 69.5958 12.84 68.8758 12.4C68.2358 11.96 67.5558 11.68 66.8358 11.44C66.3958 11.28 65.9158 11.16 65.3958 11.08C64.1558 10.88 62.8758 11 61.5558 11.32C60.2758 11.68 59.0358 12.24 57.7958 13.08C56.5558 13.92 55.4358 14.96 54.3958 16.28C53.3958 17.6 52.6758 18.92 52.2358 20.28C51.7958 21.6 51.5958 22.92 51.6358 24.16C51.7158 25.4 51.8758 26.52 52.4758 27.6C53.0758 28.64 53.6358 29.52 54.6758 30.2C55.7558 30.92 56.9558 31.36 58.3958 31.36C64.9958 31.36 68.5558 27.64 69.5958 26.32C69.5958 26.28 69.6358 26.28 69.6358 26.24L69.0358 23.2C68.6358 23.92 65.6758 30.76 57.9558 30.76C56.9558 30.76 56.0758 30.48 55.2758 29.96C54.5158 29.44 53.9558 28.76 53.5958 27.88C53.2358 27 53.1158 26.04 53.1958 24.92C53.3158 23.84 53.6358 22.68 54.1558 21.4ZM59.5958 14.4C60.6758 13.52 61.7958 12.88 62.8758 12.44C63.9558 12 65.0358 11.8 66.0358 11.84C66.3558 11.84 66.6358 11.92 66.9558 11.96C67.5958 12.08 68.1558 12.28 68.7158 12.64C69.4758 13.16 70.0358 13.84 70.3958 14.68H59.2758C59.3558 14.6 59.4758 14.48 59.5958 14.4ZM86.6923 30.68L89.0523 17.92C89.8923 13.4 87.8523 11.04 82.4923 11.04C80.2923 11.04 78.2123 11.6 75.8123 12.8L75.7723 13.04C75.7723 13.04 79.3723 11.4 82.1323 11.4C83.4923 11.4 84.4123 11.84 85.0523 12.6L74.4523 23L74.0523 23.4C74.0123 23.44 73.9723 23.48 73.9323 23.52C73.8923 23.56 73.8523 23.6 73.8523 23.6C72.2123 25.4 71.2523 27.32 71.2923 28.8C71.3323 29.68 71.6923 30.36 72.3723 30.76C72.8523 31.04 73.4523 31.2 74.0923 31.2C76.0923 31.2 78.6923 30 80.9723 27.96C80.9723 27.92 81.0123 27.88 81.0523 27.88C81.0923 27.8 81.1723 27.76 81.2123 27.72L84.3323 24.64L83.8123 27.44L83.6123 28.44L83.1323 31.08H89.4523L89.5323 30.68H86.6923ZM85.7323 16.88L85.0923 20.36L84.9723 21.08L84.4123 24.08L81.8523 26.6V26.64C79.2523 29.2 76.6923 29.96 74.7323 28.76C73.7723 28.16 73.2123 27.36 73.2123 26.44C73.1723 25.4 73.6923 24.28 74.8123 23.08L85.2523 12.88C85.8923 13.84 86.0523 15.24 85.7323 16.88ZM98.2433 15.64L98.9633 11.72H105.323L105.403 11.32H97.5233C98.7233 10.56 99.3633 8.8 99.7633 7.36C100.083 6.16 100.163 5.16 100.163 5.16H96.7233L95.5633 11.32H92.6033L92.5233 11.72L95.5233 11.68L92.8833 25.92C92.2433 29.56 93.8833 31.36 97.2033 31.36C99.6433 31.36 101.403 30.28 102.443 28.96L102.363 28.88C101.563 29.6 100.203 29.96 99.1233 29.96C96.9233 29.96 95.8433 28.64 96.3233 26L98.2433 15.64ZM106.787 11.4L106.707 11.8H109.707L106.227 30.6H103.267L103.187 31H112.587L112.627 30.6H109.707L113.267 11.4H106.787ZM115.707 3.44L113.467 0.679999L110.187 3.44L112.427 6.24L115.707 3.44ZM132.072 11.48L131.992 11.88H134.912L125.872 27.08L122.112 11.88H124.992L125.072 11.48H116.072L116.032 11.88H118.272L123.472 31.36H124.072L134.312 14.24C135.192 12.8 136.752 11.88 138.312 11.88L138.392 11.48H132.072ZM138.023 21.4C138.583 20.16 139.343 18.88 140.303 17.64C141.023 16.72 141.783 15.92 142.543 15.2H155.303C155.223 15.04 155.143 14.88 155.023 14.68C154.423 13.76 153.463 12.84 152.743 12.4C152.103 11.96 151.423 11.68 150.703 11.44C150.263 11.28 149.783 11.16 149.263 11.08C148.023 10.88 146.743 11 145.423 11.32C144.143 11.68 142.903 12.24 141.663 13.08C140.423 13.92 139.303 14.96 138.263 16.28C137.263 17.6 136.543 18.92 136.103 20.28C135.663 21.6 135.463 22.92 135.503 24.16C135.583 25.4 135.743 26.52 136.343 27.6C136.943 28.64 137.503 29.52 138.543 30.2C139.623 30.92 140.823 31.36 142.263 31.36C148.863 31.36 152.423 27.64 153.463 26.32C153.463 26.28 153.503 26.28 153.503 26.24L152.903 23.2C152.503 23.92 149.543 30.76 141.823 30.76C140.823 30.76 139.943 30.48 139.143 29.96C138.383 29.44 137.823 28.76 137.463 27.88C137.103 27 136.983 26.04 137.063 24.92C137.183 23.84 137.503 22.68 138.023 21.4ZM143.463 14.4C144.543 13.52 145.663 12.88 146.743 12.44C147.823 12 148.903 11.8 149.903 11.84C150.223 11.84 150.503 11.92 150.823 11.96C151.463 12.08 152.023 12.28 152.583 12.64C153.343 13.16 153.903 13.84 154.263 14.68H143.143C143.223 14.6 143.343 14.48 143.463 14.4ZM17.4383 48.08H5.39828L5.31828 48.44H8.63828L3.63828 75.6H0.438281L0.358281 75.96H12.1983C19.1583 75.96 27.1983 71.84 29.0383 61.88C30.7983 52.36 24.1983 48.08 17.4383 48.08ZM24.8783 62.12C23.3583 70.52 18.6383 75.28 12.1183 75.28C10.1583 75.28 10.1583 75.28 7.43828 75.28L12.2783 48.8H16.9183C21.8383 48.8 26.6383 52.56 24.8783 62.12ZM32.2945 56.4L32.2145 56.8H35.2145L31.7345 75.6H28.7745L28.6945 76H38.0945L38.1345 75.6H35.2145L38.7745 56.4H32.2945ZM41.2145 48.44L38.9745 45.68L35.6945 48.44L37.9345 51.24L41.2145 48.44ZM55.4023 55.96C52.6423 55.96 50.3623 57.28 48.7223 58.92L49.1623 56.4H42.8423L42.8023 56.8H45.8023L42.3223 75.6H39.2823L39.2023 76H49.2423L49.3223 75.6H45.8423L48.7623 59.72C50.6823 57.8 52.7223 56.76 55.0023 56.76C56.0423 56.76 56.9223 57 57.5623 57.56L57.8423 56.36C57.0423 56.12 56.2423 55.96 55.4023 55.96ZM57.7495 66.4C58.3095 65.16 59.0695 63.88 60.0295 62.64C60.7495 61.72 61.5095 60.92 62.2695 60.2H75.0295C74.9495 60.04 74.8695 59.88 74.7495 59.68C74.1495 58.76 73.1895 57.84 72.4695 57.4C71.8295 56.96 71.1495 56.68 70.4295 56.44C69.9895 56.28 69.5095 56.16 68.9895 56.08C67.7495 55.88 66.4695 56 65.1495 56.32C63.8695 56.68 62.6295 57.24 61.3895 58.08C60.1495 58.92 59.0295 59.96 57.9895 61.28C56.9895 62.6 56.2695 63.92 55.8295 65.28C55.3895 66.6 55.1895 67.92 55.2295 69.16C55.3095 70.4 55.4695 71.52 56.0695 72.6C56.6695 73.64 57.2295 74.52 58.2695 75.2C59.3495 75.92 60.5495 76.36 61.9895 76.36C68.5895 76.36 72.1495 72.64 73.1895 71.32C73.1895 71.28 73.2295 71.28 73.2295 71.24L72.6295 68.2C72.2295 68.92 69.2695 75.76 61.5495 75.76C60.5495 75.76 59.6695 75.48 58.8695 74.96C58.1095 74.44 57.5495 73.76 57.1895 72.88C56.8295 72 56.7095 71.04 56.7895 69.92C56.9095 68.84 57.2295 67.68 57.7495 66.4ZM63.1895 59.4C64.2695 58.52 65.3895 57.88 66.4695 57.44C67.5495 57 68.6295 56.8 69.6295 56.84C69.9495 56.84 70.2295 56.92 70.5495 56.96C71.1895 57.08 71.7495 57.28 72.3095 57.64C73.0695 58.16 73.6295 58.84 73.9895 59.68H62.8695C62.9495 59.6 63.0695 59.48 63.1895 59.4ZM93.4461 57.4C92.8061 56.96 92.1261 56.68 91.4061 56.44C90.9661 56.28 90.4861 56.16 89.9661 56.08C88.7261 55.88 87.4461 56 86.1261 56.32C84.8461 56.68 83.6061 57.24 82.3661 58.08C81.1261 58.92 80.0061 59.96 78.9661 61.28C77.9661 62.6 77.2461 63.92 76.8061 65.28C76.3661 66.6 76.1661 67.92 76.2061 69.16C76.2861 70.4 76.4461 71.52 77.0461 72.6C77.6461 73.64 78.2061 74.52 79.2461 75.2C80.3261 75.92 81.5261 76.36 82.9661 76.36C89.5661 76.36 93.1261 72.64 94.1661 71.32C94.1661 71.28 94.2061 71.28 94.2061 71.24L93.6061 68.2C93.2061 68.92 90.2461 75.76 82.5261 75.76C81.5261 75.76 80.6461 75.48 79.8461 74.96C79.0861 74.44 78.5261 73.76 78.1661 72.88C77.8061 72 77.6861 71.04 77.7661 69.92C77.8861 68.84 78.2061 67.68 78.7261 66.4C79.2861 65.16 80.0461 63.88 81.0061 62.64C82.0061 61.36 83.0461 60.28 84.1661 59.4C85.2461 58.52 86.3661 57.88 87.4461 57.44C88.5261 57 89.6061 56.8 90.6061 56.84C90.9261 56.84 91.2061 56.92 91.5261 56.96C92.1661 57.08 92.7261 57.28 93.2861 57.64C94.0461 58.16 94.6061 58.84 94.9661 59.72C95.0861 59.96 95.1261 60.24 95.1661 60.52L95.6861 59.64C95.0861 58.76 94.4061 58 93.4461 57.4ZM103.556 60.64L104.276 56.72H110.636L110.716 56.32H102.836C104.036 55.56 104.676 53.8 105.076 52.36C105.396 51.16 105.476 50.16 105.476 50.16H102.036L100.876 56.32H97.9158L97.8358 56.72L100.836 56.68L98.1958 70.92C97.5558 74.56 99.1958 76.36 102.516 76.36C104.956 76.36 106.716 75.28 107.756 73.96L107.676 73.88C106.876 74.6 105.516 74.96 104.436 74.96C102.236 74.96 101.156 73.64 101.636 71L103.556 60.64ZM112.099 56.4L112.019 56.8H115.019L111.539 75.6H108.579L108.499 76H117.899L117.939 75.6H115.019L118.579 56.4H112.099ZM121.019 48.44L118.779 45.68L115.499 48.44L117.739 51.24L121.019 48.44ZM140.586 63.04C140.546 61.84 140.186 60.68 139.626 59.64C139.026 58.6 138.226 57.72 137.186 57.04C136.106 56.32 134.946 55.88 133.706 55.72C132.466 55.56 131.186 55.64 129.906 55.96C128.626 56.32 127.346 56.88 126.106 57.72C124.866 58.52 123.746 59.6 122.746 60.88C121.746 62.2 121.026 63.52 120.586 64.84C120.146 66.2 119.946 67.48 120.026 68.72C120.106 69.96 120.426 71.12 120.986 72.12C121.586 73.2 122.386 74.04 123.466 74.76C124.506 75.44 125.666 75.88 126.906 76.04C127.346 76.12 127.746 76.16 128.186 76.16C129.026 76.16 129.866 76.04 130.746 75.8C132.026 75.48 133.266 74.88 134.506 74.08C135.746 73.24 136.866 72.16 137.866 70.88C138.866 69.6 139.586 68.28 140.026 66.92C140.466 65.6 140.666 64.28 140.586 63.04ZM132.426 55.68C132.546 55.68 132.666 55.72 132.786 55.72C132.626 55.72 132.466 55.68 132.306 55.68C132.346 55.68 132.386 55.68 132.426 55.68ZM138.986 62.28C138.906 63.36 138.586 64.56 138.066 65.76C137.506 67 136.746 68.28 135.786 69.52C134.826 70.76 133.786 71.84 132.706 72.72C131.586 73.56 130.506 74.2 129.426 74.64C128.426 75.04 127.426 75.28 126.506 75.28C126.426 75.28 126.386 75.24 126.306 75.24C125.346 75.24 124.426 74.96 123.666 74.44C122.906 73.96 122.346 73.28 122.026 72.4C121.666 71.56 121.546 70.56 121.626 69.48C121.706 68.4 122.026 67.24 122.546 66C123.106 64.76 123.866 63.52 124.826 62.28C125.786 61 126.826 59.92 127.946 59.08C129.026 58.2 130.106 57.56 131.186 57.12C132.186 56.72 133.186 56.52 134.146 56.52C134.186 56.52 134.226 56.52 134.306 56.52C135.306 56.56 136.186 56.8 136.946 57.32C137.706 57.84 138.266 58.52 138.626 59.36C138.946 60.24 139.106 61.2 138.986 62.28ZM158.643 75.6L161.043 62.68C161.763 58.76 160.083 55.96 155.843 55.96C153.363 55.96 150.923 56.92 148.803 58.8L149.243 56.4H142.763L142.683 56.8H145.683L142.203 75.6H139.243L139.163 76H148.563L148.603 75.6H145.683L148.603 59.72C150.563 57.96 152.323 57.16 154.083 57.16C157.163 57.16 158.163 59.2 157.523 62.68L155.163 75.6H152.203L152.123 76H161.443L161.523 75.6H158.643Z" fill="url(#paint0_linear_69_120)"/>
<defs>
<linearGradient id="paint0_linear_69_120" x1="63.5" y1="26.7895" x2="141.467" y2="61.9637" gradientUnits="userSpaceOnUse">
<stop stop-color="white"/>
<stop offset="1" stop-color="white" stop-opacity="0.22"/>
</linearGradient>
</defs>
</svg>
