<svg width="129" height="69" viewBox="0 0 129 69" fill="none" xmlns="http://www.w3.org/2000/svg">
<path d="M15.12 2.196H4.572L4.5 2.52H7.488L2.988 26.964H0.071999L0 27.288H9.57598L9.64798 26.964H6.3L8.208 16.524H12.204C16.596 16.524 21.816 14.364 22.752 9.288C23.58 4.68 19.764 2.196 15.12 2.196ZM19.08 9.864C18.324 13.86 16.164 15.912 12.528 15.912H8.352L10.728 2.844H14.256C17.568 2.844 19.98 4.788 19.08 9.864ZM35.8999 9.288C33.4159 9.288 31.3639 10.476 29.8879 11.952L30.2839 9.684H24.5959L24.5599 10.044H27.2599L24.1279 26.964H21.3919L21.3199 27.324H30.3559L30.4279 26.964H27.2959L29.9239 12.672C31.6519 10.944 33.4879 10.008 35.5399 10.008C36.4759 10.008 37.2679 10.224 37.8439 10.728L38.0959 9.648C37.3759 9.432 36.6559 9.288 35.8999 9.288ZM54.065 15.66C54.029 14.58 53.705 13.536 53.201 12.6C52.661 11.664 51.941 10.872 51.005 10.26C50.033 9.612 48.989 9.216 47.873 9.072C46.757 8.928 45.605 9 44.453 9.288C43.301 9.612 42.149 10.116 41.033 10.872C39.917 11.592 38.909 12.564 38.009 13.716C37.109 14.904 36.461 16.092 36.065 17.28C35.669 18.504 35.489 19.656 35.561 20.772C35.633 21.888 35.921 22.932 36.425 23.832C36.965 24.804 37.685 25.56 38.657 26.208C39.593 26.82 40.637 27.216 41.753 27.36C42.149 27.432 42.509 27.468 42.905 27.468C43.661 27.468 44.417 27.36 45.209 27.144C46.361 26.856 47.477 26.316 48.593 25.596C49.709 24.84 50.717 23.868 51.617 22.716C52.517 21.564 53.165 20.376 53.561 19.152C53.957 17.964 54.137 16.776 54.065 15.66ZM46.721 9.036C46.829 9.036 46.937 9.072 47.045 9.072C46.901 9.072 46.757 9.036 46.613 9.036C46.649 9.036 46.685 9.036 46.721 9.036ZM52.625 14.976C52.553 15.948 52.265 17.028 51.797 18.108C51.293 19.224 50.609 20.376 49.745 21.492C48.881 22.608 47.945 23.58 46.973 24.372C45.965 25.128 44.993 25.704 44.021 26.1C43.121 26.46 42.221 26.676 41.393 26.676C41.321 26.676 41.285 26.64 41.213 26.64C40.349 26.64 39.521 26.388 38.837 25.92C38.153 25.488 37.649 24.876 37.361 24.084C37.037 23.328 36.929 22.428 37.001 21.456C37.073 20.484 37.361 19.44 37.829 18.324C38.333 17.208 39.017 16.092 39.881 14.976C40.745 13.824 41.681 12.852 42.689 12.096C43.661 11.304 44.633 10.728 45.605 10.332C46.505 9.972 47.405 9.792 48.269 9.792C48.305 9.792 48.341 9.792 48.413 9.792C49.313 9.828 50.105 10.044 50.789 10.512C51.473 10.98 51.977 11.592 52.301 12.348C52.589 13.14 52.733 14.004 52.625 14.976ZM74.0782 0L71.9182 11.772C71.6302 11.484 71.3062 11.196 70.9462 10.98C70.3702 10.584 69.7582 10.332 69.1102 10.116C68.6782 9.972 68.2462 9.864 67.8142 9.792C66.6622 9.612 65.5102 9.72 64.3582 10.008C63.2062 10.332 62.0542 10.836 60.9382 11.592C59.8222 12.348 58.8142 13.284 57.9142 14.472C57.0142 15.66 56.3302 16.848 55.9342 18.072C55.5382 19.26 55.3582 20.448 55.4302 21.564C55.5022 22.68 55.6462 23.688 56.1862 24.66C56.6902 25.596 57.1942 26.388 58.1662 27C59.1022 27.648 60.2182 28.044 61.5142 28.044C65.1142 28.044 67.6702 26.82 69.3622 25.56L69.2902 25.992L69.0382 27.432C70.5862 27.432 70.5862 27.432 72.1342 27.432L77.1382 0.324H79.8022L79.8382 0H74.0782ZM71.3062 15.048L69.9022 22.68C68.4982 24.732 65.7622 27.504 61.1182 27.504C60.1822 27.504 59.3902 27.252 58.7062 26.784C58.0222 26.316 57.4822 25.704 57.1942 24.912C56.8702 24.12 56.7262 23.256 56.8342 22.248C56.9062 21.276 57.1942 20.232 57.6982 19.08C58.1662 17.964 58.8502 16.812 59.7502 15.696C60.6142 14.544 61.5502 13.572 62.5582 12.78C63.5662 11.988 64.5382 11.412 65.5462 11.016C66.5182 10.62 67.4542 10.44 68.3542 10.476C68.6422 10.476 68.9302 10.548 69.1822 10.584C69.7582 10.692 70.2982 10.872 70.7662 11.196C71.1982 11.484 71.5222 11.844 71.8102 12.276L71.3062 15.048ZM94.8102 9.756H89.0502L89.0142 10.116H91.5702L88.9782 24.264C87.2142 26.028 85.5942 26.676 84.1542 26.676C81.3822 26.676 80.8062 24.66 81.3102 21.852L83.5422 9.756H77.7822L77.7462 10.116H80.3382L78.1422 21.888C77.5302 25.38 79.1502 27.792 82.7502 27.792C84.9462 27.792 86.9982 26.928 88.8342 25.056L88.4022 27.396H94.1622L94.1982 27.036H91.6062L94.8102 9.756ZM112.643 10.584C112.067 10.188 111.455 9.936 110.807 9.72C110.411 9.576 109.979 9.468 109.511 9.396C108.395 9.216 107.243 9.324 106.055 9.612C104.903 9.936 103.787 10.44 102.671 11.196C101.555 11.952 100.547 12.888 99.6115 14.076C98.7112 15.264 98.0632 16.452 97.6672 17.676C97.2712 18.864 97.0912 20.052 97.1272 21.168C97.1992 22.284 97.3432 23.292 97.8832 24.264C98.4232 25.2 98.9272 25.992 99.8635 26.604C100.835 27.252 101.915 27.648 103.211 27.648C109.151 27.648 112.355 24.3 113.291 23.112C113.291 23.076 113.327 23.076 113.327 23.04L112.787 20.304C112.427 20.952 109.763 27.108 102.815 27.108C101.915 27.108 101.123 26.856 100.403 26.388C99.7195 25.92 99.2152 25.308 98.8912 24.516C98.5672 23.724 98.4592 22.86 98.5312 21.852C98.6392 20.88 98.9272 19.836 99.3952 18.684C99.8995 17.568 100.583 16.416 101.447 15.3C102.347 14.148 103.283 13.176 104.291 12.384C105.263 11.592 106.271 11.016 107.243 10.62C108.215 10.224 109.187 10.044 110.087 10.08C110.375 10.08 110.627 10.152 110.915 10.188C111.491 10.296 111.995 10.476 112.499 10.8C113.183 11.268 113.687 11.88 114.011 12.672C114.119 12.888 114.155 13.14 114.191 13.392L114.659 12.6C114.119 11.808 113.507 11.124 112.643 10.584ZM121.741 13.5L122.389 9.972H128.113L128.185 9.612H121.093C122.173 8.928 122.749 7.344 123.109 6.048C123.397 4.968 123.469 4.068 123.469 4.068H120.373L119.329 9.612H116.665L116.593 9.972L119.293 9.936L116.917 22.752C116.341 26.028 117.817 27.648 120.805 27.648C123.001 27.648 124.585 26.676 125.521 25.488L125.449 25.416C124.729 26.064 123.505 26.388 122.533 26.388C120.553 26.388 119.581 25.2 120.013 22.824L121.741 13.5ZM24.2674 36.196H13.4314L13.3594 36.52H16.3474L11.8474 60.964H8.96737L8.89537 61.288H19.5514C25.8154 61.288 33.0514 57.58 34.7074 48.616C36.2914 40.048 30.3514 36.196 24.2674 36.196ZM30.9634 48.832C29.5954 56.392 25.3474 60.676 19.4794 60.676C17.7154 60.676 17.7154 60.676 15.2674 60.676L19.6234 36.844H23.7994C28.2274 36.844 32.5474 40.228 30.9634 48.832ZM38.9264 52.684C39.4304 51.568 40.1144 50.416 40.9784 49.3C41.6264 48.472 42.3104 47.752 42.9944 47.104H54.4784C54.4064 46.96 54.3344 46.816 54.2264 46.636C53.6864 45.808 52.8224 44.98 52.1744 44.584C51.5984 44.188 50.9864 43.936 50.3384 43.72C49.9424 43.576 49.5104 43.468 49.0424 43.396C47.9264 43.216 46.7744 43.324 45.5864 43.612C44.4344 43.936 43.3184 44.44 42.2024 45.196C41.0864 45.952 40.0784 46.888 39.1424 48.076C38.2424 49.264 37.5944 50.452 37.1984 51.676C36.8024 52.864 36.6224 54.052 36.6584 55.168C36.7304 56.284 36.8744 57.292 37.4144 58.264C37.9544 59.2 38.4584 59.992 39.3944 60.604C40.3664 61.252 41.4464 61.648 42.7424 61.648C48.6824 61.648 51.8864 58.3 52.8224 57.112C52.8224 57.076 52.8584 57.076 52.8584 57.04L52.3184 54.304C51.9584 54.952 49.2944 61.108 42.3464 61.108C41.4464 61.108 40.6544 60.856 39.9344 60.388C39.2504 59.92 38.7464 59.308 38.4224 58.516C38.0984 57.724 37.9904 56.86 38.0624 55.852C38.1704 54.88 38.4584 53.836 38.9264 52.684ZM43.8224 46.384C44.7944 45.592 45.8024 45.016 46.7744 44.62C47.7464 44.224 48.7184 44.044 49.6184 44.08C49.9064 44.08 50.1584 44.152 50.4464 44.188C51.0224 44.296 51.5264 44.476 52.0304 44.8C52.7144 45.268 53.2184 45.88 53.5424 46.636H43.5344C43.6064 46.564 43.7144 46.456 43.8224 46.384ZM64.5733 43C61.0453 43 57.6253 44.476 56.9773 47.896C55.8973 53.944 65.9413 52.216 64.9333 57.58C64.5733 59.668 62.8093 60.856 60.0013 60.856C57.7333 60.856 56.2573 60.244 54.7453 58.876H54.6013L54.2773 60.1C55.9333 61.072 57.5533 61.432 59.8213 61.432C63.4573 61.432 67.2013 60.064 67.8853 56.284C69.0733 49.912 58.9933 51.676 59.9653 46.564C60.2893 44.62 61.9093 43.54 64.4293 43.576C66.3733 43.576 67.7413 44.116 69.2533 45.484H69.3973L69.7213 44.296C67.8853 43.36 66.5533 43 64.5733 43ZM71.8802 43.684L71.8082 44.044H74.5082L71.3762 60.964H68.7122L68.6402 61.324H77.1002L77.1362 60.964H74.5082L77.7122 43.684H71.8802ZM79.9082 36.52L77.8922 34.036L74.9402 36.52L76.9562 39.04L79.9082 36.52ZM96.0252 42.676C96.0972 42.676 96.1332 42.676 96.2052 42.676C96.3492 42.64 96.6732 42.64 96.8172 42.64L96.9972 41.596C96.9972 41.596 96.1692 41.704 96.0972 41.74C95.0892 41.884 94.1892 42.856 93.7572 43.9C93.7212 43.9 93.7212 43.864 93.6852 43.864C92.8932 43.396 91.9572 43.108 90.9492 43C89.9052 42.892 88.8612 43 87.8532 43.288C86.8452 43.576 85.8732 44.08 85.0092 44.692C84.1452 45.34 83.3892 46.132 82.7412 47.068C82.0572 48.004 81.5532 49.048 81.2292 50.2C80.9052 51.352 80.7972 52.468 80.9412 53.476C81.0492 54.448 81.3372 55.348 81.8052 56.14C81.8772 56.284 81.9852 56.428 82.0932 56.572C81.6252 56.968 80.7612 57.76 80.6892 57.796C78.8172 59.488 78.3852 62.008 79.2852 63.16C79.8252 63.772 80.5452 64.132 81.3372 64.204C81.4092 64.204 81.4452 64.204 81.5172 64.204C82.3812 64.204 83.2812 63.88 84.1092 63.196L86.9172 60.82L87.2412 60.568L87.5292 60.316C88.3572 59.632 89.3652 59.2 90.3732 59.164C90.6252 59.164 90.8772 59.2 91.1292 59.236L91.3452 59.272C91.3812 59.272 91.4532 59.308 91.5252 59.308C91.5972 59.344 91.6332 59.344 91.6692 59.344C92.3172 59.56 92.8572 59.92 93.2532 60.424C93.9012 61.288 94.1172 62.476 93.8292 63.628C93.5412 64.816 92.8212 65.968 91.8492 66.796L91.7772 66.832C91.0212 67.48 90.1212 67.84 89.1852 67.876C89.1492 67.876 89.0772 67.876 89.0052 67.876C88.0332 67.84 87.1692 67.444 86.5932 66.76L85.4052 65.176L83.4972 66.76L83.5692 66.868C84.4692 68.02 85.9092 68.704 87.4572 68.74C87.4932 68.74 87.5292 68.74 87.5652 68.74C87.6372 68.74 87.7092 68.74 87.7812 68.74C89.2572 68.668 90.7332 68.092 91.9572 67.048L92.0292 67.012C93.0732 66.112 93.8292 64.924 94.1532 63.628C94.4412 62.404 94.2252 61.144 93.5052 60.208C93.2172 59.848 92.8212 59.524 92.3532 59.272C92.1012 59.164 91.8492 59.092 91.5972 59.02L91.5612 58.984C91.2732 58.912 90.9852 58.876 90.6972 58.876C90.5892 58.876 90.5172 58.876 90.4092 58.876C89.3652 58.912 88.2492 59.344 87.3492 60.064L85.6932 61.468C83.8932 62.944 82.1652 62.476 81.3012 61.432C80.4732 60.388 80.3292 58.552 82.0212 57.04C82.0572 57.004 82.1652 56.932 82.3092 56.824C82.7052 57.292 83.1732 57.688 83.7132 58.012C84.5052 58.48 85.4412 58.804 86.4852 58.876C86.7372 58.912 86.9892 58.948 87.2412 58.948C88.0332 58.948 88.7892 58.804 89.5452 58.588C89.9052 58.48 90.2292 58.372 90.5532 58.228C91.2012 57.976 91.8132 57.616 92.3892 57.184C93.2532 56.536 94.0092 55.744 94.6932 54.808C95.3412 53.908 95.8452 52.828 96.1692 51.676C96.4932 50.524 96.6012 49.444 96.4932 48.436C96.3852 47.428 96.0612 46.528 95.5932 45.772C95.2332 45.124 94.7292 44.584 94.0812 44.152V44.116C94.4772 43.396 95.2332 42.712 96.0252 42.676ZM94.3332 48.4C94.3332 49.336 94.1892 50.38 93.9012 51.46C93.5772 52.54 93.1452 53.548 92.6412 54.412C92.1372 55.312 91.5252 56.068 90.8772 56.68C90.2652 57.22 89.6172 57.688 88.9332 57.976C88.8972 57.976 88.8252 58.012 88.7892 58.012C88.0692 58.3 87.3492 58.408 86.6292 58.336C85.9092 58.264 85.2612 58.048 84.7572 57.616C84.2172 57.22 83.8212 56.644 83.5332 55.96C83.2452 55.24 83.1012 54.412 83.0652 53.476C83.0652 52.54 83.2092 51.532 83.5332 50.416C83.8212 49.336 84.2532 48.328 84.7572 47.464C85.2972 46.564 85.8732 45.808 86.5572 45.232C87.1332 44.656 87.8172 44.224 88.5012 43.936C88.5372 43.9 88.5732 43.9 88.6092 43.864C89.3292 43.576 90.0852 43.468 90.7692 43.54C91.4892 43.612 92.1372 43.864 92.6772 44.26C93.1812 44.692 93.6132 45.232 93.9012 45.952C94.1532 46.636 94.3332 47.464 94.3332 48.4ZM113.805 60.964L115.965 49.336C116.613 45.808 115.101 43.288 111.285 43.288C109.053 43.288 106.857 44.152 104.949 45.844L105.345 43.684H99.5135L99.441 44.044H102.141L99.009 60.964H96.345L96.273 61.324H104.733L104.769 60.964H102.141L104.769 46.672C106.533 45.088 108.117 44.368 109.701 44.368C112.473 44.368 113.373 46.204 112.797 49.336L110.673 60.964H108.009L107.937 61.324H116.325L116.397 60.964H113.805Z" fill="url(#paint0_linear_69_123)"/>
<defs>
<linearGradient id="paint0_linear_69_123" x1="38.4995" y1="19.824" x2="111.999" y2="40.824" gradientUnits="userSpaceOnUse">
<stop stop-color="white"/>
<stop offset="1" stop-color="white" stop-opacity="0.26"/>
</linearGradient>
</defs>
</svg>
