<svg width="208" height="91" viewBox="0 0 208 91" fill="none" xmlns="http://www.w3.org/2000/svg">
<rect width="208" height="91" rx="21" fill="black" fill-opacity="0.5"/>
<rect x="0.25" y="0.25" width="207.5" height="90.5" rx="20.75" stroke="white" stroke-opacity="0.29" stroke-width="0.5"/>
<path d="M91.104 36.128C91.8507 36.256 92.416 36.56 92.8 37.04C93.1947 37.52 93.392 38.128 93.392 38.864C93.392 39.76 93.0773 40.5067 92.448 41.104C91.8187 41.7013 90.8373 42 89.504 42H83.712V30.64H89.296C89.9893 30.64 90.592 30.7307 91.104 30.912C91.616 31.0827 92.0053 31.3173 92.272 31.616C92.5493 31.9147 92.752 32.2347 92.88 32.576C93.008 32.9067 93.072 33.2587 93.072 33.632C93.072 34.2187 92.9013 34.7413 92.56 35.2C92.2293 35.6587 91.744 35.968 91.104 36.128ZM89.2 31.952H85.28V35.552H89.2C90.736 35.552 91.504 34.944 91.504 33.728C91.504 33.2267 91.328 32.8053 90.976 32.464C90.6347 32.1227 90.0427 31.952 89.2 31.952ZM89.392 40.688C90.2347 40.688 90.848 40.512 91.232 40.16C91.6267 39.808 91.824 39.3387 91.824 38.752C91.824 37.4933 91.0453 36.864 89.488 36.864H85.28V40.688H89.392ZM103.863 37.616V38.416H96.4714C96.4927 39.216 96.7807 39.8507 97.3354 40.32C97.9007 40.7893 98.6634 41.024 99.6234 41.024C101.063 41.024 102.05 40.496 102.583 39.44L103.767 39.984C102.989 41.488 101.586 42.24 99.5594 42.24C98.1514 42.24 97.042 41.8773 96.2314 41.152C95.4314 40.4267 95.0314 39.408 95.0314 38.096C95.0314 36.7307 95.4314 35.6693 96.2314 34.912C97.042 34.144 98.13 33.76 99.4954 33.76C100.871 33.76 101.943 34.096 102.711 34.768C103.479 35.44 103.863 36.3893 103.863 37.616ZM102.407 37.312V37.2C102.397 36.4533 102.125 35.872 101.591 35.456C101.058 35.04 100.354 34.832 99.4794 34.832C98.594 34.832 97.8794 35.056 97.3354 35.504C96.802 35.952 96.514 36.5547 96.4714 37.312H102.407ZM109.745 42.24C107.419 42.24 105.947 41.376 105.329 39.648L106.657 39.216C107.105 40.464 108.171 41.088 109.857 41.088C111.329 41.088 112.065 40.6613 112.065 39.808C112.065 39.4347 111.953 39.1573 111.729 38.976C111.505 38.7947 111.131 38.6827 110.609 38.64L108.257 38.464C107.403 38.3893 106.758 38.1547 106.321 37.76C105.894 37.3653 105.681 36.8373 105.681 36.176C105.681 35.4187 106.006 34.8267 106.657 34.4C107.307 33.9733 108.198 33.76 109.329 33.76C110.417 33.76 111.318 33.968 112.033 34.384C112.747 34.7893 113.217 35.3493 113.441 36.064L112.113 36.512C111.675 35.424 110.721 34.88 109.249 34.88C108.555 34.88 108.017 34.992 107.633 35.216C107.249 35.4293 107.057 35.7333 107.057 36.128C107.057 36.7893 107.569 37.168 108.593 37.264L110.977 37.44C112.63 37.5893 113.457 38.3413 113.457 39.696C113.457 40.496 113.142 41.12 112.513 41.568C111.894 42.016 110.971 42.24 109.745 42.24ZM114.303 35.152V34H116.223V31.904L117.647 31.312V34H120.495V35.152H117.647V39.28C117.647 39.824 117.775 40.224 118.031 40.48C118.287 40.7253 118.687 40.848 119.231 40.848C119.636 40.848 120.063 40.7947 120.511 40.688V41.952C120.095 42.0907 119.578 42.16 118.959 42.16C117.924 42.16 117.21 41.9147 116.815 41.424C116.42 40.9227 116.223 40.2347 116.223 39.36V35.152H114.303ZM128.025 42V30.64H132.905C134.718 30.64 136.174 31.1413 137.273 32.144C138.382 33.136 138.937 34.496 138.937 36.224C138.937 37.952 138.377 39.3493 137.257 40.416C136.147 41.472 134.697 42 132.905 42H128.025ZM129.593 40.688H132.889C134.254 40.688 135.326 40.2827 136.105 39.472C136.883 38.6507 137.273 37.568 137.273 36.224C137.273 34.8907 136.873 33.8453 136.073 33.088C135.273 32.3307 134.185 31.952 132.809 31.952H129.593V40.688ZM149.176 37.616V38.416H141.784C141.805 39.216 142.093 39.8507 142.648 40.32C143.213 40.7893 143.976 41.024 144.936 41.024C146.376 41.024 147.363 40.496 147.896 39.44L149.08 39.984C148.301 41.488 146.899 42.24 144.872 42.24C143.464 42.24 142.355 41.8773 141.544 41.152C140.744 40.4267 140.344 39.408 140.344 38.096C140.344 36.7307 140.744 35.6693 141.544 34.912C142.355 34.144 143.443 33.76 144.808 33.76C146.184 33.76 147.256 34.096 148.024 34.768C148.792 35.44 149.176 36.3893 149.176 37.616ZM147.72 37.312V37.2C147.709 36.4533 147.437 35.872 146.904 35.456C146.371 35.04 145.667 34.832 144.792 34.832C143.907 34.832 143.192 35.056 142.648 35.504C142.115 35.952 141.827 36.5547 141.784 37.312H147.72ZM155.057 42.24C152.732 42.24 151.26 41.376 150.641 39.648L151.969 39.216C152.417 40.464 153.484 41.088 155.169 41.088C156.641 41.088 157.377 40.6613 157.377 39.808C157.377 39.4347 157.265 39.1573 157.041 38.976C156.817 38.7947 156.444 38.6827 155.921 38.64L153.569 38.464C152.716 38.3893 152.07 38.1547 151.633 37.76C151.206 37.3653 150.993 36.8373 150.993 36.176C150.993 35.4187 151.318 34.8267 151.969 34.4C152.62 33.9733 153.51 33.76 154.641 33.76C155.729 33.76 156.63 33.968 157.345 34.384C158.06 34.7893 158.529 35.3493 158.753 36.064L157.425 36.512C156.988 35.424 156.033 34.88 154.561 34.88C153.868 34.88 153.329 34.992 152.945 35.216C152.561 35.4293 152.369 35.7333 152.369 36.128C152.369 36.7893 152.881 37.168 153.905 37.264L156.289 37.44C157.942 37.5893 158.769 38.3413 158.769 39.696C158.769 40.496 158.454 41.12 157.825 41.568C157.206 42.016 156.284 42.24 155.057 42.24ZM161.002 32.528V30.752H162.65V32.528H161.002ZM161.13 42V34H162.538V42H161.13ZM173.23 33.904C172.558 33.904 172.126 34.1333 171.934 34.592C172.531 35.0933 172.83 35.7387 172.83 36.528C172.83 37.36 172.499 38.032 171.838 38.544C171.176 39.056 170.28 39.312 169.15 39.312C168.36 39.312 167.688 39.184 167.134 38.928C166.643 39.0987 166.398 39.3707 166.398 39.744C166.398 40.2773 166.851 40.544 167.758 40.544H170.91C172.808 40.544 173.758 41.2853 173.758 42.768C173.758 44.496 172.2 45.36 169.086 45.36C166.174 45.36 164.718 44.624 164.718 43.152C164.718 42.3307 165.166 41.7813 166.062 41.504C165.422 41.2373 165.102 40.784 165.102 40.144C165.102 39.3653 165.55 38.8267 166.446 38.528C165.784 38.0267 165.454 37.36 165.454 36.528C165.454 35.696 165.784 35.0293 166.446 34.528C167.107 34.016 168.008 33.76 169.15 33.76C169.939 33.76 170.627 33.8933 171.214 34.16C171.331 33.7013 171.566 33.344 171.918 33.088C172.27 32.8213 172.728 32.688 173.294 32.688C173.475 32.688 173.667 32.7093 173.87 32.752V33.968C173.71 33.9253 173.496 33.904 173.23 33.904ZM167.47 37.792C167.886 38.112 168.446 38.272 169.15 38.272C169.854 38.272 170.414 38.112 170.83 37.792C171.246 37.472 171.454 37.0507 171.454 36.528C171.454 36.0053 171.246 35.5893 170.83 35.28C170.414 34.9707 169.854 34.816 169.15 34.816C168.435 34.816 167.87 34.9707 167.454 35.28C167.048 35.5787 166.846 35.9947 166.846 36.528C166.846 37.0507 167.054 37.472 167.47 37.792ZM170.638 41.776H167.71C167.432 41.776 167.182 41.76 166.958 41.728C166.36 41.984 166.062 42.3787 166.062 42.912C166.062 43.7867 167.096 44.224 169.166 44.224C171.299 44.224 172.366 43.7707 172.366 42.864C172.366 42.1387 171.79 41.776 170.638 41.776ZM175.536 42V34H176.896V35.744C177.558 34.4107 178.72 33.744 180.384 33.744C181.526 33.744 182.395 34.0587 182.992 34.688C183.59 35.3173 183.888 36.24 183.888 37.456V42H182.48V37.664C182.48 35.872 181.632 34.976 179.936 34.976C179.019 34.976 178.288 35.2533 177.744 35.808C177.211 36.3627 176.944 37.1147 176.944 38.064V42H175.536ZM92.608 61L91.36 58.056H85.232L83.968 61H82.32L87.504 49.64H89.088L94.272 61H92.608ZM85.792 56.744H90.8L89.104 52.776C88.7093 52.0293 88.4427 51.4427 88.304 51.016H88.272C88.1227 51.4853 87.8613 52.072 87.488 52.776L85.792 56.744ZM97.2926 61L94.4766 53H95.9646L97.9486 58.904C98.0233 59.192 98.082 59.464 98.1246 59.72H98.1566C98.1566 59.6773 98.226 59.4053 98.3646 58.904L100.493 53H102.045L104.189 58.904C104.317 59.3733 104.386 59.6453 104.397 59.72H104.429C104.45 59.5813 104.509 59.3093 104.605 58.904L106.589 53H108.077L105.261 61H103.629L101.485 55.096C101.378 54.8293 101.314 54.568 101.293 54.312H101.261C101.218 54.5893 101.154 54.8507 101.069 55.096L98.9246 61H97.2926ZM112.189 61.24C111.197 61.24 110.407 61.0267 109.821 60.6C109.234 60.1733 108.941 59.5973 108.941 58.872C108.941 58.072 109.271 57.464 109.933 57.048C110.551 56.6747 111.543 56.4293 112.909 56.312L115.885 56.088V55.944C115.885 54.5787 115.058 53.896 113.405 53.896C112.626 53.896 112.007 54.04 111.549 54.328C111.09 54.616 110.823 55.032 110.749 55.576H109.213C109.298 54.7333 109.719 54.056 110.477 53.544C111.234 53.0213 112.21 52.76 113.405 52.76C114.717 52.76 115.693 53.0373 116.333 53.592C116.983 54.136 117.309 54.9733 117.309 56.104V58.216C117.309 59.4213 117.389 60.3493 117.549 61H116.077C116.013 60.6267 115.97 60.1093 115.949 59.448C115.319 60.6427 114.066 61.24 112.189 61.24ZM112.573 60.12C113.565 60.12 114.365 59.88 114.973 59.4C115.591 58.92 115.901 58.2853 115.901 57.496V57.096L112.653 57.4C111.842 57.4853 111.271 57.64 110.941 57.864C110.61 58.088 110.445 58.4133 110.445 58.84C110.445 59.2453 110.626 59.56 110.989 59.784C111.362 60.008 111.89 60.12 112.573 60.12ZM121.458 55.032C121.671 54.36 122.034 53.816 122.546 53.4C123.058 52.984 123.66 52.776 124.354 52.776C124.567 52.776 124.77 52.792 124.962 52.824V54.2C124.748 54.1787 124.583 54.168 124.466 54.168C123.559 54.168 122.866 54.424 122.386 54.936C121.831 55.5013 121.554 56.44 121.554 57.752V61H120.146V53H121.458V55.032ZM129.769 61.24C128.563 61.24 127.577 60.8507 126.809 60.072C126.041 59.2827 125.657 58.2587 125.657 57C125.657 55.752 126.046 54.7333 126.825 53.944C127.614 53.1547 128.638 52.76 129.897 52.76C131.369 52.76 132.467 53.288 133.193 54.344V49.4H134.601V61H133.241V59.448C132.558 60.6427 131.401 61.24 129.769 61.24ZM130.153 60.008C131.07 60.008 131.811 59.752 132.377 59.24C132.942 58.728 133.225 58.0507 133.225 57.208V56.84C133.225 55.976 132.937 55.2827 132.361 54.76C131.785 54.2373 131.027 53.976 130.089 53.976C129.171 53.976 128.451 54.248 127.929 54.792C127.406 55.3253 127.145 56.0613 127.145 57C127.145 57.9387 127.411 58.6747 127.945 59.208C128.489 59.7413 129.225 60.008 130.153 60.008ZM141.338 61.24C139.013 61.24 137.541 60.376 136.922 58.648L138.25 58.216C138.698 59.464 139.765 60.088 141.45 60.088C142.922 60.088 143.658 59.6613 143.658 58.808C143.658 58.4347 143.546 58.1573 143.322 57.976C143.098 57.7947 142.725 57.6827 142.202 57.64L139.85 57.464C138.997 57.3893 138.352 57.1547 137.914 56.76C137.488 56.3653 137.274 55.8373 137.274 55.176C137.274 54.4187 137.6 53.8267 138.25 53.4C138.901 52.9733 139.792 52.76 140.922 52.76C142.01 52.76 142.912 52.968 143.626 53.384C144.341 53.7893 144.81 54.3493 145.034 55.064L143.706 55.512C143.269 54.424 142.314 53.88 140.842 53.88C140.149 53.88 139.61 53.992 139.226 54.216C138.842 54.4293 138.65 54.7333 138.65 55.128C138.65 55.7893 139.162 56.168 140.186 56.264L142.57 56.44C144.224 56.5893 145.05 57.3413 145.05 58.696C145.05 59.496 144.736 60.12 144.106 60.568C143.488 61.016 142.565 61.24 141.338 61.24Z" fill="white"/>
<path d="M52.3306 25.0207C55.2076 24.8409 58.0447 25.8398 60.1825 27.7978C62.1405 29.9356 63.1395 32.7727 62.9797 35.6697V54.3303C63.1595 57.2273 62.1405 60.0644 60.2025 62.2022C58.0647 64.1602 55.2076 65.1591 52.3306 64.9793H33.6697C30.7727 65.1591 27.9356 64.1602 25.7978 62.2022C23.8398 60.0644 22.8409 57.2273 23.0207 54.3303V35.6697C22.8409 32.7727 23.8398 29.9356 25.7978 27.7978C27.9356 25.8398 30.7727 24.8409 33.6697 25.0207H52.3306ZM51.8111 34.1512C50.5724 32.9125 48.5744 32.9125 47.3357 34.1512L45.9971 35.5098C45.7973 35.7096 45.7973 36.0493 45.9971 36.2491C45.9971 36.2491 46.0363 36.288 46.1061 36.3574L46.5975 36.8462C46.8818 37.129 47.2366 37.4822 47.5929 37.8374L48.8011 39.045C49.0532 39.2982 49.2204 39.4679 49.2338 39.4857C49.4535 39.7255 49.5934 40.0451 49.5934 40.4048C49.5934 41.124 49.014 41.7234 48.2747 41.7234C47.9351 41.7234 47.6154 41.5835 47.3956 41.3638L44.0591 38.0472C43.8992 37.8874 43.6195 37.8874 43.4597 38.0472L33.9295 47.5773C33.2701 48.2367 32.8905 49.1157 32.8706 50.0548L32.7507 54.7899C32.7507 55.0496 32.8306 55.2894 33.0104 55.4692C33.1902 55.649 33.43 55.7489 33.6897 55.7489H38.3849C39.3439 55.7489 40.263 55.3693 40.9623 54.69L54.4084 41.2039C55.6272 39.9652 55.6272 37.9673 54.4084 36.7485L51.8111 34.1512Z" fill="#F86237"/>
</svg>
