<svg width="200" height="200" viewBox="0 0 200 200" fill="none" xmlns="http://www.w3.org/2000/svg">
<path d="M35 0.25H165C184.192 0.25 199.75 15.8081 199.75 35V165C199.75 184.192 184.192 199.75 165 199.75H35C15.8081 199.75 0.25 184.192 0.25 165V35C0.25 15.8081 15.8081 0.25 35 0.25Z" fill="#001E36" fill-opacity="0.5" stroke="white" stroke-width="0.5"/>
<path d="M84.482 72.6708L84.4845 72.673C87.6248 75.3847 89.2077 79.2461 89.2077 84.295C89.2077 90.0377 87.4082 94.1453 83.8537 96.6808C80.3548 99.1518 75.7304 100.399 69.9587 100.399C65.7806 100.399 63.0539 100.321 61.7591 100.17V68.7102H61.7596H61.7619H61.7641H61.7664H61.7686H61.7709H61.7732H61.7755H61.7778H61.7801H61.7824H61.7847H61.787H61.7894H61.7917H61.7941H61.7964H61.7988H61.8012H61.8036H61.806H61.8084H61.8108H61.8132H61.8156H61.818H61.8205H61.8229H61.8254H61.8278H61.8303H61.8328H61.8353H61.8378H61.8403H61.8428H61.8453H61.8478H61.8504H61.8529H61.8555H61.858H61.8606H61.8632H61.8657H61.8683H61.8709H61.8735H61.8762H61.8788H61.8814H61.884H61.8867H61.8893H61.892H61.8947H61.8974H61.9H61.9027H61.9054H61.9081H61.9109H61.9136H61.9163H61.9191H61.9218H61.9246H61.9273H61.9301H61.9329H61.9357H61.9385H61.9413H61.9441H61.9469H61.9497H61.9526H61.9554H61.9583H61.9611H61.964H61.9669H61.9698H61.9727H61.9756H61.9785H61.9814H61.9843H61.9872H61.9902H61.9931H61.9961H61.999H62.002H62.005H62.008H62.011H62.014H62.017H62.02H62.023H62.0261H62.0291H62.0322H62.0352H62.0383H62.0414H62.0444H62.0475H62.0506H62.0537H62.0569H62.06H62.0631H62.0662H62.0694H62.0725H62.0757H62.0789H62.0821H62.0852H62.0884H62.0916H62.0948H62.0981H62.1013H62.1045H62.1078H62.111H62.1143H62.1175H62.1208H62.1241H62.1274H62.1307H62.134H62.1373H62.1406H62.1439H62.1473H62.1506H62.154H62.1573H62.1607H62.1641H62.1675H62.1708H62.1742H62.1777H62.1811H62.1845H62.1879H62.1914H62.1948H62.1983H62.2017H62.2052H62.2087H62.2122H62.2157H62.2192H62.2227H62.2262H62.2297H62.2333H62.2368H62.2404H62.2439H62.2475H62.2511H62.2546H62.2582H62.2618H62.2654H62.269H62.2727H62.2763H62.2799H62.2836H62.2872H62.2909H62.2946H62.2982H62.3019H62.3056H62.3093H62.313H62.3167H62.3205H62.3242H62.3279H62.3317H62.3355H62.3392H62.343H62.3468H62.3506H62.3544H62.3582H62.362H62.3658H62.3696H62.3735H62.3773H62.3812H62.385H62.3889H62.3928H62.3966H62.4005H62.4044H62.4083H62.4123H62.4162H62.4201H62.424H62.428H62.4319H62.4359H62.4399H62.4439H62.4478H62.4518H62.4558H62.4599H62.4639H62.4679H62.4719H62.476H62.48H62.4841H62.4882H62.4922H62.4963H62.5004H62.5045H62.5086H62.5127H62.5168H62.521H62.5251H62.5293H62.5334H62.5376H62.5417H62.5459H62.5501H62.5543H62.5585H62.5627H62.5669H62.5711H62.5754H62.5796H62.5839H62.5881H62.5924H62.5967H62.6009H62.6052H62.6095H62.6138H62.6181H62.6225H62.6268H62.6311H62.6355H62.6398H62.6442H62.6486H62.6529H62.6573H62.6617H62.6661H62.6705H62.6749H62.6793H62.6838H62.6882H62.6927H62.6971H62.7016H62.7061H62.7105H62.715H62.7195H62.724H62.7285H62.733H62.7376H62.7421H62.7467H62.7512H62.7558H62.7603H62.7649H62.7695H62.7741H62.7787H62.7833H62.7879H62.7925H62.7971H62.8018H62.8064H62.8111H62.8157H62.8204H62.8251H62.8298H62.8345H62.8392H62.8439H62.8486H62.8533H62.858H62.8628H62.8675H62.8723H62.8771H62.8818H62.8866H62.8914H62.8962H62.901H62.9058H62.9106H62.9155H62.9203H62.9251H62.93H62.9348H62.9397H62.9446H62.9495H62.9544H62.9593H62.9642H62.9691H62.974H62.9789H62.9839H62.9888H62.9938H62.9987H63.0037H63.0087H63.0137H63.0187H63.0237H63.0287H63.0337H63.0387H63.0438H63.0488H63.0539H63.0589H63.064H63.0691H63.0746H63.0802H63.0858H63.0914H63.097H63.1027H63.1083H63.1139H63.1195H63.1252H63.1308H63.1364H63.1421H63.1477H63.1534H63.1591H63.1647H63.1704H63.1761H63.1818H63.1875H63.1931H63.1988H63.2045H63.2102H63.216H63.2217H63.2274H63.2331H63.2389H63.2446H63.2503H63.2561H63.2618H63.2676H63.2734H63.2791H63.2849H63.2907H63.2965H63.3022H63.308H63.3138H63.3196H63.3254H63.3312H63.3371H63.3429H63.3487H63.3545H63.3604H63.3662H63.3721H63.3779H63.3838H63.3896H63.3955H63.4014H63.4072H63.4131H63.419H63.4249H63.4308H63.4367H63.4426H63.4485H63.4544H63.4603H63.4663H63.4722H63.4781H63.4841H63.49H63.496H63.5019H63.5079H63.5139H63.5198H63.5258H63.5318H63.5378H63.5438H63.5497H63.5557H63.5618H63.5678H63.5738H63.5798H63.5858H63.5919H63.5979H63.6039H63.61H63.616H63.6221H63.6281H63.6342H63.6403H63.6463H63.6524H63.6585H63.6646H63.6707H63.6768H63.6829H63.689H63.6951H63.7012H63.7074H63.7135H63.7196H63.7258H63.7319H63.738H63.7442H63.7504H63.7565H63.7627H63.7689H63.775H63.7812H63.7874H63.7936H63.7998H63.806H63.8122H63.8184H63.8246H63.8309H63.8371H63.8433H63.8496H63.8558H63.8621H63.8683H63.8746H63.8808H63.8871H63.8934H63.8996H63.9059H63.9122H63.9185H63.9248H63.9311H63.9374H63.9437H63.95H63.9564H63.9627H63.969H63.9754H63.9817H63.9881H63.9944H64.0008H64.0071H64.0135H64.0199H64.0262H64.0326H64.039H64.0454H64.0518H64.0582H64.0646H64.071H64.0774H64.0838H64.0903H64.0967H64.1031H64.1096H64.116H64.1225H64.1289H64.1354H64.1419H64.1483H64.1548H64.1613H64.1678H64.1743H64.1808H64.1873H64.1938H64.2003H64.2068H64.2133H64.2198H64.2264H64.2329H64.2394H64.246H64.2525H64.2591H64.2657H64.2722H64.2788H64.2854H64.2919H64.2985H64.3051H64.3117H64.3183H64.3249H64.3315H64.3381H64.3448H64.3514H64.358H64.3647H64.3713H64.3779H64.3846H64.3912H64.3979H64.4046H64.4112H64.4179H64.4246H64.4313H64.438H64.4447H64.4514H64.4581H64.4648H64.4715H64.4782H64.4849H64.4916H64.4984H64.5051H64.5119H64.5186H64.5254H64.5321H64.5389H64.5457H64.5524H64.5592H64.566H64.5728H64.5796H64.5864H64.5932H64.6H64.6068H64.6136H64.6204H64.6273H64.6341H64.6409H64.6478H64.6546H64.6615H64.6683H64.6752H64.6821H64.6889H64.6958H64.7027H64.7096H64.7165H64.7234H64.7303H64.7372H64.7441H64.751H64.7579H64.7649H64.7718H64.7787H64.7857H64.7926H64.7996H64.8065H64.8135H64.8205H64.8274H64.8344H64.8414H64.8484H64.8554H64.8624H64.8694H64.8764H64.8834H64.8904H64.8974H64.9044H64.9115H64.9185H64.9256H64.9326H64.9396H64.9467H64.9538H64.9608H64.9679H64.975H64.9821H64.9891H64.9962H65.0033H65.0104H65.0175H65.0246H65.0318H65.0389H65.046H65.0531H65.0603H65.0674H65.0746H65.0817H65.0889H65.096H65.1032H65.1104H65.1175H65.1247H65.1319H65.1391H65.1463H65.1535H65.1607H65.1679H65.1751H65.1823H65.1896H65.1968H65.204H65.2113H65.2185H65.2258H65.233H65.2403H65.2475H65.2548H65.2621H65.2694H65.2766H65.2839H65.2912H65.2985H65.3058H65.3131H65.3204H65.3278H65.3351H65.3424H65.3498H65.3571H65.3644H65.3718H65.3791H65.3865H65.3939H65.4012H65.4086H65.416H65.4234H65.4307H65.4381H65.4455H65.4529H65.4604H65.4678H65.4752H65.4826H65.49H65.4975H65.5049H65.5123H65.5198H65.5272H65.5347H65.5422H65.5496H65.5571H65.5646H65.5721H65.5796H65.587H65.5945H65.602H65.6096H65.6171H65.6246H65.6321H65.6396H65.6472H65.6547H65.6622H65.6698H65.6773H65.6849H65.6925H65.7H65.7076H65.7152H65.7228H65.7303H65.7379H65.7455H65.7531H65.7607H65.7684H65.776H65.7836H65.7912H65.7988H65.8065H65.8141H65.8218H65.8294H65.8371H65.8447H65.8524H65.8601H65.8677H65.8754H65.8831H65.8908H65.8985H65.9062H65.9139H65.9216H65.9293H65.9371H65.9448H65.9525H65.9602H65.968H65.9757H65.9835H65.9912H65.999H66.0068H66.0145H66.0223H66.0301H66.0379H66.0457H66.0535H66.0613H66.0691H66.0769H66.0847H66.0925H66.1003H66.1082H66.116H66.1238H66.1317H66.1395H66.1474H66.1552H66.1631H66.171H66.1788H66.1867H66.1946H66.2025H66.2104H66.2183H66.2262H66.2341H66.242H66.2499H66.2579H66.2658H66.2737H66.2817H66.2896H66.2976H66.3055H66.3135H66.3214H66.3294H66.3374H66.3454H66.3533H66.3613H66.3693H66.3773H66.3853H66.3933H66.4013H66.4094H66.4174H66.4254H66.4334H66.4415H66.4495H66.4576H66.4656H66.4737H66.4817H66.4898H66.4979H66.506H66.514H66.5221H66.5302H66.5383H66.5464H66.5545H66.5626H66.5708H66.5789H66.5862L66.5935 68.7097C68.0619 68.6235 69.5303 68.5804 70.9986 68.5804C76.9434 68.5804 81.4243 69.957 84.482 72.6708ZM149.397 138.873L149.397 138.873C153.964 135.19 156.25 130.359 156.25 124.401C156.25 119.502 154.759 115.5 151.762 112.418C148.862 109.261 143.793 106.303 136.592 103.531C132.695 101.975 130.181 100.649 129.005 99.5602C127.835 98.3913 127.262 97.0698 127.262 95.587C127.262 94.1175 127.91 92.8446 129.246 91.7598C130.656 90.685 132.843 90.1261 135.851 90.1261C141.086 90.1261 146.109 91.6245 150.925 94.6291C151.132 94.7663 151.33 94.8647 151.518 94.9063C151.711 94.9492 151.907 94.9341 152.076 94.8217C152.24 94.7128 152.338 94.5385 152.397 94.3448C152.455 94.1503 152.48 93.9126 152.48 93.6401V82.8673C152.48 81.9779 152.259 81.2954 151.709 80.9655L151.7 80.9606L151.692 80.9563C147.829 79.0276 142.367 78.0745 135.331 78.0745C127.754 78.0745 121.879 79.9009 117.746 83.5893C113.62 87.27 111.552 91.8369 111.552 97.2743C111.552 101.998 112.912 105.952 115.643 109.119L115.643 109.119L115.648 109.125C118.46 112.196 123.357 115.069 130.301 117.755L130.301 117.755C134.112 119.225 136.625 120.595 137.884 121.852L137.884 121.853L137.891 121.858C139.138 123.021 139.761 124.469 139.761 126.218C139.761 127.852 138.991 129.208 137.401 130.294C135.901 131.293 133.662 131.809 130.651 131.809C124.302 131.809 118.335 129.756 112.744 125.638C112.62 125.52 112.466 125.449 112.29 125.449C112.119 125.449 111.956 125.515 111.806 125.613C111.508 125.771 111.422 126.12 111.422 126.478V138.549C111.422 138.924 111.493 139.254 111.653 139.521C111.812 139.786 112.049 139.97 112.349 140.075C117.248 142.865 123.527 144.25 131.171 144.25C138.835 144.25 144.919 142.467 149.397 138.873ZM44.75 57.1681V141.794C44.75 142.144 44.852 142.45 45.0955 142.663C45.3326 142.87 45.6624 142.952 46.0399 142.952H60.4692C60.8543 142.952 61.189 142.856 61.4258 142.619C61.6626 142.383 61.7591 142.048 61.7591 141.664V113.1H69.1787C79.7028 113.1 88.465 110.711 95.4489 105.917C102.462 101.103 105.957 93.7503 105.957 83.9056C105.957 75.9643 103.113 69.2793 97.4303 63.8668C91.8173 58.438 82.9877 55.75 70.9986 55.75C60.8596 55.75 52.4954 55.8365 45.9066 56.0096C45.5662 56.0102 45.2652 56.0958 45.0508 56.3098C44.8357 56.5246 44.75 56.8267 44.75 57.1681Z" fill="#31A8FE" stroke="white" stroke-width="0.5"/>
</svg>
