<svg width="175" height="99" viewBox="0 0 175 99" fill="none" xmlns="http://www.w3.org/2000/svg">
<g filter="url(#filter0_bd_43_59)">
<rect x="4" width="167" height="91" rx="21" fill="black" fill-opacity="0.5" shape-rendering="crispEdges"/>
<rect x="4.25" y="0.25" width="166.5" height="90.5" rx="20.75" stroke="white" stroke-opacity="0.29" stroke-width="0.5" shape-rendering="crispEdges"/>
</g>
<path d="M84.376 33.0807H85.944V39.8647C85.944 40.91 86.2693 41.7633 86.92 42.4247C87.5707 43.0753 88.4613 43.4007 89.592 43.4007C90.7227 43.4007 91.608 43.0753 92.248 42.4247C92.8987 41.7633 93.224 40.91 93.224 39.8647V33.0807H94.808V39.9447C94.808 41.3847 94.3493 42.5473 93.432 43.4327C92.5147 44.318 91.2347 44.7607 89.592 44.7607C87.9493 44.7607 86.6693 44.318 85.752 43.4327C84.8347 42.5473 84.376 41.3847 84.376 39.9447V33.0807ZM99.4675 44.4407H97.8995V33.0807H99.4675V44.4407ZM106.964 33.0167L102.708 44.4407H101.332L105.588 33.0167H106.964ZM108.501 33.0807H110.069V39.8647C110.069 40.91 110.394 41.7633 111.045 42.4247C111.696 43.0753 112.586 43.4007 113.717 43.4007C114.848 43.4007 115.733 43.0753 116.373 42.4247C117.024 41.7633 117.349 40.91 117.349 39.8647V33.0807H118.933V39.9447C118.933 41.3847 118.474 42.5473 117.557 43.4327C116.64 44.318 115.36 44.7607 113.717 44.7607C112.074 44.7607 110.794 44.318 109.877 43.4327C108.96 42.5473 108.501 41.3847 108.501 39.9447V33.0807ZM120.286 44.4407L125.086 38.4887L120.638 33.0807H122.59L125.646 36.9047C125.849 37.182 125.993 37.3953 126.078 37.5447H126.11C126.163 37.4167 126.307 37.2087 126.542 36.9207L129.566 33.0807H131.454L127.07 38.5527L131.87 44.4407H129.886L126.558 40.2327C126.291 39.8913 126.126 39.6407 126.062 39.4807H126.03C125.934 39.6727 125.763 39.9233 125.518 40.2327L122.174 44.4407H120.286ZM84.712 63.4407V52.0807H89.592C91.4053 52.0807 92.8613 52.582 93.96 53.5847C95.0693 54.5767 95.624 55.9367 95.624 57.6647C95.624 59.3927 95.064 60.79 93.944 61.8567C92.8347 62.9127 91.384 63.4407 89.592 63.4407H84.712ZM86.28 62.1287H89.576C90.9413 62.1287 92.0133 61.7233 92.792 60.9127C93.5707 60.0913 93.96 59.0087 93.96 57.6647C93.96 56.3313 93.56 55.286 92.76 54.5287C91.96 53.7713 90.872 53.3927 89.496 53.3927H86.28V62.1287ZM105.863 59.0567V59.8567H98.4714C98.4927 60.6567 98.7807 61.2913 99.3354 61.7607C99.9007 62.23 100.663 62.4647 101.623 62.4647C103.063 62.4647 104.05 61.9367 104.583 60.8807L105.767 61.4247C104.989 62.9287 103.586 63.6807 101.559 63.6807C100.151 63.6807 99.042 63.318 98.2314 62.5927C97.4314 61.8673 97.0314 60.8487 97.0314 59.5367C97.0314 58.1713 97.4314 57.11 98.2314 56.3527C99.042 55.5847 100.13 55.2007 101.495 55.2007C102.871 55.2007 103.943 55.5367 104.711 56.2087C105.479 56.8807 105.863 57.83 105.863 59.0567ZM104.407 58.7527V58.6407C104.397 57.894 104.125 57.3127 103.591 56.8967C103.058 56.4807 102.354 56.2727 101.479 56.2727C100.594 56.2727 99.8794 56.4967 99.3354 56.9447C98.802 57.3927 98.514 57.9953 98.4714 58.7527H104.407ZM111.745 63.6807C109.419 63.6807 107.947 62.8167 107.329 61.0887L108.657 60.6567C109.105 61.9047 110.171 62.5287 111.857 62.5287C113.329 62.5287 114.065 62.102 114.065 61.2487C114.065 60.8753 113.953 60.598 113.729 60.4167C113.505 60.2353 113.131 60.1233 112.609 60.0807L110.257 59.9047C109.403 59.83 108.758 59.5953 108.321 59.2007C107.894 58.806 107.681 58.278 107.681 57.6167C107.681 56.8593 108.006 56.2673 108.657 55.8407C109.307 55.414 110.198 55.2007 111.329 55.2007C112.417 55.2007 113.318 55.4087 114.033 55.8247C114.747 56.23 115.217 56.79 115.441 57.5047L114.113 57.9527C113.675 56.8647 112.721 56.3207 111.249 56.3207C110.555 56.3207 110.017 56.4327 109.633 56.6567C109.249 56.87 109.057 57.174 109.057 57.5687C109.057 58.23 109.569 58.6087 110.593 58.7047L112.977 58.8807C114.63 59.03 115.457 59.782 115.457 61.1367C115.457 61.9367 115.142 62.5607 114.513 63.0087C113.894 63.4567 112.971 63.6807 111.745 63.6807ZM117.69 53.9687V52.1927H119.338V53.9687H117.69ZM117.818 63.4407V55.4407H119.226V63.4407H117.818ZM129.917 55.3447C129.245 55.3447 128.813 55.574 128.621 56.0327C129.219 56.534 129.517 57.1793 129.517 57.9687C129.517 58.8007 129.187 59.4727 128.525 59.9847C127.864 60.4967 126.968 60.7527 125.837 60.7527C125.048 60.7527 124.376 60.6247 123.821 60.3687C123.331 60.5393 123.085 60.8113 123.085 61.1847C123.085 61.718 123.539 61.9847 124.445 61.9847H127.597C129.496 61.9847 130.445 62.726 130.445 64.2087C130.445 65.9367 128.888 66.8007 125.773 66.8007C122.861 66.8007 121.405 66.0647 121.405 64.5927C121.405 63.7713 121.853 63.222 122.749 62.9447C122.109 62.678 121.789 62.2247 121.789 61.5847C121.789 60.806 122.237 60.2673 123.133 59.9687C122.472 59.4673 122.141 58.8007 122.141 57.9687C122.141 57.1367 122.472 56.47 123.133 55.9687C123.795 55.4567 124.696 55.2007 125.837 55.2007C126.627 55.2007 127.315 55.334 127.901 55.6007C128.019 55.142 128.253 54.7847 128.605 54.5287C128.957 54.262 129.416 54.1287 129.981 54.1287C130.163 54.1287 130.355 54.15 130.557 54.1927V55.4087C130.397 55.366 130.184 55.3447 129.917 55.3447ZM124.157 59.2327C124.573 59.5527 125.133 59.7127 125.837 59.7127C126.541 59.7127 127.101 59.5527 127.517 59.2327C127.933 58.9127 128.141 58.4913 128.141 57.9687C128.141 57.446 127.933 57.03 127.517 56.7207C127.101 56.4113 126.541 56.2567 125.837 56.2567C125.123 56.2567 124.557 56.4113 124.141 56.7207C123.736 57.0193 123.533 57.4353 123.533 57.9687C123.533 58.4913 123.741 58.9127 124.157 59.2327ZM127.325 63.2167H124.397C124.12 63.2167 123.869 63.2007 123.645 63.1687C123.048 63.4247 122.749 63.8193 122.749 64.3527C122.749 65.2273 123.784 65.6647 125.853 65.6647C127.987 65.6647 129.053 65.2113 129.053 64.3047C129.053 63.5793 128.477 63.2167 127.325 63.2167ZM132.224 63.4407V55.4407H133.584V57.1847C134.245 55.8513 135.408 55.1847 137.072 55.1847C138.213 55.1847 139.083 55.4993 139.68 56.1287C140.277 56.758 140.576 57.6807 140.576 58.8967V63.4407H139.168V59.1047C139.168 57.3127 138.32 56.4167 136.624 56.4167C135.707 56.4167 134.976 56.694 134.432 57.2487C133.899 57.8033 133.632 58.5553 133.632 59.5047V63.4407H132.224Z" fill="white"/>
<path d="M53.3387 25.0009C60.1407 25.0009 63.9807 28.8589 64.0007 35.6609V54.3409C64.0007 61.1409 60.1407 65.0009 53.3387 65.0009H34.6607C27.8587 65.0009 24.0007 61.1409 24.0007 54.3409V35.6609C24.0007 28.8589 27.8587 25.0009 34.6607 25.0009H53.3387ZM45.0007 33.2609C44.4387 32.9209 43.7587 32.9209 43.2207 33.2609C42.6787 33.5989 42.3807 34.2209 42.4387 34.8409V55.2209C42.5407 56.0809 43.2587 56.7209 44.0987 56.7209C44.9607 56.7209 45.6787 56.0809 45.7587 55.2209V34.8409C45.8387 34.2209 45.5407 33.5989 45.0007 33.2609ZM35.6607 39.8209C35.1207 39.4809 34.4387 39.4809 33.9007 39.8209C33.3587 40.1609 33.0607 40.7789 33.1207 41.4009V55.2209C33.1987 56.0809 33.9187 56.7209 34.7787 56.7209C35.6407 56.7209 36.3587 56.0809 36.4387 55.2209V41.4009C36.5007 40.7789 36.1987 40.1609 35.6607 39.8209ZM54.1787 47.0809C53.6407 46.7409 52.9607 46.7409 52.4007 47.0809C51.8587 47.4209 51.5607 48.0189 51.6407 48.6609V55.2209C51.7207 56.0809 52.4387 56.7209 53.3007 56.7209C54.1407 56.7209 54.8587 56.0809 54.9607 55.2209V48.6609C55.0187 48.0189 54.7207 47.4209 54.1787 47.0809Z" fill="#F86237"/>
<defs>
<filter id="filter0_bd_43_59" x="-41" y="-45" width="257" height="181" filterUnits="userSpaceOnUse" color-interpolation-filters="sRGB">
<feFlood flood-opacity="0" result="BackgroundImageFix"/>
<feGaussianBlur in="BackgroundImage" stdDeviation="22.5"/>
<feComposite in2="SourceAlpha" operator="in" result="effect1_backgroundBlur_43_59"/>
<feColorMatrix in="SourceAlpha" type="matrix" values="0 0 0 0 0 0 0 0 0 0 0 0 0 0 0 0 0 0 127 0" result="hardAlpha"/>
<feOffset dy="4"/>
<feGaussianBlur stdDeviation="2"/>
<feComposite in2="hardAlpha" operator="out"/>
<feColorMatrix type="matrix" values="0 0 0 0 0 0 0 0 0 0 0 0 0 0 0 0 0 0 0.25 0"/>
<feBlend mode="normal" in2="effect1_backgroundBlur_43_59" result="effect2_dropShadow_43_59"/>
<feBlend mode="normal" in="SourceGraphic" in2="effect2_dropShadow_43_59" result="shape"/>
</filter>
</defs>
</svg>
