<svg width="58" height="58" viewBox="0 0 58 58" fill="none" xmlns="http://www.w3.org/2000/svg">
<circle cx="29" cy="29" r="29" fill="white" fill-opacity="0.22"/>
<path d="M38.8642 32.8667C38.4326 33.2851 38.2342 33.8901 38.3326 34.4834L39.8142 42.6834C39.9392 43.3784 39.6459 44.0817 39.0642 44.4834C38.4942 44.9001 37.7359 44.9501 37.1142 44.6167L29.7326 40.7667C29.4759 40.6301 29.1909 40.5567 28.8992 40.5484H28.4476C28.2909 40.5717 28.1376 40.6217 27.9976 40.6984L20.6142 44.5667C20.2492 44.7501 19.8359 44.8151 19.4309 44.7501C18.4442 44.5634 17.7859 43.6234 17.9476 42.6317L19.4309 34.4317C19.5292 33.8334 19.3309 33.2251 18.8992 32.8001L12.8809 26.9667C12.3776 26.4784 12.2026 25.7451 12.4326 25.0834C12.6559 24.4234 13.2259 23.9417 13.9142 23.8334L22.1976 22.6317C22.8276 22.5667 23.3809 22.1834 23.6642 21.6167L27.3142 14.1334C27.4009 13.9667 27.5126 13.8134 27.6476 13.6834L27.7976 13.5667C27.8759 13.4801 27.9659 13.4084 28.0659 13.3501L28.2476 13.2834L28.5309 13.1667H29.2326C29.8592 13.2317 30.4109 13.6067 30.6992 14.1667L34.3976 21.6167C34.6642 22.1617 35.1826 22.5401 35.7809 22.6317L44.0642 23.8334C44.7642 23.9334 45.3492 24.4167 45.5809 25.0834C45.7992 25.7517 45.6109 26.4851 45.0976 26.9667L38.8642 32.8667Z" fill="white"/>
</svg>
