<svg width="58" height="58" viewBox="0 0 58 58" fill="none" xmlns="http://www.w3.org/2000/svg">
<circle cx="29" cy="29" r="29" fill="white" fill-opacity="0.22"/>
<path d="M30.1952 12.3335C31.4556 12.3335 32.5968 13.0335 33.227 14.0668C33.5336 14.5668 33.738 15.1835 33.6869 15.8335C33.6528 16.3335 33.8061 16.8335 34.0787 17.3002C34.9473 18.7168 36.872 19.2502 38.3709 18.4502C40.0571 17.4835 42.1862 18.0668 43.157 19.7168L44.2982 21.6835C45.2861 23.3335 44.7411 25.4502 43.0378 26.4002C41.59 27.2502 41.0791 29.1335 41.9477 30.5668C42.2202 31.0168 42.5268 31.4002 43.0037 31.6335C43.5999 31.9502 44.0598 32.4502 44.3834 32.9502C45.0136 33.9835 44.9625 35.2502 44.3493 36.3668L43.157 38.3668C42.5268 39.4335 41.3516 40.1002 40.1423 40.1002C39.5461 40.1002 38.8819 39.9335 38.3368 39.6002C37.894 39.3168 37.383 39.2168 36.8379 39.2168C35.1517 39.2168 33.738 40.6002 33.6869 42.2502C33.6869 44.1668 32.1199 45.6668 30.1611 45.6668H27.8447C25.8689 45.6668 24.3019 44.1668 24.3019 42.2502C24.2679 40.6002 22.8542 39.2168 21.1679 39.2168C20.6058 39.2168 20.0949 39.3168 19.6691 39.6002C19.124 39.9335 18.4427 40.1002 17.8636 40.1002C16.6372 40.1002 15.462 39.4335 14.8318 38.3668L13.6565 36.3668C13.0263 35.2835 12.9923 33.9835 13.6225 32.9502C13.895 32.4502 14.406 31.9502 14.9851 31.6335C15.462 31.4002 15.7686 31.0168 16.0581 30.5668C16.9098 29.1335 16.3988 27.2502 14.951 26.4002C13.2648 25.4502 12.7197 23.3335 13.6906 21.6835L14.8318 19.7168C15.8197 18.0668 17.9317 17.4835 19.635 18.4502C21.1168 19.2502 23.0415 18.7168 23.9102 17.3002C24.1827 16.8335 24.336 16.3335 24.3019 15.8335C24.2679 15.1835 24.4552 14.5668 24.7788 14.0668C25.409 13.0335 26.5502 12.3668 27.7936 12.3335H30.1952ZM29.02 24.3002C26.3458 24.3002 24.1827 26.4002 24.1827 29.0168C24.1827 31.6335 26.3458 33.7168 29.02 33.7168C31.6941 33.7168 33.8061 31.6335 33.8061 29.0168C33.8061 26.4002 31.6941 24.3002 29.02 24.3002Z" fill="white"/>
</svg>
