<svg width="58" height="58" viewBox="0 0 58 58" fill="none" xmlns="http://www.w3.org/2000/svg">
<circle cx="29" cy="29" r="29" fill="white" fill-opacity="0.22"/>
<path d="M34.7496 15.3004C34.6829 15.7171 34.6496 16.1338 34.6496 16.5504C34.6496 20.3004 37.6829 23.3321 41.4162 23.3321C41.8329 23.3321 42.2329 23.2838 42.6496 23.2171V36.6654C42.6496 42.3171 39.3162 45.6671 33.6496 45.6671H21.3346C15.6662 45.6671 12.3329 42.3171 12.3329 36.6654V24.3338C12.3329 18.6671 15.6662 15.3004 21.3346 15.3004H34.7496ZM35.0846 25.4338C34.6329 25.3838 34.1846 25.5838 33.9162 25.9504L29.8846 31.1671L25.2662 27.5338C24.9829 27.3171 24.6496 27.2321 24.3162 27.2671C23.9846 27.3171 23.6846 27.4988 23.4829 27.7654L18.5512 34.1838L18.4496 34.3338C18.1662 34.8654 18.2996 35.5488 18.7996 35.9171C19.0329 36.0671 19.2829 36.1671 19.5662 36.1671C19.9512 36.1838 20.3162 35.9821 20.5496 35.6671L24.7329 30.2821L29.4829 33.8504L29.6329 33.9488C30.1662 34.2321 30.8329 34.1004 31.2162 33.5988L36.0329 27.3838L35.9662 27.4171C36.2329 27.0504 36.2829 26.5838 36.0996 26.1671C35.9179 25.7504 35.5162 25.4671 35.0846 25.4338ZM41.6497 12.3333C43.8664 12.3333 45.6664 14.1333 45.6664 16.3499C45.6664 18.5666 43.8664 20.3666 41.6497 20.3666C39.4331 20.3666 37.6331 18.5666 37.6331 16.3499C37.6331 14.1333 39.4331 12.3333 41.6497 12.3333Z" fill="white"/>
</svg>
