<svg width="80" height="80" viewBox="0 0 80 80" fill="none" xmlns="http://www.w3.org/2000/svg">
<circle cx="40.5" cy="39.5" r="39.5" fill="white" fill-opacity="0.22"/>
<path fill-rule="evenodd" clip-rule="evenodd" d="M59.6012 20.3789C57.1743 17.9509 54.2911 16.0268 51.1177 14.7175C47.9442 13.4082 44.5431 12.7396 41.1102 12.75C26.7031 12.75 14.975 24.4195 14.9691 38.7656C14.9632 43.0538 16.0239 47.2717 18.05 51.0412C18.304 51.5138 18.3788 52.0648 18.2364 52.5821L15.6696 61.9088C15.2609 63.3935 16.6131 64.7636 18.103 64.3747L27.8436 61.8318C28.3344 61.7037 28.854 61.7699 29.3071 61.9979C32.9619 63.8378 37.0005 64.7979 41.0996 64.7965H41.1102C55.516 64.7965 67.243 53.1258 67.25 38.7809C67.2587 35.3596 66.587 31.9708 65.2739 28.8116C63.9607 25.6524 62.0324 22.7859 59.6012 20.3789ZM41.1102 60.4055H41.1008C37.2118 60.4066 33.3935 59.3658 30.043 57.3914L29.9665 57.3462C29.5077 57.0751 28.9596 56.9984 28.4439 57.133L24.3792 58.1942C22.8893 58.5832 21.5372 57.2133 21.9456 55.7286L22.9876 51.9406C23.1366 51.3988 23.0509 50.8194 22.7514 50.344L22.7047 50.2699C20.5301 46.8272 19.378 42.8376 19.3824 38.7656C19.3824 26.8441 29.1336 17.1445 41.1184 17.1445C46.8676 17.1343 52.3854 19.408 56.4583 23.4658C60.5312 27.5235 62.8255 33.0328 62.8367 38.782C62.832 50.7047 53.0855 60.4055 41.1102 60.4055ZM53.027 44.2113C52.3742 43.8855 49.1598 42.3129 48.5645 42.0961C47.9691 41.8793 47.5297 41.7703 47.0949 42.4219C46.6602 43.0734 45.4074 44.5312 45.0266 44.9707C44.6457 45.4102 44.2648 45.4582 43.6121 45.1324C42.9594 44.8066 40.8535 44.1211 38.3586 41.9062C36.4168 40.1824 35.1066 38.0543 34.7258 37.4039C34.3449 36.7535 34.6848 36.4008 35.0117 36.0773C35.3059 35.7855 35.6645 35.318 35.9914 34.9383C36.3184 34.5586 36.4273 34.2867 36.6441 33.8531C36.8609 33.4195 36.7531 33.0398 36.5902 32.7152C36.4273 32.3906 35.1207 29.1902 34.577 27.8883C34.0461 26.6203 33.5082 26.7926 33.1074 26.7727C32.7266 26.7539 32.2871 26.7492 31.8547 26.7492C31.5241 26.7578 31.1989 26.8345 30.8992 26.9744C30.5996 27.1143 30.3321 27.3145 30.1133 27.5625C29.5145 28.2141 27.827 29.7891 27.827 32.9859C27.827 36.1828 30.1707 39.2766 30.4941 39.7102C30.8176 40.1437 35.0996 46.7098 41.6516 49.5258C42.8682 50.0468 44.1113 50.5037 45.3758 50.8945C46.9402 51.3891 48.3641 51.3199 49.4891 51.1523C50.7441 50.966 53.3562 49.5797 53.8988 48.0609C54.4414 46.5422 54.4426 45.2414 54.2797 44.9707C54.1168 44.7 53.6809 44.5359 53.027 44.2113Z" fill="white"/>
<circle cx="45" cy="33" r="4" fill="#F86237"/>
</svg>
