<svg width="80" height="80" viewBox="0 0 80 80" fill="none" xmlns="http://www.w3.org/2000/svg">
<circle cx="40.5" cy="39.5" r="39.5" fill="white" fill-opacity="0.22"/>
<path d="M52.436 18C55.6767 18 58.7942 19.2808 61.0876 21.5791C63.3835 23.8725 64.6667 26.9658 64.6667 30.2042V49.2958C64.6667 56.0383 59.1809 61.5 52.436 61.5H28.5617C21.8168 61.5 16.3334 56.0383 16.3334 49.2958V30.2042C16.3334 23.4617 21.7926 18 28.5617 18H52.436ZM55.1692 30.5667C54.6617 30.5401 54.1784 30.7117 53.8135 31.05L42.9167 39.75C41.515 40.9124 39.5068 40.9124 38.0834 39.75L27.2084 31.05C26.4568 30.4942 25.4176 30.5667 24.7917 31.2192C24.1392 31.8717 24.0667 32.9108 24.6201 33.6358L24.9367 33.95L35.9325 42.5292C37.2859 43.5925 38.9268 44.1725 40.645 44.1725C42.3585 44.1725 44.0284 43.5925 45.3793 42.5292L56.2809 33.805L56.4742 33.6117C57.0518 32.9108 57.0518 31.8958 56.4476 31.195C56.1117 30.8349 55.6501 30.615 55.1692 30.5667Z" fill="white"/>
<circle cx="62" cy="21" r="4" fill="#F86237"/>
</svg>
