<svg width="80" height="80" viewBox="0 0 80 80" fill="none" xmlns="http://www.w3.org/2000/svg">
<circle cx="40.5" cy="39.5" r="39.5" fill="white" fill-opacity="0.22"/>
<path d="M62.6449 17.3968C61.4444 16.1646 59.6677 15.7056 58.011 16.1888L19.3792 27.4229C17.6313 27.9085 16.3924 29.3025 16.0586 31.0733C15.7177 32.8756 16.9086 35.1635 18.4644 36.1202L30.5438 43.5443C31.7827 44.3054 33.3817 44.1145 34.4069 43.0805L48.239 29.1623C48.9353 28.4375 50.0878 28.4375 50.7841 29.1623C51.4803 29.8629 51.4803 30.9984 50.7841 31.7232L36.928 45.6438C35.9004 46.6754 35.7083 48.282 36.4646 49.5286L43.8452 61.729C44.7096 63.1786 46.1982 64 47.8308 64C48.0229 64 48.239 64 48.4311 63.9758C50.3039 63.7342 51.7925 62.4538 52.3447 60.6419L63.7974 22.0595C64.3016 20.4167 63.8454 18.6289 62.6449 17.3968Z" fill="white"/>
<circle cx="29" cy="52" r="4" fill="#F86237"/>
</svg>
