<svg width="66" height="66" viewBox="0 0 66 66" fill="none" xmlns="http://www.w3.org/2000/svg">
<circle cx="33" cy="33" r="32.9" fill="#191B1E" fill-opacity="0.37" stroke="white" stroke-width="0.2"/>
<path d="M32.8181 18.625C37.4604 18.625 40.7015 21.824 40.7015 26.4084V39.5916C40.7015 44.176 37.4604 47.375 32.8181 47.375H21.7167C17.0745 47.375 13.8334 44.176 13.8334 39.5916V26.4084C13.8334 21.824 17.0745 18.625 21.7167 18.625H32.8181ZM48.2528 23.1847C49.0943 22.7566 50.0814 22.8014 50.8844 23.3073C51.6875 23.8113 52.1667 24.6869 52.1667 25.6443V40.3569C52.1667 41.3162 51.6875 42.1899 50.8844 42.6939C50.4455 42.9682 49.9549 43.1083 49.4603 43.1083C49.0483 43.1083 48.6362 43.011 48.2509 42.8145L45.4123 41.3824C44.362 40.8492 43.7103 39.779 43.7103 38.59V27.4092C43.7103 26.2183 44.362 25.1481 45.4123 24.6188L48.2528 23.1847Z" fill="#F86237"/>
</svg>
