<svg width="38" height="38" viewBox="0 0 38 38" fill="none" xmlns="http://www.w3.org/2000/svg">
<path d="M34.5323 20.2907C34.6464 20.3549 34.6692 20.4908 34.6737 20.5427L34.6749 20.5633L34.5481 28.7405C34.5481 32.0023 32.0208 34.6623 28.8384 34.8254L28.5285 34.8333H9.4556C6.2329 34.8333 3.60486 32.2753 3.44375 29.0542L3.43593 28.7405L3.32504 20.5633C3.32504 20.5633 3.32504 20.3709 3.46761 20.2907C3.59434 20.2106 3.75275 20.3068 3.76859 20.3228C6.96853 22.4713 10.818 23.8983 14.8575 24.4916C15.4278 24.5717 15.998 24.203 16.1565 23.6258C16.4832 22.3932 17.4921 21.5552 18.7265 21.4552L18.9762 21.4452H19.0237C20.3702 21.4452 21.495 22.311 21.8435 23.6258C22.0019 24.203 22.5722 24.5717 23.1424 24.4916C27.182 23.8983 31.0314 22.4713 34.2313 20.3228C34.2313 20.3228 34.263 20.3068 34.2947 20.2907C34.3581 20.2587 34.4531 20.2426 34.5323 20.2907ZM18.992 23.738C18.3967 23.738 17.8945 24.1961 17.8149 24.7788L17.8039 24.9405V27.0089C17.8039 27.6823 18.3425 28.2114 18.992 28.2114C19.6019 28.2114 20.092 27.7668 20.1695 27.174L20.1801 27.0089V24.9405C20.1801 24.2831 19.6574 23.738 18.992 23.738ZM21.0356 3.16663C23.4117 3.16663 25.3602 4.97843 25.6612 7.30331H28.7978C32.1244 7.30331 34.8333 10.0451 34.8333 13.4121C34.8333 13.4121 34.7382 14.8375 34.7066 16.8225C34.7034 16.9796 34.6274 17.1336 34.5022 17.2266C33.7402 17.7893 33.0432 18.2543 32.9799 18.2864C30.3502 20.0501 27.2944 21.2911 24.0391 21.9084C23.8268 21.9501 23.6177 21.8394 23.51 21.6502C22.5975 20.0693 20.893 19.04 18.992 19.04C17.1038 19.04 15.3834 20.0581 14.444 21.6406C14.3347 21.8266 14.1288 21.934 13.9181 21.894C10.6896 21.2751 7.63386 20.0357 5.02005 18.3024L3.49929 17.2442C3.37256 17.164 3.29336 17.0197 3.29336 16.8594C3.24583 16.0417 3.16663 13.4121 3.16663 13.4121C3.16663 10.0451 5.87548 7.30331 9.20214 7.30331H12.3229C12.6239 4.97843 14.5723 3.16663 16.9485 3.16663H21.0356ZM21.0356 5.57168H16.9485C15.8872 5.57168 14.9842 6.30923 14.7307 7.30331H23.2533C22.9999 6.30923 22.0969 5.57168 21.0356 5.57168Z" fill="white"/>
</svg>
