<svg width="39" height="39" viewBox="0 0 39 39" fill="none" xmlns="http://www.w3.org/2000/svg">
<path d="M19.4909 4.12378C28.2468 4.12378 35.3243 11.2171 35.3243 19.9571C35.3243 28.7129 28.2468 35.7904 19.4909 35.7904C10.7509 35.7904 3.65759 28.7129 3.65759 19.9571C3.65759 11.2171 10.7509 4.12378 19.4909 4.12378ZM18.9368 11.9296C18.2876 11.9296 17.7493 12.4521 17.7493 13.1171V21.1129C17.7493 21.5246 17.9709 21.9046 18.3351 22.1263L24.5418 25.8313C24.7318 25.9421 24.9376 26.0054 25.1593 26.0054C25.5551 26.0054 25.9509 25.7996 26.1726 25.4196C26.5051 24.8654 26.3309 24.1371 25.7609 23.7888L20.1243 20.4321V13.1171C20.1243 12.4521 19.5859 11.9296 18.9368 11.9296Z" fill="white"/>
</svg>
