<svg width="24" height="13" viewBox="0 0 24 13" fill="none" xmlns="http://www.w3.org/2000/svg">
<path d="M10.8366 6.3607L10.835 6.00661C10.835 4.53497 10.9212 3.19332 11.051 2.31871L11.1648 1.77483C11.228 1.48678 11.3112 1.1588 11.3979 0.991371C11.7154 0.378924 12.3361 0 13.0005 0H13.0583C13.4914 0.0143198 14.4012 0.394346 14.4012 0.407564C15.8652 1.02183 18.6895 2.87572 19.994 4.19739L20.3731 4.59419C20.4723 4.70173 20.5839 4.82901 20.6531 4.92822C20.8844 5.23444 21 5.61337 21 5.99229C21 6.41527 20.8702 6.80852 20.6247 7.13016L20.2353 7.55047L20.148 7.64017C18.9644 8.92344 15.8739 11.0218 14.2572 11.664L14.0131 11.7576C13.7194 11.8629 13.3078 11.9884 13.0583 12C12.7408 12 12.4376 11.9262 12.1485 11.7808C11.7874 11.577 11.4994 11.2554 11.3401 10.8764C11.2387 10.6143 11.0794 9.82669 11.0794 9.81237C10.9334 9.01826 10.8487 7.76518 10.8366 6.3607ZM3 5.99956C3 5.1613 3.67308 4.48166 4.50325 4.48166L8.20248 4.80881C8.85375 4.80881 9.38174 5.34195 9.38174 5.99956C9.38174 6.65827 8.85375 7.19031 8.20248 7.19031L4.50325 7.51746C3.67308 7.51746 3 6.83782 3 5.99956Z" fill="#F86237"/>
</svg>
