<svg width="436" height="495" viewBox="0 0 436 495" fill="none" xmlns="http://www.w3.org/2000/svg">
<path d="M364.118 410.628C364.769 412.299 365.847 413.728 366.787 415.232C369.273 419.215 371.849 423.138 374.183 427.217C377.207 432.499 376.851 437.893 374.603 443.216C372.622 447.904 368.474 449.718 363.712 450.341C361.309 450.655 358.893 450.771 356.465 450.51C354.915 450.343 354.855 450.42 354.996 451.926C355.291 455.113 355.67 458.292 355.975 461.477C356.499 467 357.037 472.524 357.486 478.053C357.878 482.875 358.159 487.705 358.48 492.533C358.512 493.023 358.641 493.526 358.403 494.003C322.57 494.003 286.736 494.003 250.903 494.003C249.766 493.183 249.749 491.96 249.725 490.74C249.674 487.823 249.297 484.935 248.836 482.06C248.693 481.166 248.592 480.22 247.684 479.534C246.843 480.058 246.894 480.984 246.744 481.762C246.117 485.044 245.716 488.36 245.258 491.667C245.13 492.595 245.029 493.521 244.048 494.003C206.931 494.003 169.811 494.003 132.694 494.003C133.323 490.777 133.259 487.489 133.52 484.231C134.253 475.073 134.961 465.916 135.981 456.784C136.146 455.302 136.272 453.817 136.428 452.226C135.069 451.798 133.649 451.798 132.253 451.671C128.115 451.295 124.077 450.463 120.194 448.978C112.055 445.866 106.294 440.225 102.722 432.33C101.932 430.582 101.324 428.753 100.621 426.967C98.4608 421.478 99.2959 416.372 102.544 411.552C106.136 406.226 109.198 400.606 111.776 394.722C116.087 384.886 118.847 374.603 120.697 364.055C122.261 355.144 123.147 346.144 124.167 337.16C124.271 336.242 124.451 335.333 124.597 334.42C124.736 334.17 124.76 333.898 124.777 333.618C124.815 333.027 124.563 332.234 125.413 332.058C126.409 331.855 126.732 332.584 126.895 333.399C127.107 336.264 126.464 339.064 126.177 341.887C124.901 354.442 123.312 366.949 119.933 379.153C116.716 390.769 112.044 401.742 105.378 411.828C103.96 413.972 102.583 416.151 102.255 418.785C101.463 425.185 104.236 430.058 110.277 432.593C115.768 434.896 121.539 436.214 127.43 437.004C142.66 439.044 157.736 438.4 172.582 434.238C177.293 432.918 181.193 430.37 183.555 425.972C185.902 421.602 186.542 416.849 186.232 411.933C185.716 403.762 185.075 395.601 184.172 387.461C183.15 378.259 182.578 369.024 182.124 359.781C182.049 358.237 181.523 356.371 183.75 355.666C187.172 355.839 190.45 356.881 193.857 357.234C201.798 358.057 209.633 357.366 217.447 356.051C218.784 355.826 220.111 355.578 221.471 355.591C222.912 355.244 224.375 355.09 225.855 355.013C227.501 354.928 229.028 354.448 230.379 353.467C234.572 352.108 238.913 351.802 243.252 352.085C249.074 352.463 254.852 353.351 260.627 354.181C261.051 354.241 261.462 354.363 261.839 354.57C262.724 355.186 262.726 356.149 262.76 357.065C263.257 369.914 267.107 381.791 272.928 393.173C276.784 400.718 280.69 408.241 284.356 415.888C286.395 420.141 289.515 423.495 294.79 424.5C302.651 426 310.542 427.155 318.504 427.775C335.074 429.067 351.298 432.032 367.08 437.297C367.757 437.523 368.431 437.752 369.123 437.928C372.14 438.693 373.841 437.38 373.785 434.242C373.755 432.58 373.194 431.042 372.453 429.553C369.588 423.794 365.737 418.631 362.547 413.069C362.013 412.141 361.045 411.227 361.866 409.967C362.806 409.541 363.566 409.732 364.118 410.628Z" fill="#191B1E"/>
<path d="M221.696 356.198C218.469 356.692 215.25 357.246 212.015 357.666C202.41 358.913 192.875 358.769 183.493 356.038C182.204 355.92 182.088 354.919 182.144 354.008C182.527 347.719 182.675 341.402 183.996 335.207C184.108 334.867 184.264 334.52 184.547 334.309C187.363 332.197 187.133 329.493 186.086 326.614C176.084 299.15 165.471 271.925 154.228 244.942C147.949 229.875 141.463 214.894 135.157 199.839C133.565 196.04 131.503 193.266 127.034 193.186C126.831 193.067 126.702 192.891 126.646 192.662C128.071 192.104 129.565 192.532 131.015 192.359C131.111 192.354 131.208 192.35 131.304 192.344C131.794 192.239 132.289 192.19 132.79 192.194C133.576 192.213 134.351 192.102 135.135 192.098C139.75 192.078 141.893 193.443 143.709 197.681C147.318 206.1 150.995 214.492 154.511 222.95C154.965 224.159 155.436 225.361 156.016 226.516C167.075 252.806 177.782 279.233 187.752 305.957C188.275 307.36 188.812 308.757 189.183 310.171C189.178 310.132 189.228 310.201 189.228 310.201C189.228 310.201 189.241 310.064 189.241 310.027C190.735 302.812 192.493 295.689 193.795 288.467C195.327 279.979 196.239 271.44 196.631 262.813C197.02 254.29 197.609 245.77 198.147 237.252C198.603 230.009 199.076 222.768 199.588 215.53C200.16 207.439 200.858 199.356 201.702 191.287C202.873 180.097 204.177 168.922 206.426 157.885C207.507 152.577 208.704 147.296 210.991 142.337C211.649 140.913 212.338 139.505 213.381 138.309C213.542 138.113 213.728 137.941 213.933 137.792C214.259 137.595 214.614 137.507 214.989 137.492C216.674 137.608 216.886 138.756 216.724 140.081C216.313 143.409 216.178 146.789 216.206 150.098C216.328 165.228 217.197 180.302 222.139 194.81C223.576 199.028 225.418 203.018 228.705 206.179C231.281 208.657 234.232 209.499 237.738 208.58C241.834 207.506 244.967 204.945 247.961 202.173C251.743 198.671 254.97 194.682 257.944 190.48C266.996 177.695 273.99 163.895 278.545 148.889C279.166 146.842 279.648 144.757 280.005 142.645C280.71 138.498 282.093 137.811 286.001 139.676C287.008 140.72 287.239 142.079 287.417 143.413C288.357 150.432 288.368 157.478 287.834 164.526C287.588 167.793 287.569 171.066 287.353 174.336C286.614 185.56 285.624 196.765 284.791 207.981C284.153 216.571 283.53 225.162 282.909 233.753C282.063 245.469 281.631 257.208 280.753 268.92C279.864 280.773 277.341 292.324 273.521 303.574C268.874 317.253 265.471 331.209 263.857 345.577C263.619 347.697 263.298 349.813 263.249 351.956C263.223 353.086 263.216 354.275 262.069 354.994C257.809 354.733 253.61 353.98 249.383 353.454C243.494 352.72 237.626 352.619 231.772 353.725C231.286 353.817 230.817 353.991 230.339 354.125C227.176 354.684 224.028 355.199 220.842 354.179C216.7 352.85 214.068 349.081 214.199 344.523C214.317 340.347 216.683 337.614 221.15 336.493C224.671 335.609 225.919 333.804 225.274 330.095C224.664 326.584 223.658 323.153 222.88 319.675C220.711 309.989 218.981 300.228 218.914 290.275C218.842 279.145 221.932 268.738 226.707 258.783C227.786 256.532 228.731 254.22 229.742 251.95C224.701 261.824 220.261 271.883 219.075 283.109C217.788 295.289 219.929 307.116 222.431 318.924C223.095 322.064 223.857 325.181 224.645 328.291C224.981 329.613 225.163 330.95 225.03 332.317C224.846 334.217 223.928 335.517 222.011 336.005C221.735 336.075 221.456 336.138 221.18 336.21C216.807 337.346 214.402 339.761 214.03 343.4C213.529 348.29 215.486 351.995 219.508 354.07C220.386 354.53 222.103 354.341 221.696 356.198Z" fill="#F7F2DD"/>
<path d="M285.727 139.854C284.669 139.693 283.603 139.582 282.558 139.36C281.551 139.146 281.121 139.486 281.031 140.5C280.836 142.703 280.363 144.861 279.8 146.996C276.641 159.005 271.401 170.12 265.135 180.779C260.681 188.356 255.696 195.554 249.432 201.788C246.997 204.211 244.38 206.415 241.316 208.015C239.076 209.185 236.718 209.972 234.142 209.726C231.69 209.493 229.69 208.319 227.968 206.614C225.752 204.421 224.251 201.762 222.988 198.953C220.458 193.328 219.011 187.385 217.949 181.344C215.666 168.375 215.092 155.305 215.844 142.168C215.897 141.244 215.951 140.309 216.133 139.407C216.383 138.168 215.696 137.946 214.732 137.92C214.469 137.822 214.248 137.871 214.083 138.11L214.116 138.1C211.799 138.47 209.46 138.617 207.122 138.741C194.247 139.42 181.812 142.13 170 147.272C164.734 149.565 160.976 153.946 157.245 158.173C148.523 168.056 141.433 179.077 134.889 190.47C134.285 191.52 133.778 192.69 132.249 192.594C131.825 192.54 131.345 192.748 130.994 192.335L131.015 192.354C137.973 179.796 145.641 167.718 155.072 156.834C157.552 153.974 160.237 151.317 163.109 148.845C165.514 146.774 168.18 145.178 171.126 144.008C179.516 140.673 188.23 138.572 197.132 137.197C201.933 136.455 206.781 135.798 211.621 136.055C217.034 136.341 222.247 135.49 227.515 134.532C239.528 132.346 251.608 131.896 263.718 133.766C265.334 134.016 266.994 134.241 268.523 134.784C273.208 136.45 278.138 136.791 282.973 137.636C284.427 137.89 285.886 138.185 287.453 138.138C287.387 136.915 286.824 135.982 286.547 134.97C285.965 132.842 285.32 130.728 284.821 128.581C284.627 127.744 284.318 127.34 283.451 127.295C282.89 127.265 282.333 127.077 281.778 126.946C274.41 125.194 269.534 119.134 269.36 111.525C269.227 105.683 270.686 100.248 273.532 95.1611C275.067 92.4166 276.915 89.8839 278.772 87.3533C280.459 85.0559 282.166 82.7671 283.757 80.4012C285.511 77.7915 286.899 74.9892 287.811 71.9581C288.888 68.3751 288.914 64.8134 287.916 61.2154C287.076 58.1907 285.858 55.2986 284.832 52.3402C283.935 49.7561 284.62 47.7283 286.644 46.9475C288.834 46.1025 290.914 47.4117 291.708 49.5743C292.663 52.1755 293.993 54.6355 295.066 57.196C298.163 64.5952 298.064 72.0287 295.212 79.4792C293.676 83.4944 291.556 87.1972 289.267 90.8166C287.781 93.1653 286.235 95.482 284.892 97.9121C282.832 101.645 281.571 105.632 281.729 109.962C281.787 111.508 282.153 112.916 283.721 113.609C284.438 113.357 284.262 112.762 284.365 112.319C285.423 107.711 287.498 103.576 290.567 100.028C293.869 96.2072 296.389 92.0744 298.068 87.255C300.518 80.2215 305.082 74.5849 311.028 70.0821C312.048 69.3099 313.082 68.5697 313.983 67.6328C315.112 66.4605 316.703 66.0969 318.241 65.7889C320.054 65.4252 321.894 65.1942 323.723 64.9075C324.012 64.6252 324.307 64.5696 324.599 64.8583C324.408 64.5075 323.945 64.7878 323.695 64.5268C320.583 63.7289 317.665 62.4647 314.909 60.7341C313.838 62.3812 313.38 64.0883 313.069 65.8466C313.009 66.191 313.069 66.5632 312.804 66.852C312.594 67.0809 312.322 67.1707 312.035 67.1173C311.542 67.0253 311.317 66.668 311.322 66.1974C311.334 64.4519 311.908 62.8454 312.581 61.2668C313.3 59.5768 313.307 59.579 311.945 58.3062C309.831 56.3318 309.825 56.3254 307.801 58.4067C306.206 60.0475 304.73 61.7844 303.698 63.8465C303.403 64.4348 303.116 65.1771 302.325 64.7877C301.447 64.3556 301.859 63.5984 302.171 62.9502C302.921 61.3972 303.936 60.0175 305.082 58.7447C306.034 57.688 307.017 56.6463 308.08 55.6986C308.763 55.089 308.771 54.6248 308.268 53.9125C307.615 52.9841 307.077 51.9744 306.373 50.8022C304.666 51.6856 303.255 52.9178 301.946 54.2847C301.503 54.7467 301.092 55.243 300.698 55.7478C300.31 56.2462 299.831 56.6291 299.255 56.2206C298.516 55.6943 298.946 55.074 299.364 54.5713C300 53.8055 300.64 53.029 301.366 52.3509C302.251 51.5273 303.197 50.7615 304.167 50.0428C305.604 48.9775 305.621 49.0053 305.099 47.3753C304.114 44.3014 303.482 41.1697 303.64 37.9268C303.707 36.5792 303.765 35.1973 304.103 33.9053C304.452 32.5662 304.18 31.4281 303.754 30.1896C301.987 25.0728 300.456 19.8876 299.531 14.5419C299.24 12.8542 299.034 11.1557 299.201 9.44225C299.398 7.41223 300.225 6.54802 302.253 6.21646C303.687 5.98115 305.09 6.17367 306.473 6.5908C310.382 7.76732 313.707 9.96848 316.684 12.6595C318.069 13.9109 319.097 14.2061 320.902 13.3098C324.905 11.3225 329.258 10.3942 333.745 10.5931C335.674 10.6787 336.835 10.2744 337.638 8.34488C338.595 6.04533 340.147 4.04097 341.981 2.30828C342.972 1.37134 344.047 0.564896 345.405 0.205523C347.313 -0.299309 348.381 0.0942891 349.349 1.80345C350.231 3.36501 350.722 5.08058 351.167 6.80471C351.328 7.42506 351.536 8.04113 351.615 8.67003C351.921 11.1642 352.816 12.8135 355.489 13.9579C359.981 15.8831 361.943 21.1133 360.585 25.8664C360.236 27.09 360.153 28.1724 360.654 29.3532C361.243 30.7351 361.506 32.2325 361.665 33.7106C361.793 34.8935 362.313 35.0604 363.331 34.9299C366.042 34.5769 368.738 34.7117 371.404 35.3534C372.794 35.6871 374.147 36.1342 375.432 36.7588C376.089 37.0797 377.188 37.3086 376.751 38.3354C376.291 39.4178 375.428 38.7076 374.762 38.3953C371.382 36.8145 367.83 36.2904 364.132 36.6134C364.061 36.6198 363.988 36.6177 363.917 36.6284C363.296 36.7246 362.459 36.5278 362.157 37.161C361.727 38.0658 361.874 39.1226 361.973 40.1023C362.022 40.605 362.639 40.513 363.046 40.575C366.515 41.0991 369.879 41.9804 373.078 43.45C374.573 44.1367 376.014 44.9132 377.286 45.9656C377.717 46.3229 378.25 46.7443 377.785 47.386C377.252 48.1219 376.702 47.7304 376.149 47.3218C372.263 44.4468 367.761 43.1741 363.089 42.3676C362.403 42.25 361.716 42.0318 361.423 43.0949C360.9 44.9773 360.855 45.1207 362.071 45.6726C364.845 46.9325 367.243 48.678 369.155 51.0546C369.596 51.6043 369.952 52.2332 370.275 52.8621C370.444 53.1916 370.316 53.5488 369.991 53.7991C369.569 54.1221 369.162 54.0237 368.847 53.6878C368.558 53.3798 368.374 52.9777 368.123 52.6333C366.256 50.077 363.491 48.0769 360.399 47.0694C355.532 57.6003 346.889 62.9973 335.747 64.9396C335.451 65.284 334.993 64.9632 334.661 65.1814C335.49 65.1963 336.218 65.5985 337.01 65.7076C339.537 66.1867 342.028 66.7985 344.347 67.9472C346.805 69.1644 348.231 70.9655 348.606 73.864C349.197 78.446 350.133 82.9853 350.827 87.563C353.429 104.736 352.651 121.637 347.133 138.22C346.032 141.524 345.203 144.919 344.259 148.276C344.165 148.607 344.139 148.958 344.101 149.185C347.077 151.086 350.268 152.274 353.401 153.596C356.395 154.858 358.902 156.862 361.198 159.14C367.346 165.243 372.607 172.075 377.593 179.122C393.872 202.126 407.162 226.792 418.331 252.622C420.676 258.042 422.967 263.489 424.92 269.07L425.023 269.249C425.079 269.459 425.135 269.666 425.19 269.876C423.822 270.419 423.107 269.45 422.321 268.642C418.792 260.391 415.584 252.004 411.736 243.886C406.149 232.099 400.326 220.435 393.81 209.127C386.008 195.589 377.571 182.465 367.77 170.268C364.384 166.054 361.018 161.786 356.643 158.479C355.045 157.271 353.345 156.293 351.178 155.424C351.728 157.112 351.883 158.58 351.805 160.066C351.673 162.563 350.431 163.669 347.919 163.429C345.919 163.239 344.019 162.599 342.126 161.955C339.965 161.221 337.852 160.355 335.702 159.591C333.667 158.871 332.772 157.489 332.864 155.356C332.918 154.147 332.927 152.932 332.841 151.724C332.702 149.775 328.971 148.068 327.331 149.17C326.646 149.63 326.781 150.301 326.883 150.907C327.374 153.824 325.993 155.685 323.526 156.935C319.735 158.856 315.727 160.083 311.497 160.518C309.611 160.712 307.773 160.533 306.377 158.98C305.647 158.167 304.702 158.319 303.779 158.479C298.608 159.378 294.824 157.431 291.967 153.093C290.004 150.111 288.46 147.05 288.342 143.439C288.273 141.597 287.13 140.66 285.727 139.854Z" fill="#191B1E"/>
<path d="M42.2033 257.48C34.0016 257.702 25.8149 258.222 17.6325 258.815C15.9858 258.934 14.3369 258.907 12.7308 258.588C8.21021 257.694 5.24004 254.998 3.76673 250.641C2.86947 247.989 2.64462 245.206 2.23133 242.465C1.61459 238.38 1.2013 234.266 0.925052 230.142C0.790142 228.12 0.925052 227.99 2.9744 227.842C9.16101 227.397 15.3498 226.961 21.6113 226.516C21.7398 225.686 21.2301 225.049 20.9303 224.368C18.2214 218.251 15.2405 212.25 13.0413 205.914C12.129 203.287 11.4266 200.616 10.8977 197.88C10.3002 194.789 11.0369 192.059 12.8443 189.616C15.3091 186.288 18.6411 184.39 22.8255 184.185C39.5779 183.357 56.3347 183.222 73.1021 183.71C82.8734 183.995 92.632 184.489 102.38 185.188C106.93 185.516 111.481 185.924 116.014 186.442C119.464 186.835 122.439 188.258 124.524 191.18C124.95 192.363 124.002 192.451 123.302 192.598C122.105 192.851 120.882 192.759 119.683 192.566C116.989 192.134 114.271 192.416 111.571 192.245C110.783 192.196 110.164 192.418 109.903 193.244C108.952 197.294 110.254 201.013 111.684 204.665C115.267 213.814 119.115 222.867 122.051 232.257C123.816 237.9 125.499 243.571 125.355 249.589C125.201 256.057 121.839 259.666 115.35 259.433C105.393 259.074 95.4265 258.905 85.4774 258.288C84.3382 258.218 83.1968 258.216 82.0576 258.216C70.5088 258.216 58.9622 258.214 47.4134 258.22C46.4155 258.22 45.4198 258.205 44.4261 258.077C43.5974 258.207 42.8736 257.944 42.2033 257.48Z" fill="#191B1E"/>
<path d="M197.08 96.6414C196.592 93.4648 196.056 90.6733 195.883 87.8389C195.853 87.3405 195.72 86.8421 195.75 86.3501C195.825 85.1522 195.384 84.2067 194.705 83.2184C190.928 77.7273 191.958 70.2233 197.14 65.8573C198.947 64.3343 198.941 62.0732 199.883 60.2079C200.106 59.7651 199.532 59.4998 199.249 59.2025C195.315 55.0676 192.416 50.2888 190.354 44.9859C189.574 42.9794 189.103 40.9087 189.101 38.7397C189.097 35.4561 190.572 33.1822 193.626 31.9287C196.373 30.8014 199.271 30.4313 202.194 30.2923C208.708 29.9821 215.16 30.6345 221.569 31.7298C222.726 31.9266 223.781 31.9244 224.916 31.5736C228.962 30.3244 233.11 29.6912 237.354 29.8195C238.452 29.8538 239.234 29.6634 240.08 28.6965C242.662 25.7445 247.68 26.6087 249.091 30.2281C249.534 31.3661 250.179 31.702 251.179 31.9929C256.291 33.486 261.036 35.7192 265.186 39.1097C272.144 44.7934 275.743 52.2482 276.538 61.0764C276.928 65.4124 276.756 69.7612 275.831 74.0502C275.394 76.078 275.343 76.1144 273.238 75.1582C273.238 76.2021 273.257 77.1775 273.236 78.1508C273.041 86.9362 271.452 95.4649 267.689 103.42C260.595 118.42 248.594 126.146 231.992 126.696C228.42 126.814 224.861 126.538 221.332 125.986C215.815 125.124 211.335 122.381 207.605 118.319C203.38 113.716 200.615 108.276 198.77 102.376C198.082 100.181 198 100.001 195.966 99.6469C193.829 99.1014 191.735 98.3827 189.636 97.6981C189.105 97.5249 188.51 97.4479 188.084 97.0201C187.591 96.5238 187.383 95.9441 187.662 95.2702C187.897 94.6991 188.334 94.3654 188.968 94.3205C189.551 94.2798 190.09 94.4467 190.638 94.6199C192.675 95.2702 194.711 95.8991 197.08 96.6414Z" fill="#191B1E"/>
<path d="M422.721 268.533C423.584 268.903 424.235 269.662 425.182 269.878C426.075 270.888 427.021 271.857 427.854 272.911C432.422 278.693 435.037 285.293 435.812 292.593C436.285 297.045 434.795 300.975 432.165 304.519C431.223 303.999 431.204 302.996 430.94 302.136C430.21 299.753 429.435 297.396 428.488 295.083C426.557 290.365 422.938 288.533 418.053 288.516C414.625 288.506 411.213 288.529 407.856 289.329C406.042 288.876 404.907 287.04 402.928 286.912C399.431 284.369 395.215 284.242 391.204 283.5C386.326 282.597 381.445 281.695 376.55 280.884C375.794 280.758 374.967 280.726 374.554 279.891C376.132 276.139 379.113 273.577 382.246 271.249C388.529 266.582 395.716 264.199 403.476 263.608C407.734 263.285 411.864 264.006 415.695 266.011C416.912 266.648 418.137 267.104 419.548 267.102C420.788 267.097 421.963 267.405 422.721 268.533Z" fill="#B22828"/>
<path d="M364.119 410.628C363.316 410.534 362.59 410.046 361.746 410.151C360.718 410.573 359.776 410.091 358.84 409.815C332.914 402.155 306.919 394.739 280.821 387.684C279.307 387.275 277.793 386.839 276.494 385.9C273.151 383.485 272.003 380.037 273.153 375.673C275.226 367.818 277.299 359.963 279.226 352.07C284.522 330.396 289.209 308.592 293.043 286.613C293.766 282.463 295.51 279.307 299.238 277.192C301.715 275.784 304.107 274.216 306.628 272.884C311.62 270.244 316.768 269.157 322.515 270.28C332.032 272.141 341.666 273.367 351.204 275.119C352.32 275.297 352.11 274.407 352.296 273.797C352.489 273.168 352.649 272.349 353.617 273.091C354.121 274.137 354.082 275.194 353.709 276.264C353.487 276.751 353.106 277.051 352.602 277.205C351.097 277.577 349.628 277.128 348.174 276.892C346.124 276.561 344.097 276.396 342.041 276.753C334.987 275.78 327.965 274.599 320.943 273.431C317.932 272.571 315.035 273.04 312.144 274.064C309.392 275.04 306.943 276.602 304.294 277.722C305.452 277.162 306.574 277.722 307.694 277.836C315.046 278.957 322.363 280.255 329.702 281.44C330.471 281.564 331.246 281.663 332.004 281.855C342.685 283.614 353.337 285.547 363.993 287.453C370.999 288.752 378.017 290.003 385.015 291.349C387.291 291.787 389.444 292.48 391.009 294.346C393.517 297.242 393.658 300.596 393.178 304.207C389.773 329.859 385.39 355.34 380.055 380.659C379.809 381.823 379.754 383.1 378.627 383.891C378.002 384.186 377.394 384.184 376.805 383.797C375.991 382.646 376.509 381.444 376.749 380.298C380.242 363.572 383.355 346.775 386.054 329.902C387.503 320.836 388.848 311.754 390.028 302.647C390.617 298.091 388.73 295.441 384.178 294.557C378.092 293.376 371.991 292.283 365.888 291.188C365.044 291.036 364.207 290.882 363.391 290.617C354.789 289.338 346.272 287.571 337.687 286.206C335.434 285.849 333.201 285.393 330.957 284.985C322.295 283.607 313.652 282.105 304.996 280.694C300.476 279.449 297.388 281.361 296.522 286.159C293.623 302.207 290.407 318.188 286.824 334.095C283.678 348.059 280.215 361.942 276.521 375.769C275.337 380.201 276.62 382.845 280.594 384.24C307.84 391.648 335.045 399.205 362.052 407.441C363.14 407.856 364.22 408.314 365.436 408.093C366.907 408.523 368.543 408.57 369.644 409.875C368.391 411.576 366.607 410.496 365.078 410.75C364.757 410.707 364.438 410.669 364.119 410.628Z" fill="#191B1E"/>
<path d="M369.614 409.8C367.999 409.787 366.605 409.002 365.125 408.523C363.973 408.902 363.174 408.065 362.241 407.689C360.183 407.124 358.127 406.57 356.114 405.862C355.504 405.648 354.881 405.464 354.369 405.077C353.225 404.211 352.412 403.124 352.801 401.603C353.208 400.016 354.407 399.272 355.973 399.212C357.9 399.139 359.825 399.408 361.727 399.627C365.292 400.035 368.851 399.93 372.413 399.911C373.475 399.819 374.541 399.744 375.558 399.383C376.648 398.844 377.329 397.986 377.616 396.803C377.948 395.434 377.73 394.384 376.115 394.097C375.456 394.125 374.865 393.785 374.214 393.772C370.434 393.952 366.742 393.644 363.297 391.898C362.476 391.483 361.678 391.04 361.046 390.347C359.789 387.832 360.388 386.174 362.939 385.188C363.395 385.01 363.86 384.839 364.327 384.685C368.018 383.523 371.834 383.292 375.67 383.207C376.109 383.196 376.503 383.354 376.841 383.637C377.436 383.615 378.032 383.594 378.627 383.573C379.854 382.736 381.152 382.02 382.469 381.335C384.394 380.364 385.932 378.98 387.293 377.296C388.388 375.942 389.54 374.556 391.204 373.79C391.701 373.638 392.208 373.634 392.718 373.7C392.917 373.722 393.114 373.767 393.307 373.82C393.776 374.026 394.27 373.994 394.765 373.961C395.893 374.036 396.41 373.422 396.619 372.391C396.9 371.02 397.161 369.645 397.478 368.282C397.744 367.148 398.32 366.37 399.579 366.295C404.221 366.605 408.157 368.74 411.973 371.14C413.787 372.28 413.777 372.346 414.224 370.312C416.258 361.041 419.413 352.115 422.533 343.175C425.629 334.302 428.767 325.427 429.803 316.008C430.615 308.643 429.777 301.55 426.263 294.861C424.951 292.363 423.132 290.927 420.364 290.527C417.663 290.138 414.969 290.153 412.269 290.42C411.28 290.519 410.299 290.752 409.292 290.576C408.434 290.401 407.53 290.27 407.637 289.051C408.733 287.838 410.32 288.076 411.65 287.958C415.408 287.624 419.182 287.552 422.92 288.469C424.951 288.968 426.349 290.106 427.426 291.789C429.921 295.693 431.345 299.997 432.167 304.521C433.319 312.939 431.947 321.106 429.7 329.185C427.394 337.481 424.312 345.52 421.559 353.668C419.438 359.937 417.496 366.258 416.327 372.783C415.995 374.633 414.984 376.068 413.971 377.497C413.123 378.695 411.65 378.794 410.288 378.854C407.915 378.958 405.618 378.426 403.32 377.934C402.763 377.814 402.213 377.677 401.658 377.549C401.373 377.718 401.515 377.906 401.632 378.092C402.099 378.631 402.596 379.145 403.024 379.711C405.804 383.384 406.836 387.215 405.247 391.862C401.624 402.457 390.78 411.011 379.631 411.616C378.207 411.693 376.779 411.653 375.413 411.15L375.211 411.086C375.083 411.045 374.95 411.017 374.815 411.005C373.965 410.376 373.021 410.863 372.126 410.769C371.207 410.669 370.273 410.579 369.614 409.8Z" fill="#191B1E"/>
<path d="M109.22 192.923C109.973 191.188 109.973 191.188 111.796 191.46C111.935 191.481 112.078 191.509 112.218 191.503C115.76 191.332 119.274 191.819 122.801 191.935C123.458 191.956 124.289 192.202 124.522 191.182C125.21 191.704 125.45 192.865 126.642 192.664L126.687 192.818C128.775 193.381 129.728 195.032 130.501 196.827C135.204 207.752 139.9 218.683 144.5 229.652C152.183 247.978 159.755 266.351 166.976 284.867C172.383 298.737 177.656 312.656 182.682 326.67C183.924 330.133 183.532 333.091 180.651 335.556C179.075 336.745 177.319 336.948 175.388 336.745C166.12 335.77 156.837 334.978 147.538 334.323C141.506 333.898 135.456 333.787 129.439 333.19C128.319 333.079 127.377 333.712 126.304 333.6C126.186 333.16 126.366 332.488 125.689 332.433C124.968 332.373 125.062 333.031 125 333.487C124.951 333.844 124.859 334.167 124.593 334.424C124.593 333.787 124.593 333.149 124.593 332.328C122.381 332.21 120.192 332.039 118.002 331.988C105.241 331.694 92.48 331.374 79.7149 331.553C78.717 331.568 77.702 331.626 76.7384 331.324C74.6205 330.659 73.3163 329.187 72.4576 327.157C69.0228 319.027 65.5279 310.921 62.0503 302.81C61.7419 302.091 61.4057 301.385 61.0845 300.673C61.6841 299.961 62.4143 300.001 63.1895 300.305C64.4851 301.43 64.9198 303.056 65.5665 304.54C68.5538 311.401 71.5604 318.257 74.3442 325.202C75.4214 327.891 77.1324 329.102 80.0404 329.001C83.6745 328.873 87.3192 329.053 90.9532 328.956C100.585 328.7 110.207 329.215 119.82 329.508C132.917 329.908 146.009 330.67 159.072 331.855C164.539 332.351 170.004 332.856 175.469 333.372C179.148 333.718 180.823 331.682 179.669 328.124C177.071 320.122 173.968 312.301 171 304.434C157.695 269.147 143.153 234.367 128.218 199.743C127.824 198.827 127.418 197.914 126.94 197.037C126.045 195.396 124.666 194.489 122.792 194.47C119.368 194.438 115.978 193.809 112.541 193.974C111.342 194.029 110.087 194.036 109.22 192.923Z" fill="#191B1E"/>
<path d="M63.3588 300.667C62.6029 300.669 61.8448 300.669 61.0889 300.671C58.1787 300.296 55.9388 298.162 55.6475 295.312C55.5597 294.455 55.3798 294.003 54.5511 293.552C52.1013 292.217 50.9299 290.005 50.9663 287.231C50.9771 286.441 50.7693 286.033 50.1654 285.494C47.9341 283.494 46.6942 281.012 47.3345 277.928C47.4822 277.218 47.2659 276.89 46.7627 276.522C45.9468 275.928 45.3258 275.153 44.8633 274.255C43.5548 271.707 44.1073 269.724 46.5785 268.103C47.0561 267.185 47.994 267.016 48.8442 266.699C53.5254 265.628 58.2922 265.249 63.0697 265.292C67.6781 265.333 69.8452 267.855 69.3891 272.409C69.2842 273.455 69.6225 273.705 70.5155 274C74.2758 275.247 75.7663 278.503 74.233 282.112C73.8583 282.993 73.7662 283.671 74.3808 284.463C75.8905 286.407 76.383 288.542 75.3166 290.867C74.8669 291.847 75.3123 292.649 75.6635 293.509C77.0726 296.959 75.9183 299.351 72.2993 300.344C70.3035 300.891 68.2541 301.221 66.1812 301.33C65.1962 301.379 64.1661 301.452 63.3588 300.667Z" fill="#191B1E"/>
<path d="M48.7559 267.324C48.03 267.583 47.304 267.842 46.5781 268.101C46.713 267.331 46.2569 266.732 45.9785 266.09C44.7322 263.215 43.4644 260.351 42.2031 257.48C42.9548 257.461 43.7064 257.444 44.4581 257.424C46.3811 260.511 47.9978 263.73 48.7559 267.324Z" fill="#191B1E"/>
<path d="M425.017 269.254L424.889 269.207C424.889 269.207 424.912 269.07 424.912 269.072C424.912 269.074 425.05 269.115 425.05 269.115L425.017 269.254Z" fill="#B22828"/>
<path d="M375.209 411.084L375.342 411.037C375.342 411.037 375.415 411.15 375.413 411.15C375.411 411.148 375.288 411.204 375.288 411.204L375.209 411.084Z" fill="#4F91E0"/>
<path d="M351.424 275.786C346.717 275.04 342.008 274.298 337.301 273.543C330.838 272.505 324.388 271.361 317.906 270.464C315.495 270.131 313.105 270.924 310.84 271.812C306.028 273.699 301.687 276.441 297.436 279.329C295.556 280.604 294.584 282.497 294.196 284.675C292.07 296.649 289.791 308.596 287.23 320.486C285.416 328.901 283.436 337.28 281.508 345.672C279.178 355.8 276.652 365.882 273.81 375.878C272.257 381.339 275.621 385.575 279.789 386.655C287.513 388.657 295.194 390.828 302.876 392.987C315.086 396.416 327.29 399.87 339.483 403.359C346.265 405.3 353.021 407.334 359.795 409.308C360.489 409.512 361.133 409.787 361.748 410.153C363.339 413.428 365.435 416.402 367.365 419.473C369.448 422.791 371.626 426.053 373.329 429.591C374.333 431.679 374.954 433.838 374.292 436.193C373.646 438.494 372.11 439.517 369.806 438.871C366.172 437.855 362.585 436.674 358.962 435.615C349.512 432.854 339.897 430.907 330.115 429.752C324.528 429.093 318.921 428.648 313.33 428.068C306.46 427.354 299.623 426.408 292.901 424.748C289.811 423.985 287.453 422.37 285.99 419.516C285.894 419.326 285.843 419.065 285.686 418.958C283.453 417.446 283.065 414.84 282.02 412.658C278.851 406.04 275.285 399.625 272.037 393.049C268.398 385.684 265.289 378.137 263.593 370.06C262.55 365.093 262.25 360.059 262.068 355.009C262.634 352.782 262.518 350.48 262.747 348.219C264.283 333.061 267.672 318.331 272.551 303.912C275.131 296.286 277.225 288.527 278.493 280.557C279.457 274.501 280.084 268.413 280.388 262.297C281.048 249.067 281.87 235.849 282.913 222.644C283.568 214.34 284.121 206.025 284.808 197.723C285.748 186.369 286.646 175.01 287.132 163.626C287.429 156.657 287.65 149.67 286.487 142.735C286.322 141.747 286.085 140.786 285.725 139.854C288.693 140.282 288.871 140.277 288.963 143.178C289.11 147.903 291.451 151.57 294.305 154.995C296.323 157.414 299.122 158.173 302.195 158.013C302.762 157.983 303.327 157.876 303.888 157.769C305.175 157.525 306.45 156.984 307.109 158.896C307.375 159.671 308.482 159.818 309.364 159.867C310.94 159.957 312.493 159.793 314.037 159.465C317.328 158.766 320.497 157.756 323.502 156.201C325.712 155.059 326.515 153.412 326.159 150.962C325.789 148.417 326.682 147.67 329.316 148.278C334.01 149.36 333.423 148.635 333.528 153.243C333.554 154.383 333.607 155.523 333.612 156.663C333.616 157.54 333.931 158.182 334.789 158.49C338.877 159.955 342.822 161.846 347.137 162.631C347.557 162.708 347.981 162.794 348.405 162.802C350.364 162.843 351.105 162.122 351.225 160.163C351.345 158.203 350.811 156.374 350.092 154.603C350.672 154.132 351.094 154.556 351.52 154.725C356.24 156.586 359.791 159.968 363.08 163.673C374.303 176.313 383.473 190.393 392.098 204.86C398.968 216.381 405.116 228.281 410.872 240.386C415.065 249.204 418.868 258.194 422.397 267.298C422.55 267.692 422.616 268.12 422.723 268.533C421.239 268.101 419.804 267.39 418.172 267.923C417.549 268.126 417.136 267.544 416.663 267.266C412.474 264.794 407.891 263.987 403.129 264.316C399.225 264.586 395.437 265.555 391.749 266.894C386.931 268.644 382.727 271.376 379.003 274.845C377.926 275.848 377.125 277.147 376.177 278.293C375.738 278.824 375.507 279.588 374.676 279.705C373.269 280.942 371.825 279.605 370.403 279.767C367.459 279.113 364.476 278.668 361.508 278.15C360.208 277.923 359.071 277.504 358.24 276.439C355.156 270.635 352.156 264.875 352.814 257.893C353.197 253.811 352.889 249.663 352.837 245.548C352.779 249.452 352.777 253.356 352.792 257.26C352.816 262.817 352.251 268.353 352.195 273.908C352.184 274.644 352.12 275.339 351.424 275.786Z" fill="#CE5646"/>
<path d="M126.308 333.598C126.668 332.614 127.306 332.195 128.409 332.311C134.352 332.935 140.341 332.818 146.286 333.47C148.474 333.71 150.684 333.737 152.883 333.902C159.333 334.386 165.777 334.914 172.206 335.637C173.617 335.795 175.041 335.804 176.448 336.071C178.035 336.373 179.343 335.539 180.675 334.863C182.005 334.508 183.335 334.17 184.65 334.914C183.866 341.015 183.144 347.122 182.971 353.278C182.945 354.222 182.564 355.268 183.495 356.04C182.754 356.513 182.861 357.266 182.894 357.963C183.18 364.074 183.27 370.197 183.932 376.291C184.322 379.898 184.598 383.517 184.939 387.13C185.459 392.653 186.101 398.17 186.485 403.704C186.877 409.381 187.247 415.073 186.628 420.765C186.605 420.977 186.669 421.268 186.551 421.392C184.883 423.153 184.945 425.72 183.545 427.638C180.863 431.307 177.311 433.671 173.026 434.937C166.516 436.86 159.845 437.893 153.078 438.48C147.802 438.935 142.527 439.004 137.264 438.743C127.904 438.278 118.693 436.869 109.939 433.301C107.453 432.289 105.303 430.8 103.723 428.582C100.825 424.513 100.555 420.158 102.343 415.602C102.812 414.408 103.489 413.313 104.209 412.243C112.674 399.65 117.982 385.761 121.143 370.995C122.993 362.357 124.173 353.621 125.051 344.837C125.428 341.087 125.886 337.344 126.308 333.598Z" fill="#CE5646"/>
<path d="M221.696 356.198C221.942 355.377 221.272 355.486 220.837 355.353C216.983 354.181 214.471 351.674 213.419 347.783C212.143 343.055 214.162 338.24 218.178 336.3C219.285 335.765 220.467 335.442 221.675 335.393C223.274 335.329 223.944 334.338 224.285 333.019C224.608 331.757 224.448 330.492 224.126 329.22C222.075 321.147 220.328 313.016 219.041 304.774C216.657 289.532 218.034 274.822 224.664 260.753C226.15 257.597 227.611 254.429 229.086 251.268C229.236 250.947 229.39 250.62 229.594 250.329C229.848 249.965 230.193 249.691 230.673 249.912C231.234 250.168 231.315 250.647 231.11 251.167C230.928 251.629 230.677 252.066 230.463 252.515C227.279 259.2 224.056 265.867 222.06 273.042C220.015 280.392 219.379 287.862 219.876 295.466C220.612 306.748 223.073 317.713 225.807 328.631C226.176 330.105 226.386 331.558 226.101 333.064C225.628 335.566 224.409 336.758 221.889 337.145C217.903 337.757 215.606 339.823 214.98 343.357C214.287 347.278 216.135 351.169 219.537 352.912C221.499 353.918 223.608 354.284 225.767 353.991C227.321 353.779 228.831 353.505 230.341 354.134C229.317 355.257 227.917 355.657 226.525 355.736C224.904 355.832 223.302 356.021 221.696 356.198Z" fill="#191B1E"/>
<path d="M132.386 192.51C133.246 192.258 133.51 191.475 133.891 190.806C138.955 181.881 144.44 173.224 150.671 165.061C154.868 159.564 159.359 154.34 164.678 149.854C167.693 147.313 171.186 145.783 174.822 144.511C183.587 141.443 192.594 139.439 201.83 138.382C204.811 138.042 207.803 138.11 210.775 137.749C211.871 137.616 213.06 137.462 214.115 138.102C209.518 145.537 207.933 153.944 206.396 162.34C204.303 173.761 203.061 185.295 201.982 196.851C200.956 207.839 200.132 218.843 199.41 229.857C198.601 242.221 197.888 254.59 197.256 266.965C196.669 278.447 194.609 289.716 192.063 300.904C191.273 304.374 190.433 307.83 189.615 311.294C189.138 311.561 189.035 311.14 188.847 310.877C182.898 294.955 176.822 279.083 170.415 263.339C165.642 251.614 160.779 239.926 155.967 228.217C155.755 227.699 155.391 227.224 155.419 226.621C154.95 223.265 156.235 220.06 156.222 216.734C155.723 218.235 155.704 219.836 155.331 221.361C155.143 222.133 155.235 223.13 154.089 223.314C153.419 222.629 153.226 221.701 152.866 220.867C149.558 213.17 146.228 205.484 143.003 197.753C141.647 194.502 139.457 192.716 135.85 192.808C134.645 192.838 133.435 192.754 132.227 192.724C132.283 192.652 132.334 192.581 132.386 192.51Z" fill="#CE5646"/>
<path d="M184.647 334.914C183.318 335.316 181.99 335.474 180.673 334.863C183.048 332.306 183.026 329.549 181.859 326.37C178.054 316.015 174.251 305.661 170.287 295.366C165.709 283.477 161.079 271.609 156.211 259.835C152.787 251.548 149.419 243.235 145.96 234.961C142.253 226.097 138.48 217.26 134.72 208.417C133.272 205.011 131.713 201.651 130.332 198.218C129.493 196.132 128.469 194.237 126.689 192.814C126.972 192.795 127.255 192.774 127.54 192.754C131.234 192.521 133.57 194.237 134.943 197.631C136.677 201.92 138.594 206.134 140.414 210.389C153.415 240.754 166.064 271.262 177.743 302.164C180.838 310.352 183.825 318.582 186.862 326.792C186.96 327.059 187.052 327.329 187.142 327.598C188.256 330.948 187.573 332.948 184.647 334.914Z" fill="#8B3D98"/>
<path d="M154.091 223.314C154.98 221.196 154.847 218.884 155.35 216.689C155.517 215.96 155.324 214.862 156.412 214.948C157.556 215.04 157.2 216.148 157.1 216.834C156.62 220.109 156.367 223.425 155.419 226.621C154.81 225.586 154.273 224.522 154.091 223.314Z" fill="#191B1E"/>
<path d="M188.847 310.877C189.104 311.016 189.361 311.155 189.616 311.294C189.654 311.557 189.644 311.935 189.335 311.858C188.907 311.754 188.81 311.307 188.847 310.877Z" fill="#8187D3"/>
<path d="M132.385 192.51C132.319 192.57 132.268 192.641 132.231 192.724C131.741 192.842 131.289 192.836 130.991 192.339C131.456 192.397 131.921 192.453 132.385 192.51Z" fill="#F6C5E9"/>
<path d="M214.083 138.113C214.223 137.777 214.411 137.61 214.737 137.922C214.55 138.102 214.34 138.185 214.083 138.113Z" fill="#CE5646"/>
<path d="M306.64 108.623C306.499 106.779 306.349 104.935 306.221 103.091C306.178 102.49 306.103 101.867 305.355 101.872C304.629 101.876 304.475 102.462 304.477 103.084C304.482 106.009 304.773 108.916 305.096 111.816C306.385 123.376 308.97 134.669 312.131 145.843C312.247 146.252 312.334 146.667 312.431 147.065C312.011 147.63 311.514 147.317 311.06 147.24C308.668 146.836 306.328 146.231 304.053 145.377C303.45 145.15 302.88 144.883 302.336 144.53C301.582 144.04 301.293 143.576 301.747 142.615C304.158 137.524 305.071 132.057 305.627 126.51C305.685 125.945 305.707 125.372 305.698 124.803C305.689 124.238 305.437 123.828 304.805 123.849C304.304 123.866 304.051 124.202 303.996 124.672C303.88 125.663 303.777 126.653 303.681 127.646C303.169 132.998 302.062 138.196 299.563 143.011C299.01 144.076 299.289 144.62 300.252 145.253C302.473 146.712 304.27 148.654 305.901 150.74C306.43 151.414 306.921 152.145 306.906 153.044C306.88 154.605 306.15 155.587 304.54 155.872C299.407 156.776 297.032 155.961 294.299 152.141C292.224 149.238 290.792 146.177 290.68 142.534C290.603 140.004 289.333 137.762 288.577 135.396C288.449 134.994 288.357 134.577 288.248 134.168C288.845 133.518 289.657 133.563 290.43 133.518C291.794 133.436 291.787 132.812 291.128 131.871C290.434 130.88 289.522 130.052 288.89 129.021C288.053 127.657 288.387 127.083 289.959 127.021C293.199 126.895 293.363 126.611 291.755 123.661C290.43 121.228 288.916 118.899 287.725 116.39C286.997 114.856 286.316 113.309 286.509 111.545C287.316 107.684 289.374 104.458 291.727 101.395C293.291 99.3624 294.914 97.3794 296.494 95.3601C297.244 94.4018 297.715 93.3279 298.085 92.145C300.582 84.1511 304.713 77.2139 311.459 72.0244C311.853 71.7206 312.249 71.4169 312.653 71.1238C312.998 70.8736 313.264 70.9313 313.534 71.2907C316.067 74.6684 319.93 75.6716 323.673 76.7519C328.624 78.1829 333.712 78.7904 338.882 78.6215C340.314 78.5744 341.719 78.3648 343.113 78.076C344.509 77.7851 345.766 77.1198 347.096 76.3861C347.942 79.6846 348.36 82.9211 348.833 86.1426C349.694 91.9888 350.308 97.8629 350.418 103.778C350.426 104.199 350.345 104.62 350.306 105.044C349.732 106.195 348.959 107.183 348.049 108.107C345.634 110.561 343.811 113.459 342.192 116.469C341.126 118.45 341.565 119.158 343.758 119.395C346.443 119.684 346.739 120.225 345.372 122.589C344.338 124.377 343.424 126.223 342.52 128.078C342.113 128.912 341.773 129.772 341.648 130.698C341.389 132.639 341.942 133.197 343.871 132.953C344.437 132.88 344.974 132.639 345.546 132.641C346.16 132.643 346.736 132.737 346.486 133.605C345.257 137.991 344.021 142.374 342.803 146.763C342.535 147.722 342.302 148.693 342.092 149.666C341.89 150.599 342.192 151.266 343.248 151.234C346.803 151.125 349.732 156.682 349.497 160.026C349.448 160.738 349.069 161.08 348.392 161.01C347.614 160.928 346.829 160.819 346.075 160.623C342.756 159.754 339.614 158.381 336.402 157.206C335.464 156.864 335.348 156.188 335.342 155.36C335.303 148.8 334.777 142.262 334.421 135.717C334.068 129.171 333.642 122.627 333.248 116.084C333.243 116.013 333.248 115.938 333.23 115.872C333.046 115.134 333.541 113.861 332.19 113.97C331.059 114.062 331.445 115.175 331.483 115.887C331.644 118.946 331.873 122.003 332.053 125.062C332.397 130.895 332.706 136.731 333.083 142.562C333.153 143.64 332.841 144.273 331.828 144.71C330.387 145.332 328.948 145.952 327.438 146.382C325.975 146.802 325.917 146.77 325.894 145.14C325.836 141.148 325.81 137.156 325.778 133.165C325.733 127.391 325.695 121.618 325.65 115.846C325.645 115.419 325.639 114.991 325.603 114.565C325.562 114.107 325.371 113.724 324.853 113.682C324.211 113.626 323.973 114.08 323.887 114.599C323.819 115.016 323.834 115.451 323.84 115.879C323.986 127.922 324.117 139.967 324.316 152.008C324.335 153.187 323.934 153.889 322.973 154.421C319.043 156.597 314.829 157.835 310.36 158.126C308.362 158.257 307.951 157.715 308.129 155.747C308.392 152.828 310.591 150.261 313.212 149.888C314.962 149.64 314.981 149.429 314.476 147.57C313.486 143.929 312.497 140.288 311.523 136.643C311.377 136.095 311.315 135.526 311.217 134.968C311.996 133.828 312.846 134.812 313.647 134.921C314.487 135.037 315.442 135.516 316.095 134.84C316.893 134.014 316.17 133.086 315.78 132.286C314.157 128.953 312.439 125.669 310.833 122.33C309.812 120.204 310.002 119.883 312.334 119.308C315 118.649 315.223 117.992 313.664 115.667C312.334 113.682 310.677 112.043 308.681 110.743C307.835 110.188 307.043 109.596 306.64 108.623Z" fill="#FFC442"/>
<path d="M217.312 151.655C217.471 148.442 217.345 144.089 217.85 139.762C218.077 137.813 218.026 137.809 219.942 137.653C221.679 137.511 221.713 137.511 221.698 139.27C221.662 143.646 222.12 147.955 223.548 152.107C225.431 157.583 228.656 161.944 234.114 164.351C238.119 166.116 242.279 166.276 246.479 165.303C254.717 163.393 261.97 159.606 267.964 153.589C271.878 149.657 274.619 145.065 275.341 139.458C275.446 138.637 275.752 138.303 276.568 138.457C276.849 138.51 277.136 138.513 277.418 138.553C279.431 138.848 279.468 138.855 279.189 140.947C278.525 145.912 277.078 150.678 275.324 155.347C269.75 170.191 262.287 183.975 252.139 196.23C249.723 199.146 247.072 201.839 244.042 204.134C242.16 205.559 240.17 206.795 237.892 207.514C234.847 208.475 232.131 207.955 229.735 205.82C227.838 204.13 226.482 202.044 225.358 199.805C222.683 194.476 221.203 188.763 220.06 182.951C218.105 172.991 217.342 162.918 217.312 151.655Z" fill="#F7F2DD"/>
<path d="M301.021 11.006C300.518 8.25718 301.717 7.81225 303.912 7.91278C305.737 7.99621 307.368 8.7064 308.959 9.51499C313.009 11.575 316.403 14.4863 319.534 17.7292C319.977 18.1891 320.408 18.6683 320.904 19.0662C321.273 19.3614 321.705 19.2951 322.039 18.9143C322.316 18.5977 322.301 18.2276 322.071 17.9346C321.506 17.2158 320.894 16.5334 320.101 15.6008C327.956 11.7718 335.768 11.2241 343.762 14.1697C343.942 14.8179 343.544 14.974 343.315 15.2029C337.646 20.8716 338.978 29.2313 346.122 32.795C346.372 32.9191 346.604 33.0796 346.846 33.2229C346.989 33.3769 347.058 33.5609 347.053 33.7705C345.938 35.3256 343.94 35.3299 342.509 36.3417C341.621 36.9706 340.06 37.1246 340.203 38.5151C340.349 39.9461 341.73 40.5579 342.993 40.7996C344.709 41.1269 346.205 41.8863 347.732 42.6436C350.308 43.9185 350.525 44.5174 349.186 47.0395C352.116 47.6962 352.283 47.9571 351.994 51.2749C352.771 50.0898 352.773 48.7978 352.176 47.5528C351.574 46.2972 351.953 45.3667 352.85 44.5003C354.435 42.9687 356.05 41.4735 357.96 40.3333C359.975 39.7729 359.975 39.7729 359.726 41.9013C359.506 44.8896 358.337 47.5528 356.763 50.03C352.347 56.9735 345.809 60.8753 337.959 62.7064C331.23 64.2765 324.626 63.8102 318.397 60.6379C315.589 59.2089 315.05 59.549 317.872 56.6591C318.523 55.9917 319.3 55.4911 320.103 55.0205C320.568 54.7489 320.874 54.3296 320.549 53.7777C320.238 53.2536 319.735 53.2365 319.243 53.4868C317.624 54.3061 316.343 55.5232 315.187 56.9008C314.277 57.9853 314.242 57.9725 313.223 57.0591C312.643 56.5393 312.039 56.0302 311.606 55.1767C313.18 53.7499 315.024 52.7466 316.99 51.9145C317.632 51.6428 318.816 51.5894 318.377 50.4749C317.968 49.4396 317.058 50.0214 316.347 50.2738C314.519 50.9241 312.868 51.9145 311.324 53.0632C310.598 53.6044 310.129 53.6387 309.638 52.8023C307.698 49.4973 307.523 49.8824 311.154 48.6695C312.585 48.1924 314.084 48.0876 315.579 47.9914C315.934 47.9678 316.294 48.0149 316.647 47.9828C317.176 47.9336 317.669 47.7582 317.652 47.1165C317.637 46.494 317.131 46.2865 316.622 46.2458C315.986 46.1966 315.339 46.2073 314.703 46.2587C312.491 46.4426 310.334 46.8919 308.289 47.7839C307.692 48.0448 307.244 48.1219 306.977 47.3282C305.788 43.7859 305.034 40.1921 305.537 36.4316C305.555 36.3118 305.69 36.2069 305.835 36.0037C306.321 36.7032 306.758 37.3984 307.268 38.038C307.557 38.4017 308.019 38.4894 308.418 38.2049C308.82 37.9204 308.872 37.4583 308.636 37.0583C307.91 35.8305 307.189 34.6069 306.874 33.1951C308.163 31.6335 308.87 29.9629 308.058 27.9093C307.805 27.2718 308.007 26.5381 308.634 26.2258C309.861 25.6162 309.994 24.8161 309.493 23.6289C308.923 22.2834 309.61 21.6353 310.945 21.4834C312.159 21.3443 313.352 21.5775 315.02 21.7465C310.754 17.2115 306.97 12.7408 301.021 11.006Z" fill="#FFC442"/>
<path d="M284.175 125.487C276.397 124.657 271.23 118.94 271.112 111.181C271.03 105.795 272.42 100.766 275.058 96.0745C276.562 93.3985 278.35 90.9128 280.185 88.4592C282.444 85.4345 284.768 82.4547 286.616 79.1498C288.978 74.925 290.603 70.5056 290.387 65.5514C290.273 62.9545 289.633 60.4924 288.796 58.0666C287.982 55.7136 287.061 53.3969 286.31 51.0246C285.815 49.4609 286.967 48.2352 288.449 48.5689C289.059 48.7058 289.481 49.093 289.717 49.6235C291.644 53.9745 293.98 58.1693 294.997 62.8796C296.094 67.9557 295.62 72.9249 293.918 77.8043C292.455 82.0012 290.308 85.8474 287.928 89.578C286.322 92.1 284.605 94.5536 283.219 97.2104C281.256 100.984 279.958 104.939 279.949 109.245C279.945 111.885 280.442 114.246 283.237 115.365C283.864 115.615 283.834 116.084 283.798 116.582C283.586 119.496 283.778 122.396 284.175 125.487Z" fill="#FFC442"/>
<path d="M346.49 133.608C346.253 132.94 345.812 133 345.308 133.274C344.398 133.772 343.411 133.834 342.4 133.792C341.357 133.747 340.884 133.203 340.809 132.179C340.708 130.78 341.053 129.485 341.668 128.264C342.659 126.294 343.706 124.352 344.73 122.396C345.083 121.723 345.677 121.139 345.574 120.257C344.655 119.951 343.724 120.206 342.816 120.112C341.008 119.924 340.351 119.051 341.004 117.367C341.462 116.184 342.163 115.087 342.826 113.994C344.867 110.636 347.146 107.47 350.311 105.046C350.651 109.461 350.356 113.859 349.816 118.238C349.171 123.457 348.152 128.604 346.49 133.608Z" fill="#F46238"/>
<path d="M301.022 11.006C302.512 10.5803 303.827 11.0124 305.063 11.8274C308.472 14.0778 311.44 16.8329 314.183 19.8384C314.885 20.6085 315.528 21.4321 316.305 22.3583C315.412 22.6749 314.738 22.4909 314.061 22.3754C313.431 22.2685 312.8 22.1401 312.166 22.1016C309.463 21.9412 309.433 21.9946 310.504 24.4226C311.125 25.8322 311.061 25.9649 309.53 26.4333C308.281 26.8162 308.277 26.8248 308.808 28.228C309.752 30.7223 309.193 32.1576 306.866 33.2079C304.591 28.0141 303.095 22.5786 301.848 17.0683C301.394 15.0767 300.835 13.0873 301.022 11.006Z" fill="#F45325"/>
<path d="M306.641 108.623C309.791 110.494 312.712 112.614 314.605 115.864C314.819 116.231 315.089 116.574 315.262 116.961C315.855 118.283 315.474 119.171 314.116 119.613C313.577 119.789 313.007 119.874 312.452 119.996C311.906 120.118 311.305 119.894 310.784 120.264C310.701 121.036 311.208 121.599 311.517 122.221C313.198 125.601 314.911 128.966 316.594 132.345C317.095 133.351 317.898 134.491 316.879 135.481C315.984 136.35 314.757 135.899 313.63 135.646C312.81 135.462 312.142 134.754 311.219 134.968C309.701 129.717 308.746 124.347 307.868 118.965C307.309 115.538 306.718 112.109 306.641 108.623Z" fill="#F46238"/>
<path d="M359.723 41.9012C359.684 41.4306 359.648 40.96 359.605 40.4145C359.007 40.6113 358.504 40.7782 358.001 40.945C357.611 40.3653 358.224 39.9247 358.324 39.1995C356.318 40.3889 355.026 42.128 353.33 43.3815C352.105 44.2863 351.075 44.4831 349.947 43.358C349.748 43.159 349.998 43.4072 349.788 43.2168C348.893 42.4146 347.431 42.3226 346.883 41.1504C346.285 39.8733 347.484 38.9065 347.758 37.7642C348.125 36.2326 347.553 34.9876 346.861 33.7341C346.857 33.5629 346.853 33.3939 346.848 33.2228C349.088 33.6784 351.324 33.9565 353.568 33.2164C355.564 32.5575 357.251 31.4281 358.849 29.5884C360.183 33.8303 360.646 37.8069 359.723 41.9012Z" fill="#FEC442"/>
<path d="M286.513 111.547C287.802 115.397 289.706 118.944 291.82 122.392C292.447 123.417 293 124.503 293.456 125.616C294.042 127.045 293.546 127.731 291.969 127.83C291.475 127.86 290.974 127.843 290.479 127.796C289.995 127.749 289.518 127.635 288.993 127.545C288.849 128.335 289.415 128.713 289.789 129.177C290.593 130.168 291.464 131.109 292.201 132.149C293.119 133.445 292.792 134.121 291.231 134.215C290.241 134.275 289.243 134.192 288.25 134.172C285.911 127.417 284.734 120.535 286.001 113.393C286.113 112.764 286.34 112.161 286.513 111.547Z" fill="#F46238"/>
<path d="M346.33 13.0894C343.732 12.3878 341.263 11.2412 338.291 10.9054C339.874 7.63037 341.565 4.73186 344.396 2.63766C344.454 2.59488 344.512 2.55424 344.572 2.51787C346.531 1.29643 347.285 1.56168 348.202 3.79065C348.062 6.9865 348.084 10.2166 346.33 13.0894Z" fill="#FEC342"/>
<path d="M346.465 24.1573C347.169 21.8556 347.972 19.2138 348.79 16.5762C348.872 16.311 349.039 16.0564 349.366 16.0307C349.827 15.9944 349.981 16.3538 350.064 16.6853C350.323 17.7142 350.585 18.7474 350.756 19.7956C350.94 20.9272 351.523 21.3957 352.655 21.1796C352.863 21.1411 353.079 21.139 353.294 21.1368C354.673 21.124 354.874 21.3122 354.474 22.5636C353.741 24.8568 352.93 27.1264 352.144 29.4024C352.007 29.8024 351.855 30.2901 351.311 30.1789C350.949 30.1062 350.814 29.7104 350.754 29.3446C350.58 28.2965 350.39 27.2504 350.238 26.198C350.12 25.398 349.711 25.0985 348.912 25.2739C348.36 25.3937 347.794 25.4728 347.231 25.537C346.432 25.6333 346.229 25.2076 346.465 24.1573Z" fill="#F5F0DC"/>
<path d="M346.33 13.0895C346.861 9.97064 346.915 6.75554 348.202 3.78857C349.422 6.19723 349.831 8.83476 350.403 11.4295C350.559 12.1354 350.38 12.4884 349.643 12.5846C348.536 12.7301 347.435 12.9183 346.33 13.0895Z" fill="#F05326"/>
<path d="M48.7559 267.324C46.972 264.175 45.4002 260.937 44.458 257.424C57.7949 257.219 71.1317 257.253 84.4643 257.508C92.7987 257.666 101.131 258.032 109.461 258.363C111.38 258.44 113.292 258.71 115.22 258.714C121.393 258.733 124.445 255.747 124.59 249.627C124.698 245.152 123.706 240.867 122.518 236.61C119.871 227.128 116.157 218.028 112.498 208.909C111.121 205.478 109.566 202.117 108.992 198.404C108.703 196.532 108.639 194.731 109.217 192.923C110.412 193.148 111.62 193.251 112.834 193.203C116.335 193.067 119.798 193.67 123.293 193.725C125.614 193.762 127.075 195.212 127.953 197.255C130.571 203.339 133.188 209.422 135.771 215.521C140.189 225.947 144.643 236.356 148.966 246.821C153.183 257.022 157.29 267.266 161.38 277.517C167.873 293.787 174.109 310.158 180.004 326.655C180.268 327.393 180.527 328.133 180.739 328.886C181.608 331.966 179.238 334.629 176.088 334.259C172.274 333.81 168.445 333.483 164.622 333.121C160.303 332.713 155.984 332.289 151.658 331.945C149.388 331.765 147.108 331.624 144.838 331.517C140.996 331.335 137.154 331.098 133.315 330.899C124.987 330.467 116.652 330.355 108.324 330.022C98.7669 329.639 89.2161 329.872 79.6632 329.75C79.3784 329.746 79.0914 329.748 78.8066 329.748C76.6673 329.759 75.1362 328.864 74.2818 326.837C72.5707 322.766 70.8233 318.712 69.0802 314.656C67.3371 310.601 65.5833 306.549 63.8316 302.495C63.5789 301.909 63.2405 301.347 63.3519 300.667C66.1443 300.72 68.9003 300.416 71.6178 299.779C72.2388 299.633 72.8706 299.473 73.4423 299.201C75.4917 298.23 76.0891 296.598 75.3418 294.418C75.0056 293.441 74.2753 292.752 73.7507 291.93C76.0463 288.542 75.7465 286.565 72.3823 283.5C74.0676 281.772 74.8557 279.754 73.7464 277.399C72.6329 275.038 70.6713 274.154 68.1701 274.432C67.8275 273.765 68.4099 273.474 68.577 273.059C69.789 270.071 68.0566 266.787 64.9023 266.188C64.277 266.07 63.626 266.047 62.9878 266.051C58.2146 266.085 53.4606 266.434 48.7559 267.324Z" fill="#8B3D98"/>
<path d="M110.71 187.804C107.071 190.694 106.662 194.354 107.165 198.256C107.512 200.949 108.345 203.52 109.382 206.034C113.234 215.375 117.05 224.734 120.029 234.403C121.162 238.08 122.147 241.794 122.646 245.616C122.941 247.884 123.055 250.155 122.445 252.404C121.83 254.663 120.453 256.164 118.119 256.635C112.932 257.683 108.78 256.278 106.557 251.428C104.671 247.315 103.683 242.947 102.756 238.561C102.095 235.43 101.557 232.27 100.983 229.121C100.651 227.297 100.602 227.22 98.6254 227.109C93.713 226.833 88.8005 226.507 83.8838 226.319C68.0586 225.712 52.2291 225.464 36.3975 226.052C32.62 226.193 28.8361 226.12 25.0672 226.471C24.2813 226.544 23.763 226.392 23.399 225.553C20.3196 218.439 16.7563 211.527 14.3193 204.139C13.5827 201.905 13.0259 199.634 12.5976 197.317C12.225 195.304 12.5762 193.471 13.587 191.775C15.6963 188.232 18.7992 186.138 22.9686 185.935C43.0702 184.957 63.1719 184.932 83.2778 185.847C92.1133 186.249 100.938 186.773 109.742 187.627C109.951 187.648 110.159 187.704 110.71 187.804Z" fill="#F7F2DD"/>
<path d="M269.405 92.7931C266.634 104.794 260.675 114.546 249.565 120.576C243.055 124.11 235.988 125.162 228.665 124.908C226.45 124.831 224.253 124.606 222.063 124.302C218.454 123.804 215.184 122.461 212.317 120.212C206.128 115.361 202.554 108.462 200.119 101.155C201.113 101.155 201.5 101.501 202.454 101.752C205.115 102.545 207.751 103.427 210.407 104.242C211.289 104.513 211.779 104.702 211.606 105.951C211.184 109.006 213.765 111.087 216.795 110.381C217.328 110.257 217.797 110.056 217.743 109.446C217.694 108.871 217.264 108.618 216.685 108.627C216.187 108.633 215.685 108.653 215.191 108.608C214.234 108.52 213.617 107.97 213.351 107.065C213.105 106.227 213.413 105.519 214.015 104.939C214.45 104.52 215.296 104.417 215.195 103.594C215.12 102.973 214.431 102.787 214.077 102.351C213.319 101.416 213.18 100.192 213.75 99.157C214.336 98.0917 215.246 97.681 216.443 97.9185C216.583 97.9463 216.722 97.9805 216.859 98.019C217.437 98.1859 217.863 97.9912 218.02 97.4179C218.184 96.8104 217.78 96.5195 217.272 96.3141C215.264 95.4991 212.805 96.5815 211.991 98.7014C211.715 99.4223 211.604 100.205 211.368 101.155C207.516 99.9335 203.683 98.7121 199.841 97.512C199.273 97.3345 199.091 96.958 198.972 96.4339C198.233 93.1739 197.702 89.8903 197.646 86.348C202.882 89.0775 207.565 88.4807 211.6 84.3543C215.176 80.6964 216.127 74.724 214.011 70.0158C212.863 67.4595 211.06 65.4958 208.503 64.2701C206.032 63.085 203.445 63.0187 200.88 63.716C200.689 63.1321 200.828 62.8048 200.95 62.4754C201.659 60.5459 201.657 60.5523 203.64 61.102C210.659 63.0465 217.84 64.1931 225.02 65.3289C233.828 66.7215 242.67 67.8317 251.557 68.5654C254.972 68.8478 258.398 69.0467 261.82 68.7708C265.461 68.4777 268.262 70.1912 270.913 72.341C271.262 72.6255 271.423 73.002 271.421 73.4619C271.412 75.2737 271.416 77.0834 271.416 79.3316C270.864 78.3348 270.562 77.7187 270.196 77.1433C268.264 74.1165 264.838 73.3571 261.831 75.3079C259.566 76.7775 258.538 78.9744 258.281 81.5884C258.223 82.1895 258.306 82.7842 259.032 82.9104C259.82 83.0473 259.966 82.4868 260.039 81.8665C260.097 81.3724 260.184 80.8782 260.3 80.3926C260.658 78.8674 261.501 77.6631 262.814 76.8096C264.998 75.3892 267.369 75.909 268.712 78.1337C269.695 79.7637 270.127 81.597 270.018 83.4601C269.759 87.871 267.9 91.5546 264.478 94.3718C263.384 95.2724 262.163 96.1879 260.709 94.8296C260.354 94.498 259.867 94.5793 259.572 94.9601C259.285 95.3301 259.369 95.7644 259.626 96.1537C260.184 96.9986 261.512 97.4971 262.675 97.2404C263.808 96.9922 264.799 96.4489 265.709 95.7237C266.951 94.7355 267.909 93.4969 268.883 92.2669C269.305 92.1985 269.543 92.3075 269.405 92.7931Z" fill="#F7F2DD"/>
<path d="M262.739 65.806C260.467 64.1674 259.015 62.2122 257.494 60.364C253.423 55.4141 249.477 50.3615 245.455 45.3688C243.847 43.3709 242.123 41.4756 240.35 39.6167C237.204 36.3182 233.459 34.1427 228.981 33.2357C228.289 33.0967 227.615 32.8806 226.814 32.6667C227.533 31.8881 228.431 31.9907 229.215 31.8111C232.307 31.1009 235.423 31.1116 238.551 31.5415C239.057 31.6121 239.53 31.7554 239.95 32.0357C240.802 32.6068 241.768 32.9148 242.755 33.009C246.671 33.3854 249.682 35.5567 252.46 38.0188C259.09 43.8949 262.424 51.3862 262.959 60.1822C263.066 61.9534 263.154 63.7075 262.739 65.806Z" fill="#8B3D98"/>
<path d="M198.982 82.5017C198.32 82.4269 198.218 82.0076 198.391 81.4471C198.768 80.2278 199.1 78.9914 199.56 77.8021C199.969 76.7432 199.622 76.3111 198.603 75.9432C195.549 74.8373 195.567 74.7945 197.798 72.5013C199.532 70.7195 201.258 68.9333 202.999 67.1578C203.34 66.8113 203.702 66.3492 204.267 66.6401C204.86 66.9439 204.623 67.4979 204.507 67.9578C204.199 69.1964 203.89 70.4371 203.516 71.6542C203.239 72.5548 203.387 73.1837 204.353 73.4789C204.421 73.5003 204.483 73.5367 204.548 73.5623C207.445 74.7346 207.327 74.9185 205.134 76.9635C203.473 78.5123 201.858 80.1145 200.213 81.6825C199.862 82.0226 199.554 82.4418 198.982 82.5017Z" fill="#FEC342"/>
<path d="M245.331 31.5971C244.351 31.595 243.089 31.3661 241.862 31.0067C240.961 30.7436 240.884 30.2815 241.552 29.6655C243.098 28.2408 245.74 28.474 247.049 30.1553C247.306 30.4869 247.64 30.8484 247.411 31.2976C247.179 31.7533 246.683 31.6142 246.278 31.6442C246.07 31.6613 245.854 31.6271 245.331 31.5971Z" fill="#F0EBD8"/>
<path d="M269.405 92.7931C269.232 92.6198 269.056 92.4444 268.883 92.2712C268.936 91.8348 269.172 91.5096 269.508 91.238C269.739 91.9867 269.739 91.9867 269.405 92.7931Z" fill="#B0B2AF"/>
<path d="M399.224 366.759C398.555 366.857 398.316 367.264 398.206 367.914C397.902 369.737 397.547 371.551 397.166 373.358C396.84 374.905 396.812 374.896 395.301 374.646C395.02 374.599 394.735 374.59 394.45 374.563C394.048 374.287 393.461 374.625 393.116 374.156L393.146 374.163C392.35 373.273 392.737 372.263 392.921 371.315C395.264 359.227 397.307 347.086 399.258 334.931C401.331 322.004 403.031 309.024 404.596 296.029C404.918 293.355 405.063 290.617 403.549 288.131C403.256 287.65 403.093 287.081 403.344 286.495C405.235 286.574 406.552 287.616 407.637 289.045C407.971 289.595 408.363 290.063 409.083 290.069C410.1 291.734 410.254 293.59 410.038 295.434C407.239 319.185 403.706 342.827 399.32 366.34C399.296 366.483 399.251 366.62 399.224 366.759Z" fill="#DC5227"/>
<path d="M403.346 286.499C405.879 289.428 405.825 292.889 405.376 296.42C404.723 301.569 404.067 306.718 403.376 311.863C402.645 317.29 401.928 322.719 401.099 328.131C400.076 334.807 398.93 341.466 397.859 348.136C396.461 356.844 394.829 365.51 393.148 374.167C392.557 374.18 391.964 374.19 391.373 374.203C390.482 373.159 390.996 372.015 391.202 370.937C394.444 353.847 397.347 336.702 399.778 319.48C400.921 311.366 402.014 303.244 402.922 295.098C403.519 289.731 401.641 287.256 396.377 286.277C389.574 285.008 382.756 283.825 375.944 282.595C374.961 282.418 373.965 282.277 373.113 281.695C372.592 281.216 372.061 280.803 371.301 280.691C370.541 280.58 369.736 280.415 369.425 279.528C369.618 278.963 369.986 278.946 370.44 279.203C371.852 279.369 373.263 279.536 374.674 279.703C376.843 280.368 379.109 280.505 381.323 280.929C386.75 281.969 392.187 282.974 397.639 283.868C399.827 284.23 401.695 285.079 403.346 286.499Z" fill="#191B1E"/>
<path d="M361.624 390.065C364.549 392.108 367.849 392.953 371.367 393.079C372.423 393.117 373.481 393.102 374.539 393.111C375.462 395.008 374.639 398.713 372.86 400.679C367.926 401.041 363.024 400.551 358.122 400.097C357.341 400.025 356.561 399.898 355.78 399.9C354.617 399.905 353.533 400.632 353.27 401.548C352.953 402.645 353.394 403.486 354.244 404.172C355.611 405.274 357.247 405.77 358.876 406.305C360.15 406.722 361.585 406.66 362.69 407.576C362.782 408.001 362.652 408.209 362.187 408.087C357.06 406.609 351.925 405.154 346.805 403.646C326.802 397.751 306.724 392.121 286.609 386.623C284.553 386.06 282.511 385.444 280.461 384.854C277.748 383.132 277.684 380.535 278.311 377.848C278.943 375.144 279.731 372.473 280.429 369.782C284.789 352.943 288.862 336.033 292.395 318.999C294.625 308.252 296.762 297.486 298.653 286.67C299.336 282.764 301.329 280.439 304.263 279.915C304.484 279.877 304.683 279.941 304.882 280.022C308.979 280.356 312.987 281.28 317.045 281.881C321.313 282.512 325.56 283.286 329.815 284.011C330.228 284.082 330.622 284.257 331.027 284.384C331.864 285.524 331.357 286.737 331.145 287.89C330.001 294.125 328.96 300.389 327.476 306.547C326.463 310.757 328.943 314.252 332.954 315.14C338.73 316.417 344.443 317.981 350.186 319.405C354.915 320.578 357.876 318.697 358.771 313.743C359.949 307.225 361.024 300.688 362.041 294.142C362.264 292.709 362.095 291.09 363.472 290.035C369.215 291.062 374.961 292.087 380.704 293.12C382.314 293.411 383.933 293.676 385.526 294.048C388.955 294.844 391.083 297.469 390.91 300.998C390.777 303.689 390.362 306.374 389.963 309.046C388.76 317.136 387.526 325.222 386.261 333.301C384.565 344.125 382.601 354.9 380.485 365.649C379.306 371.651 378.059 377.639 376.843 383.632C374.65 384.238 372.369 383.981 370.14 384.33C368.271 384.623 366.403 384.937 364.54 385.269C360.596 385.014 356.949 383.517 353.171 382.557C352.071 382.276 350.994 381.866 349.835 381.904C348.809 381.94 348.034 382.39 347.784 383.431C347.557 384.377 348.006 385.093 348.786 385.596C350.006 386.383 351.443 386.578 352.79 387.025C355.748 388.009 358.915 388.371 361.624 390.065Z" fill="#FFC442"/>
<path d="M363.472 290.037C362.352 296.844 361.239 303.651 360.112 310.457C359.857 312 359.609 313.548 359.277 315.076C358.391 319.153 355.039 321.318 350.985 320.347C344.546 318.804 338.12 317.213 331.706 315.574C327.918 314.605 325.875 311.311 326.607 307.433C328.055 299.747 329.552 292.067 331.027 284.386C333.94 284.544 336.768 285.246 339.627 285.727C346.966 286.961 354.285 288.294 361.611 289.597C362.237 289.708 362.851 289.89 363.472 290.037Z" fill="#F7F2DD"/>
<path d="M372.851 281.104C376.211 282.069 379.689 282.433 383.113 283.072C388.152 284.011 393.214 284.822 398.248 285.778C401.643 286.422 403.748 289.132 403.85 292.636C403.913 294.788 403.529 296.902 403.259 299.009C401.919 309.446 400.574 319.882 398.987 330.283C397.034 343.075 394.925 355.843 392.385 368.537C392.008 370.419 391.709 372.314 391.372 374.205C389.83 375.226 388.603 376.595 387.511 378.039C386.246 379.711 384.704 380.939 382.804 381.763C382.156 380.892 382.547 379.975 382.727 379.093C387.668 355.03 391.824 330.835 395.098 306.487C395.325 304.804 395.758 303.118 395.522 301.402C395.086 298.228 393.011 296.249 390.454 294.647C388.826 293.152 386.88 292.431 384.717 292.039C377.783 290.79 370.864 289.447 363.941 288.14C363.902 287.999 363.853 287.821 363.934 287.731C366.371 284.961 369.275 282.777 372.474 280.97C372.573 280.912 372.731 281.012 372.851 281.104Z" fill="#DC5227"/>
<path d="M304.88 280.024C301.901 281.109 300.025 283.128 299.449 286.3C298.115 293.635 296.803 300.972 295.398 308.292C294.488 313.035 293.436 317.752 292.438 322.477C289.123 338.2 285.333 353.809 281.324 369.369C280.703 371.779 280.224 374.239 279.397 376.578C278.333 379.583 278.564 382.293 280.461 384.854C276.255 383.987 274.44 380.43 275.534 376.451C278.266 366.513 280.765 356.517 283.174 346.499C286.881 331.098 290.143 315.6 293.203 300.059C294.149 295.252 295.134 290.446 295.798 285.596C296.355 281.541 299.899 278.43 304.88 280.024Z" fill="#CE5646"/>
<path d="M390.452 294.647C393.623 294.968 395.003 297.212 396.033 299.834C396.891 302.019 396.159 304.194 395.921 306.344C395.519 310.004 394.904 313.64 394.371 317.285C393.9 320.511 393.446 323.741 392.932 326.961C392.159 331.791 391.347 336.612 390.533 341.436C389.79 345.841 389.086 350.254 388.257 354.643C386.771 362.519 385.212 370.383 383.661 378.248C383.428 379.429 383.09 380.591 382.801 381.761C381.439 382.428 380.383 383.806 378.627 383.57C380.768 373.7 382.7 363.788 384.535 353.856C386.525 343.085 388.289 332.276 389.962 321.455C390.927 315.2 391.728 308.921 392.619 302.656C393.047 299.67 392.285 297.017 390.452 294.647Z" fill="#EF9206"/>
<path d="M372.851 281.104C369.834 283.391 366.817 285.68 363.939 288.142C359.097 287.308 354.255 286.486 349.415 285.635C343.593 284.612 337.772 283.569 331.952 282.533C331.862 282.234 331.931 281.934 332.175 281.782C335.43 279.729 338.498 277.327 342.302 276.278C343.569 275.523 344.888 275.53 346.317 275.799C348.308 276.176 350.295 276.646 352.341 276.7C358.229 276.788 363.868 278.332 369.549 279.635C370.489 280.011 371.498 280.041 372.479 280.225C372.986 280.324 373.243 280.589 372.851 281.104Z" fill="#DECADD"/>
<path d="M342.299 276.278C340.147 277.911 337.682 279.023 335.4 280.441C334.258 281.149 333.102 281.838 331.952 282.535C324.812 281.367 317.671 280.219 310.54 279.01C309.499 278.835 308.394 278.912 307.422 278.381C307.214 277.701 307.627 277.262 308.105 276.965C311.673 274.734 315.313 272.676 319.699 272.61C320.05 272.606 320.41 272.567 320.724 272.785C323.919 272.935 327.024 273.722 330.179 274.159C333.826 274.663 337.453 275.301 341.087 275.9C341.498 275.964 341.895 276.148 342.299 276.278Z" fill="#DC5227"/>
<path d="M351.424 275.786C351.465 274.578 351.506 273.369 351.544 272.163C351.84 262.994 352.11 253.824 351.91 244.649C351.895 243.999 351.636 242.996 352.638 242.947C353.778 242.891 353.634 243.95 353.636 244.696C353.656 250.53 353.692 256.363 353.626 262.197C353.606 263.882 353.908 265.422 354.609 266.937C356.043 270.034 357.433 273.151 358.842 276.261C359.022 278.214 357.885 277.269 357.082 277.063C354.96 275.172 354.502 272.404 353.377 269.985C353.236 269.737 353.116 270.167 353.328 269.974C353.998 270.952 354.187 271.908 353.204 272.813C352.671 273.401 352.788 274.139 352.846 274.807C352.953 276.056 352.262 275.985 351.424 275.786Z" fill="#191B1E"/>
<path d="M357.005 276.64C357.691 276.856 358.491 277.628 358.843 276.257C359.487 277.106 360.425 277.333 361.408 277.493C364.239 277.951 367.066 278.422 369.892 278.903C370.085 278.935 370.256 279.1 370.438 279.203C370.096 279.252 369.762 279.325 369.545 279.635C366.49 279.414 363.502 278.73 360.494 278.212C357.77 277.744 354.994 277.521 352.337 276.7C352.71 276.623 353.08 276.539 353.294 276.171C354.684 275.13 355.847 275.863 357.005 276.64Z" fill="#191B1E"/>
<path d="M357.005 276.64C355.767 276.484 354.532 276.328 353.294 276.171C353.264 275.051 353.234 273.93 353.204 272.809C353.266 271.78 353.33 270.749 353.393 269.72C353.504 269.671 353.613 269.621 353.724 269.572C354.275 270.717 354.838 271.853 355.371 273.003C355.93 274.21 356.461 275.427 357.005 276.64Z" fill="#EC6E1D"/>
<path d="M362.187 408.087C362.354 407.916 362.523 407.745 362.69 407.576C363.543 407.785 364.221 408.444 365.125 408.523C364.005 409.328 363.136 408.436 362.187 408.087Z" fill="#F86237"/>
<path d="M399.223 366.759C398.322 366.335 398.643 365.582 398.758 364.917C399.619 360.019 400.51 355.122 401.369 350.224C403.099 340.351 404.654 330.452 405.986 320.518C407.091 312.276 408.144 304.025 409.228 295.779C409.425 294.277 409.395 292.79 408.879 291.357C408.697 290.85 408.618 290.435 409.087 290.074C413.121 289.477 417.149 289.244 421.22 289.894C423.597 290.275 425.227 291.411 426.417 293.505C430.379 300.472 431.403 307.961 430.574 315.794C429.614 324.856 426.696 333.416 423.736 341.958C420.779 350.493 417.665 358.977 415.541 367.775C415.063 369.756 414.864 371.807 414.106 373.912C409.836 369.833 404.778 367.769 399.223 366.759Z" fill="#F7F2DD"/>
<path d="M378.113 407.18C378.805 407.013 379.503 406.863 380.188 406.673C380.672 406.54 380.863 406.147 380.801 405.689C380.732 405.188 380.347 404.955 379.876 405.017C378.676 405.173 377.484 405.387 376.284 405.558C370.569 406.382 364.913 406.14 359.335 404.574C358.234 404.266 357.159 403.89 356.166 403.319C355.686 403.043 354.945 402.786 355.095 402.155C355.258 401.468 356.016 401.65 356.572 401.702C358.489 401.873 360.403 402.067 362.322 402.241C365.592 402.536 368.866 402.677 372.151 402.482C374.169 402.363 376.075 401.824 377.918 401.015C378.606 400.713 379.077 400.313 379.261 399.509C379.482 398.546 379.998 397.648 380.197 396.683C380.734 394.086 379.634 392.418 377.066 391.733C375.601 391.344 374.109 391.297 372.608 391.348C370.076 391.434 367.644 390.952 365.292 390.043C364.633 389.789 363.982 389.47 363.393 389.081C362.461 388.467 362.483 388.043 363.476 387.603C365.387 386.758 367.44 386.43 369.494 386.219C372.612 385.896 375.745 385.688 378.869 385.436C379.295 385.401 379.805 385.519 380.135 385.327C382.762 383.795 385.711 382.751 387.825 380.422C388.925 379.209 390.005 377.974 391.08 376.738C391.647 376.086 392.315 375.904 393.174 376.004C398.442 376.627 403.189 380.984 404.275 386.21C404.502 387.303 404.284 388.336 404.027 389.37C402.116 397.102 397.343 402.591 390.531 406.463C389.73 406.919 388.945 407.422 388.026 407.627C387.857 407.727 387.683 407.817 387.505 407.901C387.392 407.997 387.259 408.036 387.111 408.021C386.649 408.175 386.557 407.956 386.647 407.556L386.64 407.561C386.827 407.467 386.934 407.28 387.099 407.161C386.914 405.717 386.741 405.558 385.505 406.048C383.687 406.771 381.876 407.49 379.897 407.629C379.246 407.708 378.464 408.294 378.113 407.18Z" fill="#F7F2DD"/>
<path d="M361.624 390.065C358.504 389.675 355.605 388.441 352.581 387.69C351.341 387.382 350.105 387.038 348.908 386.599C347.313 386.015 346.561 384.537 346.985 383.053C347.405 381.585 348.686 380.653 350.277 381.083C355.061 382.377 359.915 383.44 364.543 385.273C363.956 385.496 363.367 385.714 362.783 385.945C360.894 386.696 360.07 388.422 361.624 390.065Z" fill="#F6F2DD"/>
<path d="M376.457 393.504C376.055 395.267 375.659 397.03 375.245 398.79C375.096 399.428 375.145 399.903 375.946 399.945C375.033 400.677 373.802 400.072 372.86 400.681C373.618 398.202 374.273 395.701 374.539 393.113C375.179 393.241 375.817 393.374 376.457 393.504Z" fill="#191B1E"/>
<path d="M377.327 408.117C374.755 408.75 372.207 408.649 369.562 407.982C370.147 407.336 370.774 407.631 371.327 407.582C371.881 407.533 372.449 407.61 373.01 407.631C374.389 408.333 375.986 407.071 377.327 408.117Z" fill="#79808C"/>
<path d="M377.327 408.117C376.549 408.115 375.77 408.149 374.995 408.102C374.314 408.061 373.551 408.288 373.012 407.631C374.712 407.481 376.414 407.33 378.115 407.18C378.597 407.779 379.323 407.415 379.901 407.631C379.113 408.175 378.19 407.988 377.327 408.117Z" fill="#CDCCC2"/>
<path d="M386.649 407.558C386.803 407.712 386.959 407.867 387.113 408.023C385.82 408.803 384.402 409.191 382.914 409.349C382.492 409.563 382.383 409.36 382.415 408.972C383.824 408.5 385.237 408.029 386.649 407.558Z" fill="#C3C3BC"/>
<path d="M379.408 409.33C379.706 409.332 380.002 409.336 380.299 409.338C380.516 409.608 380.997 409.375 381.141 409.781C380.34 410.301 379.456 410.13 378.586 410.089C378.464 410.023 378.417 409.946 378.445 409.862C378.475 409.772 378.507 409.728 378.543 409.728L378.539 409.73C378.766 409.462 379.156 409.548 379.408 409.33Z" fill="#586277"/>
<path d="M381.139 409.781C380.854 409.64 380.475 409.683 380.297 409.338C381.002 409.216 381.706 409.094 382.411 408.97C382.578 409.096 382.745 409.221 382.91 409.347C382.392 409.772 381.749 409.713 381.139 409.781Z" fill="#B5B6B3"/>
<path d="M393.118 374.158C393.589 374.21 394.073 374.216 394.452 374.565C393.94 374.646 393.444 374.684 393.118 374.158Z" fill="#292F62"/>
<path d="M379.409 409.33C379.186 409.612 378.888 409.728 378.537 409.73C378.734 409.394 379.045 409.306 379.409 409.33Z" fill="#323F5F"/>
<path d="M387.102 407.163C387.065 407.431 386.915 407.566 386.643 407.564C386.795 407.429 386.949 407.296 387.102 407.163Z" fill="#C3C3BC"/>
<path d="M387.507 407.901C387.608 407.67 387.779 407.578 388.028 407.627C387.923 407.845 387.756 407.952 387.507 407.901Z" fill="#C3C3BC"/>
<path d="M378.541 409.73C378.55 409.852 378.565 409.972 378.584 410.092C378.4 410.079 378.318 409.993 378.378 409.848C378.4 409.794 378.486 409.766 378.541 409.73Z" fill="#323F5F"/>
<path d="M54.7777 284.366C54.4201 284.366 54.0625 284.386 53.707 284.364C52.6748 284.3 51.5677 284.647 50.7304 283.641C49.6425 282.339 48.998 280.86 48.8759 279.188C48.8052 278.225 49.4477 277.827 50.3578 277.752C52.0624 277.613 53.7627 277.438 55.4672 277.288C59.8679 276.903 64.2664 276.479 68.6713 276.161C70.6436 276.017 71.9327 277.008 72.3417 278.7C72.7379 280.332 72.1747 281.524 70.6029 282.118C68.7977 282.801 66.8875 283.124 64.9902 283.4C61.6025 283.889 58.1976 284.21 54.7777 284.366Z" fill="#F7F2DD"/>
<path d="M51.4393 275.78C48.6383 275.915 47.1372 275.074 46.3256 273.196C45.5696 271.446 46.1007 270.105 47.9038 269.457C48.7689 269.147 49.6898 268.973 50.5999 268.811C55.0369 268.009 59.5232 267.829 64.0181 267.936C65.9625 267.983 66.9776 268.971 67.1724 270.73C67.3245 272.109 67.0075 272.695 65.6713 273.162C63.6498 273.865 61.5576 274.293 59.4547 274.685C56.6494 275.207 53.8184 275.513 51.4393 275.78Z" fill="#F7F2DD"/>
<path d="M60.6882 292.277C59.4033 292.277 58.1163 292.324 56.8336 292.266C54.583 292.164 52.4544 289.633 52.7006 287.415C52.8034 286.48 53.2852 286.099 54.2639 286.095C57.8379 286.084 61.3863 285.697 64.9175 285.19C66.5429 284.957 68.1489 284.672 69.8043 284.754C70.9649 284.809 71.8665 285.286 72.5539 286.176C73.7766 287.761 74.1814 289.896 71.2476 290.777C67.7956 291.813 64.2601 292.138 60.6882 292.277Z" fill="#F7F2DD"/>
<path d="M63.6945 298.912C63.0542 298.912 62.3989 298.82 61.78 298.93C59.842 299.272 58.0389 297.385 57.5079 295.747C57.1353 294.6 57.4136 294.187 58.6514 294.102C60.1375 293.999 61.628 293.954 63.1184 293.894C65.3948 293.8 67.6347 293.483 69.8597 292.989C71.5193 292.621 72.6649 293.171 73.4487 294.549C74.2946 296.033 73.9391 297.116 72.303 297.723C70.2194 298.497 68.0116 298.641 65.823 298.846C65.1185 298.912 64.4033 298.857 63.6945 298.857C63.6945 298.876 63.6945 298.895 63.6945 298.912Z" fill="#F6F1DC"/>
<path d="M317.639 216.762C314.643 216.762 311.625 216.98 308.653 216.708C304.473 216.327 300.265 216.608 296.1 215.968C295.061 215.808 294.605 215.53 294.569 214.426C294.464 211.136 294.736 207.895 295.535 204.697C295.809 203.6 296.308 203.031 297.588 203.048C303.225 203.12 308.876 202.84 314.493 203.176C318.945 203.443 323.416 203.685 327.862 204.244C329.958 204.507 332.093 204.736 334.228 204.804C336.134 204.866 336.751 205.309 336.899 207.14C337.087 209.472 337.599 211.778 337.425 214.148C337.284 216.058 337.164 216.389 335.363 216.304C332.357 216.161 329.404 216.772 326.414 216.764C323.489 216.757 320.564 216.764 317.639 216.762Z" fill="#B22828"/>
<path d="M338.233 31.8517C338.272 37.6552 333.509 42.4639 327.665 42.5217C321.872 42.5794 317.016 37.7835 316.984 31.9715C316.951 26.1617 321.729 21.3337 327.547 21.2973C333.348 21.2588 338.192 26.044 338.233 31.8517Z" fill="#191B1E"/>
<path d="M346.854 33.732C348.18 34.0636 348.623 34.9748 348.629 36.2647C348.636 37.668 348.315 38.9536 347.452 40.0552C346.794 40.8959 347.09 41.3558 347.983 41.5569C349.441 41.8885 350.585 42.6436 351.473 44.1345C352.88 42.9003 354.201 41.743 355.523 40.5857C356.324 39.882 357.116 39.1654 357.925 38.4723C358.369 38.0937 358.861 37.7129 359.409 38.2776C359.947 38.8338 359.621 39.298 359.174 39.7322C358.771 40.1237 358.388 40.5387 357.998 40.943C355.874 42.4917 354.032 44.3592 351.947 46.1368C353.677 47.9037 353.78 49.8011 352.645 51.7926C352.336 52.3338 351.959 53.0205 351.186 52.6525C350.392 52.2739 350.653 51.63 351.017 51.0332C351.201 50.7316 351.373 50.4107 351.469 50.0749C351.949 48.4128 351.216 47.6448 349.531 48.0213C349.323 48.0684 349.131 48.1732 348.923 48.2139C348.482 48.2994 348.053 48.2609 347.816 47.8181C347.58 47.3775 347.736 46.9881 348.105 46.6951C348.381 46.4747 348.713 46.3207 348.976 46.0854C349.944 45.2169 349.859 44.4126 348.717 43.7367C348.417 43.5591 348.064 43.4629 347.726 43.3666C347.385 43.2703 346.854 43.3452 346.709 43.1377C345.544 41.4499 343.597 41.8649 342.019 41.3109C341.751 41.2168 341.49 41.0949 341.248 40.9494C340.263 40.3547 339.203 39.7322 339.181 38.4402C339.16 37.1738 340.289 36.7054 341.212 36.2027C343.019 35.2165 344.856 34.286 346.854 33.732Z" fill="#191B1E"/>
<path d="M336.284 59.7929C332.658 59.5148 329.986 57.6003 328.502 54.1863C327.02 50.7808 327.318 47.478 329.804 44.5902C331.742 42.3377 335.089 41.5804 337.83 42.6072C338.235 42.7591 338.663 42.8789 338.89 43.2682C339.205 43.8051 339.059 44.2244 338.46 44.4383C338.025 44.5923 337.62 44.3912 337.209 44.2928C333.008 43.3067 329.821 45.5849 329.44 49.846C329.164 52.9499 331.29 56.3832 334.198 57.5297C337.179 58.7041 340.042 57.6174 341.622 54.7125C341.969 54.075 342.072 52.9114 343.151 53.4183C344.357 53.9852 343.486 54.9457 343.147 55.6045C341.762 58.3105 339.481 59.6753 336.284 59.7929Z" fill="#191B1E"/>
<path d="M243.678 79.0108C243.665 82.6067 242.678 85.4474 240.614 87.8668C234.905 94.5622 224.895 92.7654 221.848 84.5169C219.955 79.3916 221.486 73.3657 225.553 69.9388C230.769 65.5408 238.243 66.7194 241.813 72.5271C243.113 74.6342 243.759 76.938 243.678 79.0108Z" fill="#191B1E"/>
<path d="M245.719 104.357C245.704 110.511 241.95 115.412 236.729 116.45C233.328 117.126 229.221 115.378 227.424 112.499C227.11 111.996 226.799 111.489 227.403 110.995C228.03 110.481 228.439 110.914 228.825 111.373C228.962 111.536 229.08 111.716 229.221 111.876C232.474 115.577 237.172 115.814 240.706 112.454C244.179 109.151 244.929 103.371 242.41 99.3003C239.941 95.313 235.483 94.2626 231.506 96.7333C231.086 96.9943 230.686 97.2981 230.24 97.5077C229.885 97.6767 229.532 97.497 229.298 97.2061C229.046 96.8916 229.086 96.5023 229.341 96.2328C229.679 95.8755 230.071 95.5568 230.48 95.2787C234.5 92.5492 239.646 93.2081 242.845 96.866C244.813 99.1078 245.625 101.782 245.719 104.357Z" fill="#191B1E"/>
<path d="M218.859 78.4824C218.767 79.7637 218.687 81.0344 218.48 82.3072C218.141 84.3821 217.381 86.1041 215.454 87.1886C214.706 87.6079 214.137 88.2796 213.723 89.0454C212.811 90.7332 213.392 92.3418 215.16 93.0413C215.355 93.1183 215.578 93.129 215.788 93.1653C216.357 93.2616 216.728 93.5739 216.649 94.1707C216.546 94.9515 215.914 94.9472 215.336 94.8766C214.918 94.8274 214.494 94.7162 214.111 94.5451C211.976 93.5953 211.008 91.2594 211.777 89.0176C212.261 87.6079 213.169 86.4891 214.398 85.7405C215.891 84.8313 216.471 83.5286 216.736 81.8964C217 80.2664 217.06 78.6407 217.051 77.0021C217.049 76.5059 217.038 76.0053 217.081 75.5112C217.113 75.1176 217.39 74.8502 217.769 74.8138C218.244 74.7689 218.644 75.0341 218.694 75.5005C218.799 76.4909 218.809 77.4877 218.859 78.4824Z" fill="#191B1E"/>
<path d="M261.122 86.5533C261.141 84.1703 261.726 82.3735 263.049 80.8889C264.357 79.4215 266.351 79.3915 267.52 80.737C267.863 81.1306 268.133 81.5413 267.717 82.0462C267.319 82.5296 266.919 82.4055 266.415 82.1424C265.051 81.4344 264.634 81.5349 263.895 82.7606C262.987 84.2709 262.672 85.9137 263.032 87.6571C263.103 88.0015 263.287 88.3224 263.34 88.6668C263.409 89.1096 263.306 89.5288 262.807 89.6807C262.344 89.8219 261.963 89.6465 261.732 89.2358C261.19 88.2796 261.085 87.2293 261.122 86.5533Z" fill="#191B1E"/>
<path d="M297.603 349.777C298.931 350.072 300.674 350.433 302.405 350.846C313.007 353.379 323.607 355.924 334.207 358.468C334.483 358.534 334.753 358.63 335.027 358.707C337.77 359.486 338.725 361.026 338.104 363.839C337.121 368.286 336.094 372.725 335.07 377.166C334.622 379.108 334.168 381.048 333.67 382.978C332.839 386.191 331.352 387.076 328.19 386.24C316.133 383.053 304.081 379.859 292.029 376.655C288.976 375.842 288.066 374.302 288.811 371.275C290.31 365.193 291.811 359.112 293.327 353.034C293.903 350.726 295.092 349.742 297.603 349.777Z" fill="#F7F2DD"/>
<path d="M351.927 371.245C352.186 371.309 352.602 371.405 353.013 371.516C357.754 372.802 362.495 374.09 367.234 375.384C367.714 375.514 368.211 375.632 368.646 375.857C370.016 376.563 370.579 378.054 370.067 379.478C369.541 380.948 368.262 381.686 366.671 381.258C361.515 379.872 356.364 378.458 351.231 376.99C349.465 376.486 348.717 375.26 348.951 373.638C349.156 372.199 350.319 371.211 351.927 371.245Z" fill="#F7F2DD"/>
<path d="M331.873 30.5853C331.83 30.8228 331.822 30.9682 331.777 31.1008C330.954 33.5245 330.123 35.9481 329.301 38.3717C329.177 38.7375 328.948 39.0733 328.575 39.0263C328.215 38.9814 328.044 38.6177 327.986 38.2284C327.838 37.2444 327.637 36.2668 327.507 35.2785C327.38 34.3095 326.926 33.9908 325.922 34.102C323.286 34.3929 323.281 34.3502 324.063 31.7404C324.676 29.6976 325.282 27.6504 325.9 25.6076C326.023 25.2033 326.162 24.7412 326.714 24.8075C327.149 24.8589 327.194 25.291 327.277 25.6183C327.539 26.6515 327.815 27.6847 327.999 28.735C328.168 29.6912 328.633 30.0976 329.614 29.9457C330.104 29.8708 330.609 29.8815 331.108 29.8837C331.625 29.8858 331.884 30.1575 331.873 30.5853Z" fill="#F5F0DC"/>
<path d="M230.088 82.2687C230.133 81.7125 229.938 81.4344 229.593 81.274C229.339 81.1563 229.062 81.0729 228.79 80.9959C225.938 80.1958 225.696 79.9498 228.127 77.599C229.707 76.0695 231.206 74.4544 232.744 72.8801C233.09 72.525 233.431 72.1613 233.81 71.8404C234.024 71.6586 234.309 71.5752 234.6 71.7057C234.994 71.8854 235.061 72.2255 234.968 72.5913C234.639 73.8961 234.275 75.1946 233.953 76.5016C233.583 78.0161 233.596 78.0182 235.076 78.7263C235.14 78.7562 235.2 78.7947 235.264 78.8247C237.665 79.9456 237.667 79.9499 235.825 81.7253C233.986 83.4987 232.146 85.272 230.298 87.0389C229.945 87.3769 229.566 87.8218 229.013 87.5052C228.431 87.1694 228.718 86.6539 228.865 86.1854C229.294 84.8335 229.711 83.4794 230.088 82.2687Z" fill="#FEC342"/>
</svg>
