<svg width="652" height="526" viewBox="0 0 652 526" fill="none" xmlns="http://www.w3.org/2000/svg">
<path d="M469.118 441.628C469.769 443.299 470.847 444.728 471.787 446.232C474.273 450.215 476.849 454.138 479.183 458.217C482.207 463.499 481.851 468.893 479.603 474.216C477.622 478.904 473.474 480.718 468.712 481.341C466.309 481.655 463.893 481.771 461.465 481.51C459.915 481.343 459.855 481.42 459.996 482.926C460.291 486.113 460.67 489.292 460.975 492.477C461.499 498 462.037 503.524 462.486 509.053C462.878 513.875 463.159 518.705 463.48 523.533C463.512 524.023 463.641 524.526 463.403 525.003C427.57 525.003 391.736 525.003 355.903 525.003C354.766 524.183 354.749 522.96 354.725 521.74C354.674 518.823 354.297 515.935 353.836 513.06C353.693 512.166 353.592 511.22 352.684 510.534C351.843 511.058 351.894 511.984 351.744 512.762C351.117 516.044 350.716 519.36 350.258 522.667C350.13 523.595 350.029 524.521 349.048 525.003C311.931 525.003 274.811 525.003 237.694 525.003C238.323 521.777 238.259 518.489 238.52 515.231C239.253 506.073 239.961 496.916 240.981 487.784C241.146 486.302 241.272 484.817 241.428 483.226C240.069 482.798 238.649 482.798 237.253 482.671C233.115 482.295 229.077 481.463 225.194 479.978C217.055 476.866 211.294 471.225 207.722 463.33C206.932 461.582 206.324 459.753 205.621 457.967C203.461 452.478 204.296 447.372 207.544 442.552C211.136 437.226 214.198 431.606 216.776 425.722C221.087 415.886 223.847 405.603 225.697 395.055C227.261 386.144 228.147 377.144 229.167 368.16C229.271 367.242 229.451 366.333 229.597 365.42C229.736 365.17 229.76 364.898 229.777 364.618C229.815 364.027 229.563 363.234 230.413 363.058C231.409 362.855 231.732 363.584 231.895 364.399C232.107 367.264 231.464 370.064 231.177 372.887C229.901 385.442 228.312 397.949 224.933 410.153C221.716 421.769 217.044 432.742 210.378 442.828C208.96 444.972 207.583 447.151 207.255 449.785C206.463 456.185 209.236 461.058 215.277 463.593C220.768 465.896 226.539 467.214 232.43 468.004C247.66 470.044 262.736 469.4 277.582 465.238C282.293 463.918 286.193 461.37 288.555 456.972C290.902 452.602 291.542 447.849 291.232 442.933C290.716 434.762 290.075 426.601 289.172 418.461C288.15 409.259 287.578 400.024 287.124 390.781C287.049 389.237 286.523 387.371 288.75 386.666C292.172 386.839 295.45 387.881 298.857 388.234C306.798 389.057 314.633 388.366 322.447 387.051C323.784 386.826 325.111 386.578 326.471 386.591C327.912 386.244 329.375 386.09 330.855 386.013C332.501 385.928 334.028 385.448 335.379 384.467C339.572 383.108 343.913 382.802 348.252 383.085C354.074 383.463 359.852 384.351 365.627 385.181C366.051 385.241 366.462 385.363 366.839 385.57C367.724 386.186 367.726 387.149 367.76 388.065C368.257 400.914 372.107 412.791 377.928 424.173C381.784 431.718 385.69 439.241 389.356 446.888C391.395 451.141 394.515 454.495 399.79 455.5C407.651 457 415.542 458.155 423.504 458.775C440.074 460.067 456.298 463.032 472.08 468.297C472.757 468.523 473.431 468.752 474.123 468.928C477.14 469.693 478.841 468.38 478.785 465.242C478.755 463.58 478.194 462.042 477.453 460.553C474.588 454.794 470.737 449.631 467.547 444.069C467.013 443.141 466.045 442.227 466.866 440.967C467.806 440.541 468.566 440.732 469.118 441.628Z" fill="#191B1E"/>
<path d="M326.696 387.198C323.469 387.692 320.25 388.246 317.015 388.666C307.41 389.913 297.875 389.769 288.493 387.038C287.204 386.92 287.088 385.919 287.144 385.008C287.527 378.719 287.675 372.402 288.996 366.207C289.108 365.867 289.264 365.52 289.547 365.309C292.363 363.197 292.133 360.493 291.086 357.614C281.084 330.15 270.471 302.925 259.228 275.942C252.949 260.875 246.463 245.894 240.157 230.839C238.565 227.04 236.503 224.266 232.034 224.186C231.831 224.067 231.702 223.891 231.646 223.662C233.071 223.104 234.565 223.532 236.015 223.359C236.111 223.354 236.208 223.35 236.304 223.344C236.794 223.239 237.289 223.19 237.79 223.194C238.576 223.213 239.351 223.102 240.135 223.098C244.75 223.078 246.893 224.443 248.709 228.681C252.318 237.1 255.995 245.492 259.511 253.95C259.965 255.159 260.436 256.361 261.016 257.516C272.075 283.806 282.782 310.233 292.752 336.957C293.275 338.36 293.812 339.757 294.183 341.171C294.178 341.132 294.228 341.201 294.228 341.201C294.228 341.201 294.241 341.064 294.241 341.027C295.735 333.812 297.493 326.689 298.795 319.467C300.327 310.979 301.239 302.44 301.631 293.813C302.02 285.29 302.609 276.77 303.147 268.252C303.603 261.009 304.076 253.768 304.588 246.53C305.16 238.439 305.858 230.356 306.702 222.287C307.873 211.097 309.177 199.922 311.426 188.885C312.507 183.577 313.704 178.296 315.991 173.337C316.649 171.913 317.338 170.505 318.381 169.309C318.542 169.113 318.728 168.941 318.933 168.792C319.259 168.595 319.614 168.507 319.989 168.492C321.674 168.608 321.886 169.756 321.724 171.081C321.313 174.409 321.178 177.789 321.206 181.098C321.328 196.228 322.197 211.302 327.139 225.81C328.576 230.028 330.418 234.018 333.705 237.179C336.281 239.657 339.232 240.499 342.738 239.58C346.834 238.506 349.967 235.945 352.961 233.173C356.743 229.671 359.97 225.682 362.944 221.48C371.996 208.695 378.99 194.895 383.545 179.889C384.166 177.842 384.648 175.757 385.005 173.645C385.71 169.498 387.093 168.811 391.001 170.676C392.008 171.72 392.239 173.079 392.417 174.413C393.357 181.432 393.368 188.478 392.834 195.526C392.588 198.793 392.569 202.066 392.353 205.336C391.614 216.56 390.624 227.765 389.791 238.981C389.153 247.571 388.53 256.162 387.909 264.753C387.063 276.469 386.631 288.208 385.753 299.92C384.864 311.773 382.341 323.324 378.521 334.574C373.874 348.253 370.471 362.209 368.857 376.577C368.619 378.697 368.298 380.813 368.249 382.956C368.223 384.086 368.216 385.275 367.069 385.994C362.809 385.733 358.61 384.98 354.383 384.454C348.494 383.72 342.626 383.619 336.772 384.725C336.286 384.817 335.817 384.991 335.339 385.125C332.176 385.684 329.028 386.199 325.842 385.179C321.7 383.85 319.068 380.081 319.199 375.523C319.317 371.347 321.683 368.614 326.15 367.493C329.671 366.609 330.919 364.804 330.274 361.095C329.664 357.584 328.658 354.153 327.88 350.675C325.711 340.989 323.981 331.228 323.914 321.275C323.842 310.145 326.932 299.738 331.707 289.783C332.786 287.532 333.731 285.22 334.742 282.95C329.701 292.824 325.261 302.883 324.075 314.109C322.788 326.289 324.929 338.116 327.431 349.924C328.095 353.064 328.857 356.181 329.645 359.291C329.981 360.613 330.163 361.95 330.03 363.317C329.846 365.217 328.928 366.517 327.011 367.005C326.735 367.075 326.456 367.138 326.18 367.21C321.807 368.346 319.402 370.761 319.03 374.4C318.529 379.29 320.486 382.995 324.508 385.07C325.386 385.53 327.103 385.341 326.696 387.198Z" fill="#F7F2DD"/>
<path d="M390.727 170.854C389.669 170.693 388.603 170.582 387.558 170.36C386.551 170.146 386.121 170.486 386.031 171.5C385.836 173.703 385.363 175.861 384.8 177.996C381.641 190.005 376.401 201.12 370.135 211.779C365.681 219.356 360.696 226.554 354.432 232.788C351.997 235.211 349.38 237.415 346.316 239.015C344.076 240.185 341.718 240.972 339.142 240.726C336.69 240.493 334.69 239.319 332.968 237.614C330.752 235.421 329.251 232.762 327.988 229.953C325.458 224.328 324.011 218.385 322.949 212.344C320.666 199.375 320.092 186.305 320.844 173.168C320.897 172.244 320.951 171.309 321.133 170.407C321.383 169.168 320.696 168.946 319.732 168.92C319.469 168.822 319.248 168.871 319.083 169.11L319.116 169.1C316.799 169.47 314.46 169.617 312.122 169.741C299.247 170.42 286.812 173.13 275 178.272C269.734 180.565 265.976 184.946 262.245 189.173C253.523 199.056 246.433 210.077 239.889 221.47C239.285 222.52 238.778 223.69 237.249 223.594C236.825 223.54 236.345 223.748 235.994 223.335L236.015 223.354C242.973 210.796 250.641 198.718 260.072 187.834C262.552 184.974 265.237 182.317 268.109 179.845C270.514 177.774 273.18 176.178 276.126 175.008C284.516 171.673 293.23 169.572 302.132 168.197C306.933 167.455 311.781 166.798 316.621 167.055C322.034 167.341 327.247 166.49 332.515 165.532C344.528 163.346 356.608 162.896 368.718 164.766C370.334 165.016 371.994 165.241 373.523 165.784C378.208 167.45 383.138 167.791 387.973 168.636C389.427 168.89 390.886 169.185 392.453 169.138C392.387 167.915 391.824 166.982 391.547 165.97C390.965 163.842 390.32 161.728 389.821 159.581C389.627 158.744 389.318 158.34 388.451 158.295C387.89 158.265 387.333 158.077 386.778 157.946C379.41 156.194 374.534 150.134 374.36 142.525C374.227 136.683 375.686 131.248 378.532 126.161C380.067 123.417 381.915 120.884 383.772 118.353C385.459 116.056 387.166 113.767 388.757 111.401C390.511 108.791 391.899 105.989 392.811 102.958C393.888 99.3751 393.914 95.8134 392.916 92.2154C392.076 89.1907 390.858 86.2986 389.832 83.3402C388.935 80.7561 389.62 78.7283 391.644 77.9475C393.834 77.1025 395.914 78.4117 396.708 80.5743C397.663 83.1755 398.993 85.6355 400.066 88.196C403.163 95.5952 403.064 103.029 400.212 110.479C398.676 114.494 396.556 118.197 394.267 121.817C392.781 124.165 391.235 126.482 389.892 128.912C387.832 132.645 386.571 136.632 386.729 140.962C386.787 142.508 387.153 143.916 388.721 144.609C389.438 144.357 389.262 143.762 389.365 143.319C390.423 138.711 392.498 134.576 395.567 131.028C398.869 127.207 401.389 123.074 403.068 118.255C405.518 111.222 410.082 105.585 416.028 101.082C417.048 100.31 418.082 99.5697 418.983 98.6328C420.112 97.4605 421.703 97.0969 423.241 96.7889C425.054 96.4252 426.894 96.1942 428.723 95.9075C429.012 95.6252 429.307 95.5696 429.599 95.8583C429.408 95.5075 428.945 95.7878 428.695 95.5268C425.583 94.7289 422.665 93.4647 419.909 91.7341C418.838 93.3812 418.38 95.0883 418.069 96.8466C418.009 97.191 418.069 97.5632 417.804 97.852C417.594 98.0809 417.322 98.1707 417.035 98.1173C416.542 98.0253 416.317 97.668 416.322 97.1974C416.334 95.4519 416.908 93.8454 417.581 92.2668C418.3 90.5768 418.307 90.579 416.945 89.3062C414.831 87.3318 414.825 87.3254 412.801 89.4067C411.206 91.0475 409.73 92.7844 408.698 94.8465C408.403 95.4348 408.116 96.1771 407.325 95.7877C406.447 95.3556 406.859 94.5984 407.171 93.9502C407.921 92.3972 408.936 91.0175 410.082 89.7447C411.034 88.688 412.017 87.6463 413.08 86.6986C413.763 86.089 413.771 85.6248 413.268 84.9125C412.615 83.9841 412.077 82.9744 411.373 81.8022C409.666 82.6856 408.255 83.9178 406.946 85.2847C406.503 85.7467 406.092 86.243 405.698 86.7478C405.31 87.2462 404.831 87.6291 404.255 87.2206C403.516 86.6943 403.946 86.074 404.364 85.5713C405 84.8055 405.64 84.029 406.366 83.3509C407.251 82.5273 408.197 81.7615 409.167 81.0428C410.604 79.9775 410.621 80.0053 410.099 78.3753C409.114 75.3014 408.482 72.1697 408.64 68.9268C408.707 67.5792 408.765 66.1973 409.103 64.9053C409.452 63.5662 409.18 62.4281 408.754 61.1896C406.987 56.0728 405.456 50.8876 404.531 45.5419C404.24 43.8542 404.034 42.1557 404.201 40.4423C404.398 38.4122 405.225 37.548 407.253 37.2165C408.687 36.9812 410.09 37.1737 411.473 37.5908C415.382 38.7673 418.707 40.9685 421.684 43.6595C423.069 44.9109 424.097 45.2061 425.902 44.3098C429.905 42.3225 434.258 41.3942 438.745 41.5931C440.674 41.6787 441.835 41.2744 442.638 39.3449C443.595 37.0453 445.147 35.041 446.981 33.3083C447.972 32.3713 449.047 31.5649 450.405 31.2055C452.313 30.7007 453.381 31.0943 454.349 32.8034C455.231 34.365 455.722 36.0806 456.167 37.8047C456.328 38.4251 456.536 39.0411 456.615 39.67C456.921 42.1642 457.816 43.8135 460.489 44.9579C464.981 46.8831 466.943 52.1133 465.585 56.8664C465.236 58.09 465.153 59.1724 465.654 60.3532C466.243 61.7351 466.506 63.2325 466.665 64.7106C466.793 65.8935 467.313 66.0604 468.331 65.9299C471.042 65.5769 473.738 65.7117 476.404 66.3534C477.794 66.6871 479.147 67.1342 480.432 67.7588C481.089 68.0797 482.188 68.3086 481.751 69.3354C481.291 70.4178 480.428 69.7076 479.762 69.3953C476.382 67.8145 472.83 67.2904 469.132 67.6134C469.061 67.6198 468.988 67.6177 468.917 67.6284C468.296 67.7246 467.459 67.5278 467.157 68.161C466.727 69.0658 466.874 70.1226 466.973 71.1023C467.022 71.605 467.639 71.513 468.046 71.575C471.515 72.0991 474.879 72.9804 478.078 74.45C479.573 75.1367 481.014 75.9132 482.286 76.9656C482.717 77.3229 483.25 77.7443 482.785 78.386C482.252 79.1219 481.702 78.7304 481.149 78.3218C477.263 75.4468 472.761 74.1741 468.089 73.3676C467.403 73.25 466.716 73.0318 466.423 74.0949C465.9 75.9773 465.855 76.1207 467.071 76.6726C469.845 77.9325 472.243 79.678 474.155 82.0546C474.596 82.6043 474.952 83.2332 475.275 83.8621C475.444 84.1916 475.316 84.5488 474.991 84.7991C474.569 85.1221 474.162 85.0237 473.847 84.6878C473.558 84.3798 473.374 83.9777 473.123 83.6333C471.256 81.077 468.491 79.0769 465.399 78.0694C460.532 88.6003 451.889 93.9973 440.747 95.9396C440.451 96.284 439.993 95.9632 439.661 96.1814C440.49 96.1963 441.218 96.5985 442.01 96.7076C444.537 97.1867 447.028 97.7985 449.347 98.9472C451.805 100.164 453.231 101.966 453.606 104.864C454.197 109.446 455.133 113.985 455.827 118.563C458.429 135.736 457.651 152.637 452.133 169.22C451.032 172.524 450.203 175.919 449.259 179.276C449.165 179.607 449.139 179.958 449.101 180.185C452.077 182.086 455.268 183.274 458.401 184.596C461.395 185.858 463.902 187.862 466.198 190.14C472.346 196.243 477.607 203.075 482.593 210.122C498.872 233.126 512.162 257.792 523.331 283.622C525.676 289.042 527.967 294.489 529.92 300.07L530.023 300.249C530.079 300.459 530.135 300.666 530.19 300.876C528.822 301.419 528.107 300.45 527.321 299.642C523.792 291.391 520.584 283.004 516.736 274.886C511.149 263.099 505.326 251.435 498.81 240.127C491.008 226.589 482.571 213.465 472.77 201.268C469.384 197.054 466.018 192.786 461.643 189.479C460.045 188.271 458.345 187.293 456.178 186.424C456.728 188.112 456.883 189.58 456.805 191.066C456.673 193.563 455.431 194.669 452.919 194.429C450.919 194.239 449.019 193.599 447.126 192.955C444.965 192.221 442.852 191.355 440.702 190.591C438.667 189.871 437.772 188.489 437.864 186.356C437.918 185.147 437.927 183.932 437.841 182.724C437.702 180.775 433.971 179.068 432.331 180.17C431.646 180.63 431.781 181.301 431.883 181.907C432.374 184.824 430.993 186.685 428.526 187.935C424.735 189.856 420.727 191.083 416.497 191.518C414.611 191.712 412.773 191.533 411.377 189.98C410.647 189.167 409.702 189.319 408.779 189.479C403.608 190.378 399.824 188.431 396.967 184.093C395.004 181.111 393.46 178.05 393.342 174.439C393.273 172.597 392.13 171.66 390.727 170.854Z" fill="#191B1E"/>
<path d="M147.203 288.48C139.002 288.702 130.815 289.222 122.633 289.815C120.986 289.934 119.337 289.907 117.731 289.588C113.21 288.694 110.24 285.998 108.767 281.641C107.869 278.989 107.645 276.206 107.231 273.465C106.615 269.38 106.201 265.266 105.925 261.142C105.79 259.12 105.925 258.99 107.974 258.842C114.161 258.397 120.35 257.961 126.611 257.516C126.74 256.686 126.23 256.049 125.93 255.368C123.221 249.251 120.241 243.25 118.041 236.914C117.129 234.287 116.427 231.616 115.898 228.88C115.3 225.789 116.037 223.059 117.844 220.616C120.309 217.288 123.641 215.39 127.825 215.185C144.578 214.357 161.335 214.222 178.102 214.71C187.873 214.995 197.632 215.489 207.38 216.188C211.93 216.516 216.481 216.924 221.014 217.442C224.464 217.835 227.439 219.258 229.524 222.18C229.95 223.363 229.002 223.451 228.302 223.598C227.105 223.851 225.882 223.759 224.683 223.566C221.989 223.134 219.271 223.416 216.571 223.245C215.783 223.196 215.164 223.418 214.903 224.244C213.952 228.294 215.254 232.013 216.684 235.665C220.267 244.814 224.115 253.867 227.051 263.257C228.816 268.9 230.499 274.571 230.355 280.589C230.201 287.057 226.839 290.666 220.35 290.433C210.393 290.074 200.427 289.905 190.477 289.288C189.338 289.218 188.197 289.216 187.058 289.216C175.509 289.216 163.962 289.214 152.413 289.22C151.416 289.22 150.42 289.205 149.426 289.077C148.597 289.207 147.874 288.944 147.203 288.48Z" fill="#191B1E"/>
<path d="M302.08 127.641C301.592 124.465 301.056 121.673 300.883 118.839C300.853 118.341 300.72 117.842 300.75 117.35C300.825 116.152 300.384 115.207 299.705 114.218C295.928 108.727 296.958 101.223 302.14 96.8573C303.947 95.3343 303.941 93.0732 304.883 91.2079C305.106 90.7651 304.532 90.4998 304.249 90.2025C300.315 86.0676 297.416 81.2888 295.354 75.9859C294.574 73.9794 294.103 71.9087 294.101 69.7397C294.097 66.4561 295.572 64.1822 298.626 62.9287C301.373 61.8014 304.271 61.4313 307.194 61.2923C313.708 60.9821 320.16 61.6345 326.569 62.7298C327.726 62.9266 328.781 62.9244 329.916 62.5736C333.962 61.3244 338.11 60.6912 342.354 60.8195C343.452 60.8538 344.234 60.6634 345.08 59.6965C347.662 56.7445 352.68 57.6087 354.091 61.2281C354.534 62.3661 355.179 62.702 356.179 62.9929C361.291 64.486 366.036 66.7192 370.186 70.1097C377.144 75.7934 380.743 83.2482 381.538 92.0764C381.928 96.4124 381.756 100.761 380.831 105.05C380.394 107.078 380.343 107.114 378.238 106.158C378.238 107.202 378.257 108.178 378.236 109.151C378.041 117.936 376.452 126.465 372.689 134.42C365.595 149.42 353.594 157.146 336.992 157.696C333.42 157.814 329.861 157.538 326.332 156.986C320.815 156.124 316.335 153.381 312.605 149.319C308.38 144.716 305.615 139.276 303.77 133.376C303.082 131.181 303 131.001 300.966 130.647C298.829 130.101 296.735 129.383 294.636 128.698C294.105 128.525 293.51 128.448 293.084 128.02C292.591 127.524 292.383 126.944 292.662 126.27C292.897 125.699 293.334 125.365 293.968 125.32C294.551 125.28 295.09 125.447 295.638 125.62C297.675 126.27 299.711 126.899 302.08 127.641Z" fill="#191B1E"/>
<path d="M527.721 299.533C528.584 299.903 529.235 300.662 530.182 300.878C531.075 301.888 532.021 302.857 532.854 303.911C537.422 309.693 540.037 316.293 540.812 323.593C541.285 328.045 539.795 331.975 537.165 335.519C536.223 334.999 536.204 333.996 535.94 333.136C535.21 330.753 534.435 328.396 533.488 326.083C531.557 321.365 527.938 319.533 523.053 319.516C519.625 319.506 516.213 319.529 512.856 320.329C511.042 319.876 509.907 318.04 507.928 317.912C504.431 315.369 500.215 315.242 496.204 314.5C491.326 313.597 486.445 312.695 481.55 311.884C480.794 311.758 479.967 311.726 479.554 310.891C481.132 307.139 484.113 304.577 487.246 302.249C493.529 297.582 500.716 295.199 508.476 294.608C512.734 294.285 516.864 295.006 520.695 297.011C521.912 297.648 523.137 298.104 524.548 298.102C525.788 298.097 526.963 298.405 527.721 299.533Z" fill="#B22828"/>
<path d="M469.119 441.628C468.316 441.534 467.59 441.046 466.746 441.151C465.718 441.573 464.776 441.091 463.84 440.815C437.914 433.155 411.919 425.739 385.821 418.684C384.307 418.275 382.793 417.839 381.494 416.9C378.151 414.485 377.003 411.037 378.153 406.673C380.226 398.818 382.299 390.963 384.226 383.07C389.522 361.396 394.209 339.592 398.043 317.613C398.766 313.463 400.51 310.307 404.238 308.192C406.715 306.784 409.107 305.216 411.628 303.884C416.62 301.244 421.768 300.157 427.515 301.28C437.032 303.141 446.666 304.367 456.204 306.119C457.32 306.297 457.11 305.407 457.296 304.797C457.489 304.168 457.649 303.349 458.617 304.091C459.121 305.137 459.082 306.194 458.709 307.264C458.487 307.751 458.106 308.051 457.602 308.205C456.097 308.577 454.628 308.128 453.174 307.892C451.124 307.561 449.097 307.396 447.041 307.753C439.987 306.78 432.965 305.599 425.943 304.431C422.932 303.571 420.035 304.04 417.144 305.064C414.392 306.04 411.943 307.602 409.294 308.722C410.452 308.162 411.574 308.722 412.694 308.836C420.046 309.957 427.363 311.255 434.702 312.44C435.471 312.564 436.246 312.663 437.004 312.855C447.685 314.614 458.337 316.547 468.993 318.453C475.999 319.752 483.017 321.003 490.015 322.349C492.291 322.787 494.444 323.48 496.009 325.346C498.517 328.242 498.658 331.596 498.178 335.207C494.773 360.859 490.39 386.34 485.055 411.659C484.809 412.823 484.754 414.1 483.627 414.891C483.002 415.186 482.394 415.184 481.805 414.797C480.991 413.646 481.509 412.444 481.749 411.298C485.242 394.572 488.355 377.775 491.054 360.902C492.503 351.836 493.848 342.754 495.028 333.647C495.617 329.091 493.73 326.441 489.178 325.557C483.092 324.376 476.991 323.283 470.888 322.188C470.044 322.036 469.207 321.882 468.391 321.617C459.789 320.338 451.272 318.571 442.687 317.206C440.434 316.849 438.201 316.393 435.957 315.985C427.295 314.607 418.652 313.105 409.996 311.694C405.476 310.449 402.388 312.361 401.522 317.159C398.623 333.207 395.407 349.188 391.824 365.095C388.678 379.059 385.215 392.942 381.521 406.769C380.337 411.201 381.62 413.845 385.594 415.24C412.84 422.648 440.045 430.205 467.052 438.441C468.14 438.856 469.22 439.314 470.436 439.093C471.907 439.523 473.543 439.57 474.644 440.875C473.391 442.576 471.607 441.496 470.078 441.75C469.757 441.707 469.438 441.669 469.119 441.628Z" fill="#191B1E"/>
<path d="M474.614 440.8C472.999 440.787 471.605 440.002 470.125 439.523C468.973 439.902 468.174 439.065 467.241 438.689C465.183 438.124 463.127 437.57 461.114 436.862C460.504 436.648 459.881 436.464 459.369 436.077C458.225 435.211 457.412 434.124 457.801 432.603C458.208 431.016 459.407 430.272 460.973 430.212C462.9 430.139 464.825 430.408 466.727 430.627C470.292 431.035 473.851 430.93 477.413 430.911C478.475 430.819 479.541 430.744 480.558 430.383C481.648 429.844 482.329 428.986 482.616 427.803C482.948 426.434 482.73 425.384 481.115 425.097C480.456 425.125 479.865 424.785 479.214 424.772C475.434 424.952 471.742 424.644 468.297 422.898C467.476 422.483 466.678 422.04 466.046 421.347C464.789 418.832 465.388 417.174 467.939 416.188C468.395 416.01 468.86 415.839 469.327 415.685C473.018 414.523 476.834 414.292 480.67 414.207C481.109 414.196 481.503 414.354 481.841 414.637C482.436 414.615 483.032 414.594 483.627 414.573C484.854 413.736 486.152 413.02 487.469 412.335C489.394 411.364 490.932 409.98 492.293 408.296C493.388 406.942 494.54 405.556 496.204 404.79C496.701 404.638 497.208 404.634 497.718 404.7C497.917 404.722 498.114 404.767 498.307 404.82C498.776 405.026 499.27 404.994 499.765 404.961C500.893 405.036 501.41 404.422 501.619 403.391C501.9 402.02 502.161 400.645 502.478 399.282C502.744 398.148 503.32 397.37 504.579 397.295C509.221 397.605 513.157 399.74 516.973 402.14C518.787 403.28 518.777 403.346 519.224 401.312C521.258 392.041 524.413 383.115 527.533 374.175C530.629 365.302 533.767 356.427 534.803 347.008C535.615 339.643 534.777 332.55 531.263 325.861C529.951 323.363 528.132 321.927 525.364 321.527C522.663 321.138 519.969 321.153 517.269 321.42C516.28 321.519 515.299 321.752 514.292 321.576C513.434 321.401 512.53 321.27 512.637 320.051C513.733 318.838 515.32 319.076 516.65 318.958C520.408 318.624 524.182 318.552 527.92 319.469C529.951 319.968 531.349 321.106 532.426 322.789C534.921 326.693 536.345 330.997 537.167 335.521C538.319 343.939 536.947 352.106 534.7 360.185C532.394 368.481 529.312 376.52 526.559 384.668C524.438 390.937 522.496 397.258 521.327 403.783C520.995 405.633 519.984 407.068 518.971 408.497C518.123 409.695 516.65 409.794 515.288 409.854C512.915 409.958 510.618 409.426 508.32 408.934C507.763 408.814 507.213 408.677 506.658 408.549C506.373 408.718 506.515 408.906 506.632 409.092C507.099 409.631 507.596 410.145 508.024 410.711C510.804 414.384 511.836 418.215 510.247 422.862C506.624 433.457 495.78 442.011 484.631 442.616C483.207 442.693 481.779 442.653 480.413 442.15L480.211 442.086C480.083 442.045 479.95 442.017 479.815 442.005C478.965 441.376 478.021 441.863 477.126 441.769C476.207 441.669 475.273 441.579 474.614 440.8Z" fill="#191B1E"/>
<path d="M214.22 223.923C214.973 222.188 214.973 222.188 216.796 222.46C216.935 222.481 217.078 222.509 217.218 222.503C220.76 222.332 224.274 222.819 227.801 222.935C228.458 222.956 229.289 223.202 229.522 222.182C230.21 222.704 230.45 223.865 231.642 223.664L231.687 223.818C233.775 224.381 234.728 226.032 235.501 227.827C240.204 238.752 244.9 249.683 249.5 260.652C257.183 278.978 264.755 297.351 271.976 315.867C277.383 329.737 282.656 343.656 287.682 357.67C288.924 361.133 288.532 364.091 285.651 366.556C284.075 367.745 282.319 367.948 280.388 367.745C271.12 366.77 261.837 365.978 252.538 365.323C246.506 364.898 240.456 364.787 234.439 364.19C233.319 364.079 232.377 364.712 231.304 364.6C231.186 364.16 231.366 363.488 230.689 363.433C229.968 363.373 230.062 364.031 230 364.487C229.951 364.844 229.859 365.167 229.593 365.424C229.593 364.787 229.593 364.149 229.593 363.328C227.381 363.21 225.192 363.039 223.002 362.988C210.241 362.694 197.48 362.374 184.715 362.553C183.717 362.568 182.702 362.626 181.738 362.324C179.62 361.659 178.316 360.187 177.458 358.157C174.023 350.027 170.528 341.921 167.05 333.81C166.742 333.091 166.406 332.385 166.084 331.673C166.684 330.961 167.414 331.001 168.19 331.305C169.485 332.43 169.92 334.056 170.566 335.54C173.554 342.401 176.56 349.257 179.344 356.202C180.421 358.891 182.132 360.102 185.04 360.001C188.674 359.873 192.319 360.053 195.953 359.956C205.585 359.7 215.207 360.215 224.82 360.508C237.917 360.908 251.009 361.67 264.072 362.855C269.539 363.351 275.004 363.856 280.469 364.372C284.148 364.718 285.823 362.682 284.669 359.124C282.071 351.122 278.968 343.301 276 335.434C262.695 300.147 248.153 265.367 233.218 230.743C232.824 229.827 232.418 228.914 231.94 228.037C231.045 226.396 229.666 225.489 227.792 225.47C224.368 225.438 220.978 224.809 217.541 224.974C216.342 225.029 215.087 225.036 214.22 223.923Z" fill="#191B1E"/>
<path d="M168.359 331.667C167.603 331.669 166.845 331.669 166.089 331.671C163.179 331.296 160.939 329.162 160.648 326.312C160.56 325.455 160.38 325.003 159.551 324.552C157.101 323.217 155.93 321.005 155.966 318.231C155.977 317.441 155.769 317.033 155.165 316.494C152.934 314.494 151.694 312.012 152.334 308.928C152.482 308.218 152.266 307.89 151.763 307.522C150.947 306.928 150.326 306.153 149.863 305.255C148.555 302.707 149.107 300.724 151.579 299.103C152.056 298.185 152.994 298.016 153.844 297.699C158.525 296.628 163.292 296.249 168.07 296.292C172.678 296.333 174.845 298.855 174.389 303.409C174.284 304.455 174.623 304.705 175.515 305C179.276 306.247 180.766 309.503 179.233 313.112C178.858 313.993 178.766 314.671 179.381 315.463C180.89 317.407 181.383 319.542 180.317 321.867C179.867 322.847 180.312 323.649 180.664 324.509C182.073 327.959 180.918 330.351 177.299 331.344C175.303 331.891 173.254 332.221 171.181 332.33C170.196 332.379 169.166 332.452 168.359 331.667Z" fill="#191B1E"/>
<path d="M153.756 298.324C153.03 298.583 152.304 298.842 151.578 299.101C151.713 298.331 151.257 297.732 150.978 297.09C149.732 294.215 148.464 291.351 147.203 288.48C147.955 288.461 148.706 288.444 149.458 288.424C151.381 291.511 152.998 294.73 153.756 298.324Z" fill="#191B1E"/>
<path d="M530.017 300.254L529.889 300.207C529.889 300.207 529.912 300.07 529.912 300.072C529.912 300.074 530.05 300.115 530.05 300.115L530.017 300.254Z" fill="#B22828"/>
<path d="M480.209 442.084L480.342 442.037C480.342 442.037 480.415 442.15 480.413 442.15C480.411 442.148 480.288 442.204 480.288 442.204L480.209 442.084Z" fill="#4F91E0"/>
<path d="M456.424 306.786C451.717 306.04 447.008 305.298 442.301 304.543C435.838 303.505 429.388 302.361 422.906 301.464C420.495 301.131 418.105 301.924 415.84 302.812C411.028 304.699 406.687 307.441 402.436 310.329C400.556 311.604 399.584 313.497 399.196 315.675C397.07 327.649 394.791 339.596 392.23 351.486C390.416 359.901 388.436 368.28 386.508 376.672C384.178 386.8 381.652 396.882 378.81 406.878C377.257 412.339 380.621 416.575 384.789 417.655C392.513 419.657 400.194 421.828 407.876 423.987C420.086 427.416 432.29 430.87 444.483 434.359C451.265 436.3 458.021 438.334 464.795 440.308C465.489 440.512 466.133 440.787 466.748 441.153C468.339 444.428 470.435 447.402 472.365 450.473C474.448 453.791 476.626 457.053 478.329 460.591C479.333 462.679 479.954 464.838 479.292 467.193C478.646 469.494 477.11 470.517 474.806 469.871C471.172 468.855 467.585 467.674 463.962 466.615C454.512 463.854 444.897 461.907 435.115 460.752C429.528 460.093 423.921 459.648 418.33 459.068C411.46 458.354 404.623 457.408 397.901 455.748C394.811 454.985 392.453 453.37 390.99 450.516C390.894 450.326 390.843 450.065 390.686 449.958C388.453 448.446 388.065 445.84 387.02 443.658C383.851 437.04 380.285 430.625 377.037 424.049C373.398 416.684 370.289 409.137 368.593 401.06C367.55 396.093 367.25 391.059 367.068 386.009C367.634 383.782 367.518 381.48 367.747 379.219C369.283 364.061 372.672 349.331 377.551 334.912C380.131 327.286 382.225 319.527 383.493 311.557C384.457 305.501 385.084 299.413 385.388 293.297C386.048 280.067 386.87 266.849 387.913 253.644C388.568 245.34 389.121 237.025 389.808 228.723C390.748 217.369 391.646 206.01 392.132 194.626C392.429 187.657 392.65 180.67 391.487 173.735C391.322 172.747 391.085 171.786 390.725 170.854C393.693 171.282 393.871 171.277 393.963 174.178C394.11 178.903 396.451 182.57 399.305 185.995C401.323 188.414 404.122 189.173 407.195 189.013C407.762 188.983 408.327 188.876 408.888 188.769C410.175 188.525 411.45 187.984 412.109 189.896C412.375 190.671 413.482 190.818 414.364 190.867C415.94 190.957 417.493 190.793 419.037 190.465C422.328 189.766 425.497 188.756 428.502 187.201C430.712 186.059 431.515 184.412 431.159 181.962C430.789 179.417 431.682 178.67 434.316 179.278C439.01 180.36 438.423 179.635 438.528 184.243C438.554 185.383 438.607 186.523 438.612 187.663C438.616 188.54 438.931 189.182 439.789 189.49C443.877 190.955 447.822 192.846 452.137 193.631C452.557 193.708 452.981 193.794 453.405 193.802C455.364 193.843 456.105 193.122 456.225 191.163C456.345 189.203 455.811 187.374 455.092 185.603C455.672 185.132 456.094 185.556 456.52 185.725C461.24 187.586 464.791 190.968 468.08 194.673C479.303 207.313 488.473 221.393 497.098 235.86C503.968 247.381 510.116 259.281 515.872 271.386C520.065 280.204 523.868 289.194 527.397 298.298C527.55 298.692 527.616 299.12 527.723 299.533C526.239 299.101 524.804 298.39 523.172 298.923C522.549 299.126 522.136 298.544 521.663 298.266C517.474 295.794 512.891 294.987 508.129 295.316C504.225 295.586 500.437 296.555 496.749 297.894C491.931 299.644 487.727 302.376 484.003 305.845C482.926 306.848 482.125 308.147 481.177 309.293C480.738 309.824 480.507 310.588 479.676 310.705C478.269 311.942 476.825 310.605 475.403 310.767C472.459 310.113 469.476 309.668 466.508 309.15C465.208 308.923 464.071 308.504 463.24 307.439C460.156 301.635 457.156 295.875 457.814 288.893C458.197 284.811 457.889 280.663 457.837 276.548C457.779 280.452 457.777 284.356 457.792 288.26C457.816 293.817 457.251 299.353 457.195 304.908C457.184 305.644 457.12 306.339 456.424 306.786Z" fill="#CE5646"/>
<path d="M231.308 364.598C231.668 363.614 232.306 363.195 233.409 363.311C239.352 363.935 245.341 363.818 251.286 364.47C253.474 364.71 255.684 364.737 257.883 364.902C264.333 365.386 270.777 365.914 277.206 366.637C278.617 366.795 280.041 366.804 281.448 367.071C283.035 367.373 284.343 366.539 285.675 365.863C287.005 365.508 288.335 365.17 289.65 365.914C288.866 372.015 288.144 378.122 287.971 384.278C287.945 385.222 287.564 386.268 288.495 387.04C287.754 387.513 287.861 388.266 287.894 388.963C288.18 395.074 288.27 401.197 288.932 407.291C289.322 410.898 289.598 414.517 289.939 418.13C290.459 423.653 291.101 429.17 291.485 434.704C291.877 440.381 292.247 446.073 291.628 451.765C291.605 451.977 291.669 452.268 291.551 452.392C289.883 454.153 289.945 456.72 288.545 458.638C285.863 462.307 282.311 464.671 278.026 465.937C271.516 467.86 264.845 468.893 258.078 469.48C252.802 469.935 247.527 470.004 242.264 469.743C232.904 469.278 223.693 467.869 214.939 464.301C212.453 463.289 210.303 461.8 208.723 459.582C205.825 455.513 205.555 451.158 207.343 446.602C207.812 445.408 208.489 444.313 209.209 443.243C217.674 430.65 222.982 416.761 226.143 401.995C227.993 393.357 229.173 384.621 230.051 375.837C230.428 372.087 230.886 368.344 231.308 364.598Z" fill="#CE5646"/>
<path d="M326.696 387.198C326.942 386.377 326.272 386.486 325.837 386.353C321.983 385.181 319.471 382.674 318.419 378.783C317.143 374.055 319.162 369.24 323.178 367.3C324.285 366.765 325.467 366.442 326.675 366.393C328.274 366.329 328.944 365.338 329.285 364.019C329.608 362.757 329.448 361.492 329.126 360.22C327.075 352.147 325.328 344.016 324.041 335.774C321.657 320.532 323.034 305.822 329.664 291.753C331.15 288.597 332.611 285.429 334.086 282.268C334.236 281.947 334.39 281.62 334.594 281.329C334.848 280.965 335.193 280.691 335.673 280.912C336.234 281.168 336.315 281.647 336.11 282.167C335.928 282.629 335.677 283.066 335.463 283.515C332.279 290.2 329.056 296.867 327.06 304.042C325.015 311.392 324.379 318.862 324.876 326.466C325.612 337.748 328.073 348.713 330.807 359.631C331.176 361.105 331.386 362.558 331.101 364.064C330.628 366.566 329.409 367.758 326.889 368.145C322.903 368.757 320.606 370.823 319.98 374.357C319.287 378.278 321.135 382.169 324.537 383.912C326.499 384.918 328.608 385.284 330.767 384.991C332.321 384.779 333.831 384.505 335.341 385.134C334.317 386.257 332.917 386.657 331.525 386.736C329.904 386.832 328.302 387.021 326.696 387.198Z" fill="#191B1E"/>
<path d="M237.386 223.51C238.246 223.258 238.51 222.475 238.891 221.806C243.955 212.881 249.44 204.224 255.671 196.061C259.868 190.564 264.359 185.34 269.678 180.854C272.693 178.313 276.186 176.783 279.822 175.511C288.587 172.443 297.594 170.439 306.83 169.382C309.811 169.042 312.803 169.11 315.775 168.749C316.871 168.616 318.06 168.462 319.115 169.102C314.518 176.537 312.933 184.944 311.396 193.34C309.303 204.761 308.061 216.295 306.982 227.851C305.956 238.839 305.132 249.843 304.41 260.857C303.601 273.221 302.888 285.59 302.256 297.965C301.669 309.447 299.609 320.716 297.063 331.904C296.273 335.374 295.433 338.83 294.615 342.294C294.138 342.561 294.035 342.14 293.847 341.877C287.898 325.955 281.822 310.083 275.415 294.339C270.642 282.614 265.779 270.926 260.967 259.217C260.755 258.699 260.391 258.224 260.419 257.621C259.95 254.265 261.235 251.06 261.222 247.734C260.723 249.235 260.704 250.836 260.331 252.361C260.143 253.133 260.235 254.13 259.089 254.314C258.419 253.629 258.226 252.701 257.866 251.867C254.558 244.17 251.228 236.484 248.003 228.753C246.647 225.502 244.457 223.716 240.85 223.808C239.645 223.838 238.435 223.754 237.227 223.724C237.283 223.652 237.334 223.581 237.386 223.51Z" fill="#CE5646"/>
<path d="M289.647 365.914C288.318 366.316 286.99 366.474 285.673 365.863C288.048 363.306 288.026 360.549 286.859 357.37C283.054 347.015 279.251 336.661 275.287 326.366C270.709 314.477 266.079 302.609 261.211 290.835C257.787 282.548 254.419 274.235 250.96 265.961C247.253 257.097 243.48 248.26 239.72 239.417C238.272 236.011 236.713 232.651 235.332 229.218C234.493 227.132 233.469 225.237 231.689 223.814C231.972 223.795 232.255 223.774 232.54 223.754C236.234 223.521 238.57 225.237 239.943 228.631C241.677 232.92 243.594 237.134 245.414 241.389C258.415 271.754 271.064 302.262 282.743 333.164C285.838 341.352 288.825 349.582 291.862 357.792C291.96 358.059 292.052 358.329 292.142 358.598C293.256 361.948 292.573 363.948 289.647 365.914Z" fill="#8B3D98"/>
<path d="M259.091 254.314C259.98 252.196 259.847 249.884 260.35 247.689C260.517 246.96 260.324 245.862 261.412 245.948C262.556 246.04 262.2 247.148 262.1 247.834C261.62 251.109 261.367 254.425 260.419 257.621C259.81 256.586 259.273 255.522 259.091 254.314Z" fill="#191B1E"/>
<path d="M293.847 341.877C294.104 342.016 294.361 342.155 294.616 342.294C294.654 342.557 294.644 342.935 294.335 342.858C293.907 342.754 293.81 342.307 293.847 341.877Z" fill="#8187D3"/>
<path d="M237.385 223.51C237.319 223.57 237.268 223.641 237.231 223.724C236.741 223.842 236.289 223.836 235.991 223.339C236.456 223.397 236.921 223.453 237.385 223.51Z" fill="#F6C5E9"/>
<path d="M319.083 169.113C319.223 168.777 319.411 168.61 319.737 168.922C319.55 169.102 319.34 169.185 319.083 169.113Z" fill="#CE5646"/>
<path d="M411.64 139.623C411.499 137.779 411.349 135.935 411.221 134.091C411.178 133.49 411.103 132.867 410.355 132.872C409.629 132.876 409.475 133.462 409.477 134.084C409.482 137.009 409.773 139.916 410.096 142.816C411.385 154.376 413.97 165.669 417.131 176.843C417.247 177.252 417.334 177.667 417.431 178.065C417.011 178.63 416.514 178.317 416.06 178.24C413.668 177.836 411.328 177.231 409.053 176.377C408.45 176.15 407.88 175.883 407.336 175.53C406.582 175.04 406.293 174.576 406.747 173.615C409.158 168.524 410.071 163.057 410.627 157.51C410.685 156.945 410.707 156.372 410.698 155.803C410.689 155.238 410.437 154.828 409.805 154.849C409.304 154.866 409.051 155.202 408.996 155.672C408.88 156.663 408.777 157.653 408.681 158.646C408.169 163.998 407.062 169.196 404.563 174.011C404.01 175.076 404.289 175.62 405.252 176.253C407.473 177.712 409.27 179.654 410.901 181.74C411.43 182.414 411.921 183.145 411.906 184.044C411.88 185.605 411.15 186.587 409.54 186.872C404.407 187.776 402.032 186.961 399.299 183.141C397.224 180.238 395.792 177.177 395.68 173.534C395.603 171.004 394.333 168.762 393.577 166.396C393.449 165.994 393.357 165.577 393.248 165.168C393.845 164.518 394.657 164.563 395.43 164.518C396.794 164.436 396.787 163.812 396.128 162.871C395.434 161.88 394.522 161.052 393.89 160.021C393.053 158.657 393.387 158.083 394.959 158.021C398.199 157.895 398.363 157.611 396.755 154.661C395.43 152.228 393.916 149.899 392.725 147.39C391.997 145.856 391.316 144.309 391.509 142.545C392.316 138.684 394.374 135.458 396.727 132.395C398.291 130.362 399.914 128.379 401.494 126.36C402.244 125.402 402.715 124.328 403.085 123.145C405.582 115.151 409.713 108.214 416.459 103.024C416.853 102.721 417.249 102.417 417.653 102.124C417.998 101.874 418.264 101.931 418.534 102.291C421.067 105.668 424.93 106.672 428.673 107.752C433.624 109.183 438.712 109.79 443.882 109.621C445.314 109.574 446.719 109.365 448.113 109.076C449.509 108.785 450.766 108.12 452.096 107.386C452.942 110.685 453.36 113.921 453.833 117.143C454.694 122.989 455.308 128.863 455.418 134.778C455.426 135.199 455.345 135.62 455.306 136.044C454.732 137.195 453.959 138.183 453.049 139.107C450.634 141.561 448.811 144.459 447.192 147.469C446.126 149.45 446.565 150.158 448.758 150.395C451.443 150.684 451.739 151.225 450.372 153.589C449.338 155.377 448.424 157.223 447.52 159.078C447.113 159.912 446.773 160.772 446.648 161.698C446.389 163.639 446.942 164.197 448.871 163.953C449.437 163.88 449.974 163.639 450.546 163.641C451.16 163.643 451.736 163.737 451.486 164.605C450.257 168.991 449.021 173.374 447.803 177.763C447.535 178.722 447.302 179.693 447.092 180.666C446.89 181.599 447.192 182.266 448.248 182.234C451.803 182.125 454.732 187.682 454.497 191.026C454.448 191.738 454.069 192.08 453.392 192.01C452.614 191.928 451.829 191.819 451.075 191.623C447.756 190.754 444.614 189.381 441.402 188.206C440.464 187.864 440.348 187.188 440.342 186.36C440.303 179.8 439.777 173.262 439.421 166.717C439.068 160.171 438.642 153.627 438.248 147.084C438.243 147.013 438.248 146.938 438.23 146.872C438.046 146.134 438.541 144.861 437.19 144.97C436.059 145.062 436.445 146.175 436.483 146.887C436.644 149.946 436.873 153.003 437.053 156.062C437.397 161.895 437.706 167.731 438.083 173.562C438.153 174.64 437.841 175.273 436.828 175.71C435.387 176.332 433.948 176.952 432.438 177.382C430.975 177.802 430.917 177.77 430.894 176.14C430.836 172.148 430.81 168.156 430.778 164.165C430.733 158.391 430.695 152.618 430.65 146.846C430.645 146.419 430.639 145.991 430.603 145.565C430.562 145.107 430.371 144.724 429.853 144.682C429.211 144.626 428.973 145.08 428.887 145.599C428.819 146.016 428.834 146.451 428.84 146.879C428.986 158.922 429.117 170.967 429.316 183.008C429.335 184.187 428.934 184.889 427.973 185.421C424.043 187.597 419.829 188.835 415.36 189.126C413.362 189.257 412.951 188.715 413.129 186.747C413.392 183.828 415.591 181.261 418.212 180.888C419.962 180.64 419.981 180.429 419.476 178.57C418.486 174.929 417.497 171.288 416.523 167.643C416.377 167.095 416.315 166.526 416.217 165.968C416.996 164.828 417.846 165.812 418.647 165.921C419.487 166.037 420.442 166.516 421.095 165.84C421.893 165.014 421.17 164.086 420.78 163.286C419.157 159.953 417.439 156.669 415.833 153.33C414.812 151.204 415.002 150.883 417.334 150.308C420 149.649 420.223 148.992 418.664 146.667C417.334 144.682 415.677 143.043 413.681 141.743C412.835 141.188 412.043 140.596 411.64 139.623Z" fill="#FFC442"/>
<path d="M322.312 182.655C322.471 179.442 322.345 175.089 322.85 170.762C323.077 168.813 323.026 168.809 324.942 168.653C326.679 168.511 326.713 168.511 326.698 170.27C326.662 174.646 327.12 178.955 328.548 183.107C330.431 188.583 333.656 192.944 339.114 195.351C343.119 197.116 347.279 197.276 351.479 196.303C359.717 194.393 366.97 190.606 372.964 184.589C376.878 180.657 379.619 176.065 380.341 170.458C380.446 169.637 380.752 169.303 381.568 169.457C381.849 169.51 382.136 169.513 382.418 169.553C384.431 169.848 384.468 169.855 384.189 171.947C383.525 176.912 382.078 181.678 380.324 186.347C374.75 201.191 367.287 214.975 357.139 227.23C354.723 230.146 352.072 232.839 349.042 235.134C347.16 236.559 345.17 237.795 342.892 238.514C339.847 239.475 337.131 238.955 334.735 236.82C332.838 235.13 331.482 233.044 330.358 230.805C327.683 225.476 326.203 219.763 325.06 213.951C323.105 203.991 322.342 193.918 322.312 182.655Z" fill="#F7F2DD"/>
<path d="M406.021 42.006C405.518 39.2572 406.717 38.8122 408.912 38.9128C410.737 38.9962 412.368 39.7064 413.959 40.515C418.009 42.575 421.403 45.4863 424.534 48.7292C424.977 49.1891 425.408 49.6683 425.904 50.0662C426.273 50.3614 426.705 50.2951 427.039 49.9143C427.316 49.5977 427.301 49.2276 427.071 48.9346C426.506 48.2158 425.894 47.5334 425.101 46.6008C432.956 42.7718 440.768 42.2241 448.762 45.1697C448.942 45.8179 448.544 45.974 448.315 46.2029C442.646 51.8716 443.978 60.2313 451.122 63.795C451.372 63.9191 451.604 64.0796 451.846 64.2229C451.989 64.3769 452.058 64.5609 452.053 64.7705C450.938 66.3256 448.94 66.3299 447.509 67.3417C446.621 67.9706 445.06 68.1246 445.203 69.5151C445.349 70.9461 446.73 71.5579 447.993 71.7996C449.709 72.1269 451.205 72.8863 452.732 73.6436C455.308 74.9185 455.525 75.5174 454.186 78.0395C457.116 78.6962 457.283 78.9571 456.994 82.2749C457.771 81.0898 457.773 79.7978 457.176 78.5528C456.574 77.2972 456.953 76.3667 457.85 75.5003C459.435 73.9687 461.05 72.4735 462.96 71.3333C464.975 70.7729 464.975 70.7729 464.726 72.9013C464.506 75.8896 463.337 78.5528 461.763 81.03C457.347 87.9735 450.809 91.8753 442.959 93.7064C436.23 95.2765 429.626 94.8102 423.397 91.6379C420.589 90.2089 420.05 90.549 422.872 87.6591C423.523 86.9917 424.3 86.4911 425.103 86.0205C425.568 85.7489 425.874 85.3296 425.549 84.7777C425.238 84.2536 424.735 84.2365 424.243 84.4868C422.624 85.3061 421.343 86.5232 420.187 87.9008C419.277 88.9853 419.242 88.9725 418.223 88.0591C417.643 87.5393 417.039 87.0302 416.606 86.1767C418.18 84.7499 420.024 83.7466 421.99 82.9145C422.632 82.6428 423.816 82.5894 423.377 81.4749C422.968 80.4396 422.058 81.0214 421.347 81.2738C419.519 81.9241 417.868 82.9145 416.324 84.0632C415.598 84.6044 415.129 84.6387 414.638 83.8023C412.698 80.4973 412.523 80.8824 416.154 79.6695C417.585 79.1924 419.084 79.0876 420.579 78.9914C420.934 78.9678 421.294 79.0149 421.647 78.9828C422.176 78.9336 422.669 78.7582 422.652 78.1165C422.637 77.494 422.131 77.2865 421.622 77.2458C420.986 77.1966 420.339 77.2073 419.703 77.2587C417.491 77.4426 415.334 77.8919 413.289 78.7839C412.692 79.0448 412.244 79.1219 411.977 78.3282C410.788 74.7859 410.034 71.1921 410.537 67.4316C410.555 67.3118 410.69 67.2069 410.835 67.0037C411.321 67.7032 411.758 68.3984 412.268 69.038C412.557 69.4017 413.019 69.4894 413.418 69.2049C413.82 68.9204 413.872 68.4583 413.636 68.0583C412.91 66.8305 412.189 65.6069 411.874 64.1951C413.163 62.6335 413.87 60.9629 413.058 58.9093C412.805 58.2718 413.007 57.5381 413.634 57.2258C414.861 56.6162 414.994 55.8161 414.493 54.6289C413.923 53.2834 414.61 52.6353 415.945 52.4834C417.159 52.3443 418.352 52.5775 420.02 52.7465C415.754 48.2115 411.97 43.7408 406.021 42.006Z" fill="#FFC442"/>
<path d="M389.175 156.487C381.397 155.657 376.23 149.94 376.112 142.181C376.03 136.795 377.42 131.766 380.058 127.075C381.562 124.398 383.35 121.913 385.185 119.459C387.444 116.435 389.768 113.455 391.616 110.15C393.978 105.925 395.603 101.506 395.387 96.5514C395.273 93.9545 394.633 91.4924 393.796 89.0666C392.982 86.7136 392.061 84.3969 391.31 82.0246C390.815 80.4609 391.967 79.2352 393.449 79.5689C394.059 79.7058 394.481 80.093 394.717 80.6235C396.644 84.9745 398.98 89.1693 399.997 93.8796C401.094 98.9557 400.62 103.925 398.918 108.804C397.455 113.001 395.308 116.847 392.928 120.578C391.322 123.1 389.605 125.554 388.219 128.21C386.256 131.984 384.958 135.939 384.949 140.245C384.945 142.885 385.442 145.246 388.237 146.365C388.864 146.615 388.834 147.084 388.798 147.582C388.586 150.496 388.778 153.396 389.175 156.487Z" fill="#FFC442"/>
<path d="M451.49 164.608C451.253 163.94 450.812 164 450.308 164.274C449.398 164.772 448.411 164.834 447.4 164.792C446.357 164.747 445.884 164.203 445.809 163.179C445.708 161.78 446.053 160.485 446.668 159.264C447.659 157.294 448.706 155.352 449.73 153.396C450.083 152.723 450.677 152.139 450.574 151.257C449.655 150.951 448.724 151.206 447.816 151.112C446.008 150.924 445.351 150.051 446.004 148.367C446.462 147.184 447.163 146.087 447.826 144.994C449.867 141.636 452.146 138.47 455.311 136.046C455.651 140.461 455.356 144.859 454.816 149.238C454.171 154.457 453.152 159.604 451.49 164.608Z" fill="#F46238"/>
<path d="M406.022 42.006C407.512 41.5803 408.827 42.0124 410.063 42.8274C413.472 45.0778 416.44 47.8329 419.183 50.8384C419.885 51.6085 420.528 52.4321 421.305 53.3583C420.412 53.6749 419.738 53.4909 419.061 53.3754C418.431 53.2685 417.8 53.1401 417.166 53.1016C414.463 52.9412 414.433 52.9946 415.504 55.4226C416.125 56.8322 416.061 56.9649 414.53 57.4333C413.281 57.8162 413.277 57.8248 413.808 59.228C414.752 61.7223 414.193 63.1576 411.866 64.2079C409.591 59.0141 408.095 53.5786 406.848 48.0683C406.394 46.0767 405.835 44.0873 406.022 42.006Z" fill="#F45325"/>
<path d="M411.641 139.623C414.791 141.494 417.712 143.614 419.605 146.864C419.819 147.231 420.089 147.574 420.262 147.961C420.855 149.283 420.474 150.171 419.116 150.613C418.577 150.789 418.007 150.874 417.452 150.996C416.906 151.118 416.305 150.894 415.784 151.264C415.701 152.036 416.208 152.599 416.517 153.221C418.198 156.601 419.911 159.966 421.594 163.345C422.095 164.351 422.898 165.491 421.879 166.481C420.984 167.35 419.757 166.899 418.63 166.646C417.81 166.462 417.142 165.754 416.219 165.968C414.701 160.717 413.746 155.347 412.868 149.965C412.309 146.538 411.718 143.109 411.641 139.623Z" fill="#F46238"/>
<path d="M464.723 72.9012C464.684 72.4306 464.648 71.96 464.605 71.4145C464.007 71.6113 463.504 71.7782 463.001 71.945C462.611 71.3653 463.224 70.9247 463.324 70.1995C461.318 71.3889 460.026 73.128 458.33 74.3815C457.105 75.2863 456.075 75.4831 454.947 74.358C454.748 74.159 454.998 74.4072 454.788 74.2168C453.893 73.4146 452.431 73.3226 451.883 72.1504C451.285 70.8733 452.484 69.9065 452.758 68.7642C453.125 67.2326 452.553 65.9876 451.861 64.7341C451.857 64.5629 451.853 64.3939 451.848 64.2228C454.088 64.6784 456.324 64.9565 458.568 64.2164C460.564 63.5575 462.251 62.4281 463.849 60.5884C465.183 64.8303 465.646 68.8069 464.723 72.9012Z" fill="#FEC442"/>
<path d="M391.513 142.547C392.802 146.397 394.706 149.944 396.82 153.392C397.447 154.417 398 155.503 398.456 156.616C399.042 158.045 398.546 158.731 396.969 158.83C396.475 158.86 395.974 158.843 395.479 158.796C394.995 158.749 394.518 158.635 393.993 158.545C393.849 159.335 394.415 159.713 394.789 160.177C395.593 161.168 396.464 162.109 397.201 163.149C398.119 164.445 397.792 165.121 396.231 165.215C395.241 165.275 394.243 165.192 393.25 165.172C390.911 158.417 389.734 151.535 391.001 144.393C391.113 143.764 391.34 143.161 391.513 142.547Z" fill="#F46238"/>
<path d="M451.33 44.0894C448.732 43.3878 446.263 42.2412 443.291 41.9054C444.874 38.6304 446.565 35.7319 449.396 33.6377C449.454 33.5949 449.512 33.5542 449.572 33.5179C451.531 32.2964 452.285 32.5617 453.202 34.7906C453.062 37.9865 453.084 41.2166 451.33 44.0894Z" fill="#FEC342"/>
<path d="M451.465 55.1573C452.169 52.8556 452.972 50.2138 453.79 47.5762C453.872 47.311 454.039 47.0564 454.366 47.0307C454.827 46.9944 454.981 47.3538 455.064 47.6853C455.323 48.7142 455.585 49.7474 455.756 50.7956C455.94 51.9272 456.523 52.3957 457.655 52.1796C457.863 52.1411 458.079 52.139 458.294 52.1368C459.673 52.124 459.874 52.3122 459.474 53.5636C458.741 55.8568 457.93 58.1264 457.144 60.4024C457.007 60.8024 456.855 61.2901 456.311 61.1789C455.949 61.1062 455.814 60.7104 455.754 60.3446C455.58 59.2965 455.39 58.2504 455.238 57.198C455.12 56.398 454.711 56.0985 453.912 56.2739C453.36 56.3937 452.794 56.4728 452.231 56.537C451.432 56.6333 451.229 56.2076 451.465 55.1573Z" fill="#F5F0DC"/>
<path d="M451.33 44.0895C451.861 40.9706 451.915 37.7555 453.202 34.7886C454.422 37.1972 454.831 39.8348 455.403 42.4295C455.559 43.1354 455.38 43.4884 454.643 43.5846C453.536 43.7301 452.435 43.9183 451.33 44.0895Z" fill="#F05326"/>
<path d="M153.756 298.324C151.972 295.175 150.4 291.937 149.458 288.424C162.795 288.219 176.132 288.253 189.464 288.508C197.799 288.666 206.131 289.032 214.461 289.363C216.38 289.44 218.292 289.71 220.22 289.714C226.393 289.733 229.445 286.747 229.59 280.627C229.698 276.152 228.706 271.867 227.518 267.61C224.871 258.128 221.157 249.028 217.498 239.909C216.121 236.478 214.566 233.117 213.992 229.404C213.703 227.532 213.639 225.731 214.217 223.923C215.412 224.148 216.62 224.251 217.834 224.203C221.335 224.067 224.798 224.67 228.293 224.725C230.614 224.762 232.075 226.212 232.953 228.255C235.571 234.339 238.188 240.422 240.771 246.521C245.189 256.947 249.643 267.356 253.966 277.821C258.183 288.022 262.29 298.266 266.38 308.517C272.873 324.787 279.109 341.158 285.004 357.655C285.268 358.393 285.527 359.133 285.739 359.886C286.608 362.966 284.238 365.629 281.088 365.259C277.274 364.81 273.445 364.483 269.622 364.121C265.303 363.713 260.984 363.289 256.658 362.945C254.388 362.765 252.108 362.624 249.838 362.517C245.996 362.335 242.154 362.098 238.315 361.899C229.987 361.467 221.652 361.355 213.324 361.022C203.767 360.639 194.216 360.872 184.663 360.75C184.378 360.746 184.091 360.748 183.807 360.748C181.667 360.759 180.136 359.864 179.282 357.837C177.571 353.766 175.823 349.712 174.08 345.656C172.337 341.601 170.583 337.549 168.832 333.495C168.579 332.909 168.241 332.347 168.352 331.667C171.144 331.72 173.9 331.416 176.618 330.779C177.239 330.633 177.871 330.473 178.442 330.201C180.492 329.23 181.089 327.598 180.342 325.418C180.006 324.441 179.275 323.752 178.751 322.93C181.046 319.542 180.746 317.565 177.382 314.5C179.068 312.772 179.856 310.754 178.746 308.399C177.633 306.038 175.671 305.154 173.17 305.432C172.827 304.765 173.41 304.474 173.577 304.059C174.789 301.071 173.057 297.787 169.902 297.188C169.277 297.07 168.626 297.047 167.988 297.051C163.215 297.085 158.461 297.434 153.756 298.324Z" fill="#8B3D98"/>
<path d="M215.71 218.804C212.071 221.694 211.662 225.354 212.165 229.256C212.512 231.949 213.345 234.52 214.382 237.034C218.234 246.375 222.05 255.734 225.029 265.403C226.162 269.08 227.147 272.794 227.646 276.616C227.941 278.884 228.055 281.155 227.445 283.404C226.83 285.663 225.453 287.164 223.119 287.635C217.932 288.683 213.78 287.278 211.557 282.428C209.671 278.315 208.683 273.947 207.756 269.561C207.095 266.43 206.557 263.27 205.983 260.121C205.651 258.297 205.602 258.22 203.625 258.109C198.713 257.833 193.801 257.507 188.884 257.319C173.059 256.712 157.229 256.464 141.398 257.052C137.62 257.193 133.836 257.12 130.067 257.471C129.281 257.544 128.763 257.392 128.399 256.553C125.32 249.439 121.756 242.527 119.319 235.139C118.583 232.905 118.026 230.634 117.598 228.317C117.225 226.304 117.576 224.471 118.587 222.775C120.696 219.232 123.799 217.138 127.969 216.935C148.07 215.957 168.172 215.932 188.278 216.847C197.113 217.249 205.938 217.773 214.742 218.627C214.951 218.648 215.159 218.704 215.71 218.804Z" fill="#F7F2DD"/>
<path d="M374.405 123.793C371.634 135.794 365.675 145.546 354.565 151.576C348.055 155.11 340.988 156.162 333.665 155.908C331.45 155.831 329.253 155.606 327.063 155.302C323.454 154.804 320.184 153.461 317.317 151.212C311.128 146.361 307.554 139.462 305.119 132.155C306.113 132.155 306.5 132.501 307.454 132.752C310.115 133.545 312.751 134.427 315.407 135.242C316.289 135.513 316.779 135.702 316.606 136.951C316.184 140.006 318.765 142.087 321.795 141.381C322.328 141.257 322.797 141.056 322.743 140.446C322.694 139.871 322.264 139.618 321.685 139.627C321.187 139.633 320.685 139.653 320.191 139.608C319.234 139.52 318.617 138.97 318.351 138.065C318.105 137.227 318.413 136.519 319.015 135.939C319.45 135.52 320.296 135.417 320.195 134.594C320.12 133.973 319.431 133.787 319.077 133.351C318.319 132.416 318.18 131.192 318.75 130.157C319.336 129.092 320.246 128.681 321.443 128.918C321.583 128.946 321.722 128.98 321.859 129.019C322.437 129.186 322.863 128.991 323.02 128.418C323.184 127.81 322.78 127.519 322.272 127.314C320.264 126.499 317.805 127.582 316.991 129.701C316.715 130.422 316.604 131.205 316.368 132.155C312.516 130.934 308.683 129.712 304.841 128.512C304.273 128.334 304.091 127.958 303.972 127.434C303.233 124.174 302.702 120.89 302.646 117.348C307.882 120.077 312.565 119.481 316.6 115.354C320.176 111.696 321.127 105.724 319.011 101.016C317.863 98.4595 316.06 96.4958 313.503 95.2701C311.032 94.085 308.445 94.0187 305.88 94.716C305.689 94.1321 305.828 93.8048 305.95 93.4754C306.659 91.5459 306.657 91.5523 308.64 92.102C315.659 94.0465 322.84 95.1931 330.02 96.3289C338.828 97.7215 347.67 98.8317 356.557 99.5654C359.972 99.8478 363.398 100.047 366.82 99.7708C370.461 99.4777 373.262 101.191 375.913 103.341C376.262 103.625 376.423 104.002 376.421 104.462C376.412 106.274 376.416 108.083 376.416 110.332C375.864 109.335 375.562 108.719 375.196 108.143C373.264 105.116 369.838 104.357 366.831 106.308C364.566 107.778 363.538 109.974 363.281 112.588C363.223 113.19 363.306 113.784 364.032 113.91C364.82 114.047 364.966 113.487 365.039 112.866C365.097 112.372 365.184 111.878 365.3 111.393C365.658 109.867 366.501 108.663 367.814 107.81C369.998 106.389 372.369 106.909 373.712 109.134C374.695 110.764 375.127 112.597 375.018 114.46C374.759 118.871 372.9 122.555 369.478 125.372C368.384 126.272 367.163 127.188 365.709 125.83C365.354 125.498 364.867 125.579 364.572 125.96C364.285 126.33 364.369 126.764 364.626 127.154C365.184 127.999 366.512 128.497 367.675 128.24C368.808 127.992 369.799 127.449 370.709 126.724C371.951 125.735 372.909 124.497 373.883 123.267C374.305 123.198 374.543 123.308 374.405 123.793Z" fill="#F7F2DD"/>
<path d="M367.739 96.806C365.467 95.1674 364.015 93.2122 362.494 91.364C358.423 86.4141 354.477 81.3615 350.455 76.3688C348.847 74.3709 347.123 72.4756 345.35 70.6167C342.204 67.3182 338.459 65.1427 333.981 64.2357C333.289 64.0967 332.615 63.8806 331.814 63.6667C332.533 62.8881 333.431 62.9907 334.215 62.8111C337.307 62.1009 340.423 62.1116 343.551 62.5415C344.057 62.6121 344.53 62.7554 344.95 63.0357C345.802 63.6068 346.768 63.9148 347.755 64.009C351.671 64.3854 354.682 66.5567 357.46 69.0188C364.09 74.8949 367.424 82.3862 367.959 91.1822C368.066 92.9534 368.154 94.7075 367.739 96.806Z" fill="#8B3D98"/>
<path d="M303.982 113.502C303.32 113.427 303.218 113.008 303.391 112.447C303.768 111.228 304.1 109.991 304.56 108.802C304.969 107.743 304.622 107.311 303.603 106.943C300.549 105.837 300.567 105.794 302.798 103.501C304.532 101.719 306.258 99.9333 307.999 98.1578C308.34 97.8113 308.702 97.3492 309.267 97.6401C309.86 97.9439 309.623 98.4979 309.507 98.9578C309.199 100.196 308.89 101.437 308.516 102.654C308.239 103.555 308.387 104.184 309.353 104.479C309.421 104.5 309.483 104.537 309.548 104.562C312.445 105.735 312.327 105.919 310.134 107.964C308.473 109.512 306.858 111.114 305.213 112.682C304.862 113.023 304.554 113.442 303.982 113.502Z" fill="#FEC342"/>
<path d="M350.331 62.5971C349.351 62.595 348.089 62.3661 346.862 62.0067C345.961 61.7436 345.884 61.2815 346.552 60.6655C348.098 59.2408 350.74 59.474 352.049 61.1553C352.306 61.4869 352.64 61.8484 352.411 62.2976C352.179 62.7533 351.683 62.6142 351.278 62.6442C351.07 62.6613 350.854 62.6271 350.331 62.5971Z" fill="#F0EBD8"/>
<path d="M374.405 123.793C374.232 123.62 374.056 123.444 373.883 123.271C373.936 122.835 374.172 122.51 374.508 122.238C374.739 122.987 374.739 122.987 374.405 123.793Z" fill="#B0B2AF"/>
<path d="M504.224 397.759C503.555 397.857 503.316 398.264 503.206 398.914C502.902 400.737 502.547 402.551 502.166 404.358C501.84 405.905 501.812 405.896 500.301 405.646C500.02 405.599 499.735 405.59 499.45 405.563C499.048 405.287 498.461 405.625 498.116 405.156L498.146 405.163C497.35 404.273 497.737 403.263 497.921 402.315C500.264 390.227 502.307 378.086 504.258 365.931C506.331 353.004 508.031 340.024 509.596 327.029C509.918 324.355 510.063 321.617 508.549 319.131C508.256 318.65 508.093 318.081 508.344 317.495C510.235 317.574 511.552 318.616 512.637 320.045C512.971 320.595 513.363 321.063 514.083 321.069C515.1 322.734 515.254 324.59 515.038 326.434C512.239 350.185 508.706 373.827 504.32 397.34C504.296 397.483 504.251 397.62 504.224 397.759Z" fill="#DC5227"/>
<path d="M508.346 317.499C510.879 320.428 510.825 323.889 510.376 327.42C509.723 332.569 509.067 337.718 508.376 342.863C507.645 348.29 506.928 353.719 506.099 359.131C505.076 365.807 503.93 372.466 502.859 379.136C501.461 387.844 499.829 396.51 498.148 405.167C497.557 405.18 496.964 405.19 496.373 405.203C495.482 404.159 495.996 403.015 496.202 401.937C499.444 384.847 502.347 367.702 504.778 350.48C505.921 342.366 507.014 334.244 507.922 326.098C508.519 320.731 506.641 318.256 501.377 317.277C494.574 316.008 487.756 314.825 480.944 313.595C479.961 313.418 478.965 313.277 478.113 312.695C477.592 312.216 477.061 311.803 476.301 311.691C475.541 311.58 474.736 311.415 474.425 310.528C474.618 309.963 474.986 309.946 475.44 310.203C476.852 310.369 478.263 310.536 479.674 310.703C481.843 311.368 484.109 311.505 486.323 311.929C491.75 312.969 497.187 313.974 502.639 314.868C504.827 315.23 506.695 316.079 508.346 317.499Z" fill="#191B1E"/>
<path d="M466.624 421.065C469.549 423.108 472.849 423.953 476.367 424.079C477.423 424.117 478.481 424.102 479.539 424.111C480.462 426.008 479.639 429.713 477.86 431.679C472.926 432.041 468.024 431.551 463.122 431.097C462.341 431.025 461.561 430.898 460.78 430.9C459.617 430.905 458.533 431.632 458.27 432.548C457.953 433.645 458.394 434.486 459.244 435.172C460.611 436.274 462.247 436.77 463.876 437.305C465.15 437.722 466.585 437.66 467.69 438.576C467.782 439.001 467.652 439.209 467.187 439.087C462.06 437.609 456.925 436.154 451.805 434.646C431.802 428.751 411.724 423.121 391.609 417.623C389.553 417.06 387.511 416.444 385.461 415.854C382.748 414.132 382.684 411.535 383.311 408.848C383.943 406.144 384.731 403.473 385.429 400.782C389.789 383.943 393.862 367.033 397.395 349.999C399.625 339.252 401.762 328.486 403.653 317.67C404.336 313.764 406.329 311.439 409.263 310.915C409.484 310.877 409.683 310.941 409.882 311.022C413.979 311.356 417.987 312.28 422.045 312.881C426.313 313.512 430.56 314.286 434.815 315.011C435.228 315.082 435.622 315.257 436.027 315.384C436.864 316.524 436.357 317.737 436.145 318.89C435.001 325.125 433.96 331.389 432.476 337.547C431.463 341.757 433.943 345.252 437.954 346.14C443.73 347.417 449.443 348.981 455.186 350.405C459.915 351.578 462.876 349.697 463.771 344.743C464.949 338.225 466.024 331.688 467.041 325.142C467.264 323.709 467.095 322.09 468.472 321.035C474.215 322.062 479.961 323.087 485.704 324.12C487.314 324.411 488.933 324.676 490.526 325.048C493.955 325.844 496.083 328.469 495.91 331.998C495.777 334.689 495.362 337.374 494.963 340.046C493.76 348.136 492.526 356.222 491.261 364.301C489.565 375.125 487.601 385.9 485.485 396.649C484.306 402.651 483.059 408.639 481.843 414.632C479.65 415.238 477.369 414.981 475.14 415.33C473.271 415.623 471.403 415.937 469.54 416.269C465.596 416.014 461.949 414.517 458.171 413.557C457.071 413.276 455.994 412.866 454.835 412.904C453.809 412.94 453.034 413.39 452.784 414.431C452.557 415.377 453.006 416.093 453.786 416.596C455.006 417.383 456.443 417.578 457.79 418.025C460.748 419.009 463.915 419.371 466.624 421.065Z" fill="#FFC442"/>
<path d="M468.472 321.037C467.352 327.844 466.239 334.651 465.112 341.457C464.857 343 464.609 344.548 464.277 346.076C463.391 350.153 460.039 352.318 455.985 351.347C449.546 349.804 443.12 348.213 436.706 346.574C432.918 345.605 430.875 342.311 431.607 338.433C433.055 330.747 434.552 323.067 436.027 315.386C438.94 315.544 441.768 316.246 444.627 316.727C451.966 317.961 459.285 319.294 466.611 320.597C467.237 320.708 467.851 320.89 468.472 321.037Z" fill="#F7F2DD"/>
<path d="M477.851 312.104C481.211 313.069 484.689 313.433 488.113 314.072C493.152 315.011 498.214 315.822 503.248 316.778C506.643 317.422 508.748 320.132 508.85 323.636C508.913 325.788 508.529 327.902 508.259 330.009C506.919 340.446 505.574 350.882 503.987 361.283C502.034 374.075 499.925 386.843 497.385 399.537C497.008 401.419 496.709 403.314 496.372 405.205C494.83 406.226 493.603 407.595 492.511 409.039C491.246 410.711 489.704 411.939 487.804 412.763C487.156 411.892 487.547 410.975 487.727 410.093C492.668 386.03 496.824 361.835 500.098 337.487C500.325 335.804 500.758 334.118 500.522 332.402C500.086 329.228 498.011 327.249 495.454 325.647C493.826 324.152 491.88 323.431 489.717 323.039C482.783 321.79 475.864 320.447 468.941 319.14C468.902 318.999 468.853 318.821 468.934 318.731C471.371 315.961 474.275 313.777 477.474 311.97C477.573 311.912 477.731 312.012 477.851 312.104Z" fill="#DC5227"/>
<path d="M409.88 311.024C406.901 312.109 405.025 314.128 404.449 317.3C403.115 324.635 401.803 331.972 400.398 339.292C399.488 344.035 398.436 348.752 397.438 353.477C394.123 369.2 390.333 384.809 386.324 400.369C385.703 402.779 385.224 405.239 384.397 407.578C383.333 410.583 383.564 413.293 385.461 415.854C381.255 414.987 379.44 411.43 380.534 407.451C383.266 397.513 385.765 387.517 388.174 377.499C391.881 362.098 395.143 346.6 398.203 331.059C399.149 326.252 400.134 321.446 400.798 316.596C401.355 312.541 404.899 309.43 409.88 311.024Z" fill="#CE5646"/>
<path d="M495.452 325.647C498.623 325.968 500.003 328.212 501.033 330.834C501.891 333.019 501.159 335.194 500.921 337.344C500.519 341.004 499.904 344.64 499.371 348.285C498.9 351.511 498.446 354.741 497.932 357.961C497.159 362.791 496.347 367.612 495.533 372.436C494.79 376.841 494.086 381.254 493.257 385.643C491.771 393.519 490.212 401.383 488.661 409.248C488.428 410.429 488.09 411.591 487.801 412.761C486.439 413.428 485.383 414.806 483.627 414.57C485.768 404.7 487.7 394.788 489.535 384.856C491.525 374.085 493.289 363.276 494.962 352.455C495.927 346.2 496.728 339.921 497.619 333.656C498.047 330.67 497.285 328.017 495.452 325.647Z" fill="#EF9206"/>
<path d="M477.851 312.104C474.834 314.391 471.817 316.68 468.939 319.142C464.097 318.308 459.255 317.486 454.415 316.635C448.593 315.612 442.772 314.569 436.952 313.533C436.862 313.234 436.931 312.934 437.175 312.782C440.43 310.729 443.498 308.327 447.302 307.278C448.569 306.523 449.888 306.53 451.317 306.799C453.308 307.176 455.295 307.646 457.341 307.7C463.229 307.788 468.868 309.332 474.549 310.635C475.489 311.011 476.498 311.041 477.479 311.225C477.986 311.324 478.243 311.589 477.851 312.104Z" fill="#DECADD"/>
<path d="M447.299 307.278C445.147 308.911 442.682 310.023 440.4 311.441C439.258 312.149 438.102 312.838 436.952 313.535C429.812 312.367 422.671 311.219 415.54 310.01C414.499 309.835 413.394 309.912 412.422 309.381C412.214 308.701 412.627 308.262 413.105 307.965C416.673 305.734 420.313 303.676 424.699 303.61C425.05 303.606 425.41 303.567 425.724 303.785C428.919 303.935 432.024 304.722 435.179 305.159C438.826 305.663 442.453 306.301 446.087 306.9C446.498 306.964 446.895 307.148 447.299 307.278Z" fill="#DC5227"/>
<path d="M456.424 306.786C456.465 305.578 456.506 304.369 456.544 303.163C456.84 293.994 457.11 284.824 456.91 275.649C456.895 274.999 456.636 273.996 457.638 273.947C458.778 273.891 458.634 274.95 458.636 275.696C458.656 281.53 458.692 287.363 458.626 293.197C458.606 294.882 458.908 296.422 459.609 297.937C461.043 301.034 462.433 304.151 463.842 307.261C464.022 309.214 462.885 308.269 462.082 308.063C459.96 306.172 459.502 303.404 458.377 300.985C458.236 300.737 458.116 301.167 458.328 300.974C458.998 301.952 459.187 302.908 458.204 303.813C457.671 304.401 457.788 305.139 457.846 305.807C457.953 307.056 457.262 306.985 456.424 306.786Z" fill="#191B1E"/>
<path d="M462.005 307.64C462.691 307.856 463.491 308.628 463.843 307.257C464.487 308.106 465.425 308.333 466.408 308.493C469.239 308.951 472.066 309.422 474.892 309.903C475.085 309.935 475.256 310.1 475.438 310.203C475.096 310.252 474.762 310.325 474.545 310.635C471.49 310.414 468.502 309.73 465.494 309.212C462.77 308.744 459.994 308.521 457.337 307.7C457.71 307.623 458.08 307.539 458.294 307.171C459.684 306.13 460.847 306.863 462.005 307.64Z" fill="#191B1E"/>
<path d="M462.005 307.64C460.767 307.484 459.532 307.328 458.294 307.171C458.264 306.051 458.234 304.93 458.204 303.809C458.266 302.78 458.33 301.749 458.393 300.72C458.504 300.671 458.613 300.621 458.724 300.572C459.275 301.717 459.838 302.853 460.371 304.003C460.93 305.21 461.461 306.427 462.005 307.64Z" fill="#EC6E1D"/>
<path d="M467.187 439.087C467.354 438.916 467.523 438.745 467.69 438.576C468.543 438.785 469.221 439.444 470.125 439.523C469.005 440.328 468.136 439.436 467.187 439.087Z" fill="#F86237"/>
<path d="M504.223 397.759C503.322 397.335 503.643 396.582 503.758 395.917C504.619 391.019 505.51 386.122 506.369 381.224C508.099 371.351 509.654 361.452 510.986 351.518C512.091 343.276 513.144 335.025 514.228 326.779C514.425 325.277 514.395 323.79 513.879 322.357C513.697 321.85 513.618 321.435 514.087 321.074C518.121 320.477 522.149 320.244 526.22 320.894C528.597 321.275 530.227 322.411 531.417 324.505C535.379 331.472 536.403 338.961 535.574 346.794C534.614 355.856 531.696 364.416 528.736 372.958C525.779 381.493 522.665 389.977 520.541 398.775C520.063 400.756 519.864 402.807 519.106 404.912C514.836 400.833 509.778 398.769 504.223 397.759Z" fill="#F7F2DD"/>
<path d="M483.113 438.18C483.805 438.013 484.503 437.863 485.188 437.673C485.672 437.54 485.863 437.147 485.801 436.689C485.732 436.188 485.347 435.955 484.876 436.017C483.676 436.173 482.484 436.387 481.284 436.558C475.569 437.382 469.913 437.14 464.335 435.574C463.234 435.266 462.159 434.89 461.166 434.319C460.686 434.043 459.945 433.786 460.095 433.155C460.258 432.468 461.016 432.65 461.572 432.702C463.489 432.873 465.403 433.067 467.322 433.241C470.592 433.536 473.866 433.677 477.151 433.482C479.169 433.363 481.075 432.824 482.918 432.015C483.606 431.713 484.077 431.313 484.261 430.509C484.482 429.546 484.998 428.648 485.197 427.683C485.734 425.086 484.634 423.418 482.066 422.733C480.601 422.344 479.109 422.297 477.608 422.348C475.076 422.434 472.644 421.952 470.292 421.043C469.633 420.789 468.982 420.47 468.393 420.081C467.461 419.467 467.483 419.043 468.476 418.603C470.387 417.758 472.44 417.43 474.494 417.219C477.612 416.896 480.745 416.688 483.869 416.436C484.295 416.401 484.805 416.519 485.135 416.327C487.762 414.795 490.711 413.751 492.825 411.422C493.925 410.209 495.005 408.974 496.08 407.738C496.647 407.086 497.315 406.904 498.174 407.004C503.442 407.627 508.189 411.984 509.275 417.21C509.502 418.303 509.284 419.336 509.027 420.37C507.116 428.102 502.343 433.591 495.531 437.463C494.73 437.919 493.945 438.422 493.026 438.627C492.857 438.727 492.683 438.817 492.505 438.901C492.392 438.997 492.259 439.036 492.111 439.021C491.649 439.175 491.557 438.956 491.647 438.556L491.64 438.561C491.827 438.467 491.934 438.28 492.099 438.161C491.914 436.717 491.741 436.558 490.505 437.048C488.687 437.771 486.876 438.49 484.897 438.629C484.246 438.708 483.464 439.294 483.113 438.18Z" fill="#F7F2DD"/>
<path d="M466.624 421.065C463.504 420.675 460.605 419.441 457.581 418.69C456.341 418.382 455.105 418.038 453.908 417.599C452.313 417.015 451.561 415.537 451.985 414.053C452.405 412.585 453.686 411.653 455.277 412.083C460.061 413.377 464.915 414.44 469.543 416.273C468.956 416.496 468.367 416.714 467.783 416.945C465.894 417.696 465.07 419.422 466.624 421.065Z" fill="#F6F2DD"/>
<path d="M481.457 424.504C481.055 426.267 480.659 428.03 480.245 429.79C480.096 430.428 480.145 430.903 480.946 430.945C480.033 431.677 478.802 431.072 477.86 431.681C478.618 429.202 479.273 426.701 479.539 424.113C480.179 424.241 480.817 424.374 481.457 424.504Z" fill="#191B1E"/>
<path d="M482.327 439.117C479.755 439.75 477.207 439.649 474.562 438.982C475.147 438.336 475.774 438.631 476.327 438.582C476.881 438.533 477.449 438.61 478.01 438.631C479.389 439.333 480.986 438.071 482.327 439.117Z" fill="#79808C"/>
<path d="M482.327 439.117C481.549 439.115 480.77 439.149 479.995 439.102C479.314 439.061 478.551 439.288 478.012 438.631C479.712 438.481 481.414 438.33 483.115 438.18C483.597 438.779 484.323 438.415 484.901 438.631C484.113 439.175 483.19 438.988 482.327 439.117Z" fill="#CDCCC2"/>
<path d="M491.649 438.558C491.803 438.712 491.959 438.867 492.113 439.023C490.82 439.803 489.402 440.191 487.914 440.349C487.492 440.563 487.383 440.36 487.415 439.972C488.824 439.5 490.237 439.029 491.649 438.558Z" fill="#C3C3BC"/>
<path d="M484.408 440.33C484.706 440.332 485.002 440.336 485.299 440.338C485.516 440.608 485.997 440.375 486.141 440.781C485.34 441.301 484.456 441.13 483.586 441.089C483.464 441.023 483.417 440.946 483.445 440.862C483.475 440.772 483.507 440.728 483.543 440.728L483.539 440.73C483.766 440.462 484.156 440.548 484.408 440.33Z" fill="#586277"/>
<path d="M486.139 440.781C485.854 440.64 485.475 440.683 485.297 440.338C486.002 440.216 486.706 440.094 487.411 439.97C487.578 440.096 487.745 440.221 487.91 440.347C487.392 440.772 486.749 440.713 486.139 440.781Z" fill="#B5B6B3"/>
<path d="M498.118 405.158C498.589 405.21 499.073 405.216 499.452 405.565C498.94 405.646 498.444 405.684 498.118 405.158Z" fill="#292F62"/>
<path d="M484.409 440.33C484.186 440.612 483.888 440.728 483.537 440.73C483.734 440.394 484.045 440.306 484.409 440.33Z" fill="#323F5F"/>
<path d="M492.102 438.163C492.065 438.431 491.915 438.566 491.643 438.564C491.795 438.429 491.949 438.296 492.102 438.163Z" fill="#C3C3BC"/>
<path d="M492.507 438.901C492.608 438.67 492.779 438.578 493.028 438.627C492.923 438.845 492.756 438.952 492.507 438.901Z" fill="#C3C3BC"/>
<path d="M483.541 440.73C483.55 440.852 483.565 440.972 483.584 441.092C483.4 441.079 483.318 440.993 483.378 440.848C483.4 440.794 483.486 440.766 483.541 440.73Z" fill="#323F5F"/>
<path d="M159.778 315.366C159.42 315.366 159.062 315.386 158.707 315.364C157.675 315.3 156.568 315.647 155.73 314.641C154.643 313.339 153.998 311.86 153.876 310.188C153.805 309.225 154.448 308.827 155.358 308.752C157.062 308.613 158.763 308.438 160.467 308.288C164.868 307.903 169.266 307.479 173.671 307.161C175.644 307.017 176.933 308.008 177.342 309.7C177.738 311.332 177.175 312.524 175.603 313.118C173.798 313.801 171.888 314.124 169.99 314.4C166.602 314.889 163.198 315.21 159.778 315.366Z" fill="#F7F2DD"/>
<path d="M156.439 306.78C153.638 306.915 152.137 306.074 151.326 304.196C150.57 302.446 151.101 301.105 152.904 300.457C153.769 300.147 154.69 299.973 155.6 299.811C160.037 299.009 164.523 298.829 169.018 298.936C170.963 298.983 171.978 299.971 172.172 301.73C172.324 303.109 172.008 303.695 170.671 304.162C168.65 304.865 166.558 305.293 164.455 305.685C161.649 306.207 158.818 306.513 156.439 306.78Z" fill="#F7F2DD"/>
<path d="M165.688 323.277C164.403 323.277 163.116 323.324 161.834 323.266C159.583 323.164 157.454 320.633 157.701 318.415C157.803 317.48 158.285 317.099 159.264 317.095C162.838 317.084 166.386 316.697 169.918 316.19C171.543 315.957 173.149 315.672 174.804 315.754C175.965 315.809 176.866 316.286 177.554 317.176C178.777 318.761 179.181 320.896 176.248 321.777C172.796 322.813 169.26 323.138 165.688 323.277Z" fill="#F7F2DD"/>
<path d="M168.694 329.912C168.054 329.912 167.399 329.82 166.78 329.93C164.842 330.272 163.039 328.385 162.508 326.747C162.135 325.6 162.414 325.187 163.651 325.102C165.138 324.999 166.628 324.954 168.118 324.894C170.395 324.8 172.635 324.483 174.86 323.989C176.519 323.621 177.665 324.171 178.449 325.549C179.295 327.033 178.939 328.116 177.303 328.723C175.219 329.497 173.012 329.641 170.823 329.846C170.119 329.912 169.403 329.857 168.694 329.857C168.694 329.876 168.694 329.895 168.694 329.912Z" fill="#F6F1DC"/>
<path d="M422.639 247.762C419.643 247.762 416.625 247.98 413.653 247.708C409.473 247.327 405.265 247.608 401.1 246.968C400.061 246.808 399.605 246.53 399.569 245.426C399.464 242.136 399.736 238.895 400.535 235.697C400.809 234.6 401.308 234.031 402.588 234.048C408.225 234.12 413.876 233.84 419.493 234.176C423.945 234.443 428.416 234.685 432.862 235.244C434.958 235.507 437.093 235.736 439.228 235.804C441.134 235.866 441.751 236.309 441.899 238.14C442.087 240.472 442.599 242.778 442.425 245.148C442.284 247.058 442.164 247.389 440.363 247.304C437.357 247.161 434.404 247.772 431.414 247.764C428.489 247.757 425.564 247.764 422.639 247.762Z" fill="#B22828"/>
<path d="M443.233 62.8517C443.272 68.6552 438.509 73.4639 432.665 73.5217C426.872 73.5794 422.016 68.7835 421.984 62.9715C421.951 57.1617 426.729 52.3337 432.547 52.2973C438.348 52.2588 443.192 57.044 443.233 62.8517Z" fill="#191B1E"/>
<path d="M451.854 64.732C453.18 65.0636 453.623 65.9748 453.629 67.2647C453.636 68.668 453.315 69.9536 452.452 71.0552C451.794 71.8959 452.09 72.3558 452.983 72.5569C454.441 72.8885 455.585 73.6436 456.473 75.1345C457.88 73.9003 459.201 72.743 460.523 71.5857C461.324 70.882 462.116 70.1654 462.925 69.4723C463.369 69.0937 463.861 68.7129 464.409 69.2776C464.947 69.8338 464.621 70.298 464.174 70.7322C463.771 71.1237 463.388 71.5387 462.998 71.943C460.874 73.4917 459.032 75.3592 456.947 77.1368C458.677 78.9037 458.78 80.8011 457.645 82.7926C457.336 83.3338 456.959 84.0205 456.186 83.6525C455.392 83.2739 455.653 82.63 456.017 82.0332C456.201 81.7316 456.373 81.4107 456.469 81.0749C456.949 79.4128 456.216 78.6448 454.531 79.0213C454.323 79.0684 454.131 79.1732 453.923 79.2139C453.482 79.2994 453.053 79.2609 452.816 78.8181C452.58 78.3775 452.736 77.9881 453.105 77.6951C453.381 77.4747 453.713 77.3207 453.976 77.0854C454.944 76.2169 454.859 75.4126 453.717 74.7367C453.417 74.5591 453.064 74.4629 452.726 74.3666C452.385 74.2703 451.854 74.3452 451.709 74.1377C450.544 72.4499 448.597 72.8649 447.019 72.3109C446.751 72.2168 446.49 72.0949 446.248 71.9494C445.263 71.3547 444.203 70.7322 444.181 69.4402C444.16 68.1738 445.289 67.7054 446.212 67.2027C448.019 66.2165 449.856 65.286 451.854 64.732Z" fill="#191B1E"/>
<path d="M441.284 90.7929C437.658 90.5148 434.986 88.6003 433.502 85.1863C432.02 81.7808 432.318 78.478 434.804 75.5902C436.742 73.3377 440.089 72.5804 442.83 73.6072C443.235 73.7591 443.663 73.8789 443.89 74.2682C444.205 74.8051 444.059 75.2244 443.46 75.4383C443.025 75.5923 442.62 75.3912 442.209 75.2928C438.008 74.3067 434.821 76.5849 434.44 80.846C434.164 83.9499 436.29 87.3832 439.198 88.5297C442.179 89.7041 445.042 88.6174 446.622 85.7125C446.969 85.075 447.072 83.9114 448.151 84.4183C449.357 84.9852 448.486 85.9457 448.147 86.6045C446.762 89.3105 444.481 90.6753 441.284 90.7929Z" fill="#191B1E"/>
<path d="M348.678 110.011C348.665 113.607 347.678 116.447 345.614 118.867C339.905 125.562 329.895 123.765 326.848 115.517C324.955 110.392 326.486 104.366 330.553 100.939C335.769 96.5408 343.243 97.7194 346.813 103.527C348.113 105.634 348.759 107.938 348.678 110.011Z" fill="#191B1E"/>
<path d="M350.719 135.357C350.704 141.511 346.95 146.412 341.729 147.45C338.328 148.126 334.221 146.378 332.424 143.499C332.11 142.996 331.799 142.489 332.403 141.995C333.03 141.481 333.439 141.914 333.825 142.373C333.962 142.536 334.08 142.716 334.221 142.876C337.474 146.577 342.172 146.814 345.706 143.454C349.179 140.151 349.929 134.371 347.41 130.3C344.941 126.313 340.483 125.263 336.506 127.733C336.086 127.994 335.686 128.298 335.24 128.508C334.885 128.677 334.532 128.497 334.298 128.206C334.046 127.892 334.086 127.502 334.341 127.233C334.679 126.876 335.071 126.557 335.48 126.279C339.5 123.549 344.646 124.208 347.845 127.866C349.813 130.108 350.625 132.782 350.719 135.357Z" fill="#191B1E"/>
<path d="M323.859 109.482C323.767 110.764 323.687 112.034 323.48 113.307C323.141 115.382 322.381 117.104 320.454 118.189C319.706 118.608 319.137 119.28 318.723 120.045C317.811 121.733 318.392 123.342 320.16 124.041C320.355 124.118 320.578 124.129 320.788 124.165C321.357 124.262 321.728 124.574 321.649 125.171C321.546 125.952 320.914 125.947 320.336 125.877C319.918 125.827 319.494 125.716 319.111 125.545C316.976 124.595 316.008 122.259 316.777 120.018C317.261 118.608 318.169 117.489 319.398 116.74C320.891 115.831 321.471 114.529 321.736 112.896C322 111.266 322.06 109.641 322.051 108.002C322.049 107.506 322.038 107.005 322.081 106.511C322.113 106.118 322.39 105.85 322.769 105.814C323.244 105.769 323.644 106.034 323.694 106.5C323.799 107.491 323.809 108.488 323.859 109.482Z" fill="#191B1E"/>
<path d="M366.122 117.553C366.141 115.17 366.726 113.373 368.049 111.889C369.357 110.421 371.351 110.392 372.52 111.737C372.863 112.131 373.133 112.541 372.717 113.046C372.319 113.53 371.919 113.406 371.415 113.142C370.051 112.434 369.634 112.535 368.895 113.761C367.987 115.271 367.672 116.914 368.032 118.657C368.103 119.001 368.287 119.322 368.34 119.667C368.409 120.11 368.306 120.529 367.807 120.681C367.344 120.822 366.963 120.646 366.732 120.236C366.19 119.28 366.085 118.229 366.122 117.553Z" fill="#191B1E"/>
<path d="M402.603 380.777C403.931 381.072 405.674 381.433 407.405 381.846C418.007 384.379 428.607 386.924 439.207 389.468C439.483 389.534 439.753 389.63 440.027 389.707C442.77 390.486 443.725 392.026 443.104 394.839C442.121 399.286 441.094 403.725 440.07 408.166C439.622 410.108 439.168 412.048 438.67 413.978C437.839 417.191 436.352 418.076 433.19 417.24C421.133 414.053 409.081 410.859 397.029 407.655C393.976 406.842 393.066 405.302 393.811 402.275C395.31 396.193 396.811 390.112 398.327 384.034C398.903 381.726 400.092 380.742 402.603 380.777Z" fill="#F7F2DD"/>
<path d="M456.927 402.245C457.186 402.309 457.602 402.405 458.013 402.516C462.754 403.802 467.495 405.09 472.234 406.384C472.714 406.514 473.211 406.632 473.646 406.857C475.016 407.563 475.579 409.054 475.067 410.478C474.541 411.948 473.262 412.686 471.671 412.258C466.515 410.872 461.364 409.458 456.231 407.99C454.465 407.486 453.717 406.26 453.951 404.638C454.156 403.199 455.319 402.211 456.927 402.245Z" fill="#F7F2DD"/>
<path d="M436.873 61.5853C436.83 61.8228 436.822 61.9682 436.777 62.1008C435.954 64.5245 435.123 66.9481 434.301 69.3717C434.177 69.7375 433.948 70.0733 433.575 70.0263C433.215 69.9814 433.044 69.6177 432.986 69.2284C432.838 68.2444 432.637 67.2668 432.507 66.2785C432.38 65.3095 431.926 64.9908 430.922 65.102C428.286 65.3929 428.281 65.3502 429.063 62.7404C429.676 60.6976 430.282 58.6504 430.9 56.6076C431.023 56.2033 431.162 55.7412 431.714 55.8075C432.149 55.8589 432.194 56.291 432.277 56.6183C432.539 57.6515 432.815 58.6847 432.999 59.735C433.168 60.6912 433.633 61.0976 434.614 60.9457C435.104 60.8708 435.609 60.8815 436.108 60.8837C436.625 60.8858 436.884 61.1575 436.873 61.5853Z" fill="#F5F0DC"/>
<path d="M335.088 113.269C335.133 112.712 334.938 112.434 334.593 112.274C334.339 112.156 334.062 112.073 333.79 111.996C330.938 111.196 330.696 110.95 333.127 108.599C334.707 107.069 336.206 105.454 337.744 103.88C338.09 103.525 338.431 103.161 338.81 102.84C339.024 102.659 339.309 102.575 339.6 102.706C339.994 102.885 340.061 103.225 339.968 103.591C339.639 104.896 339.275 106.195 338.953 107.502C338.583 109.016 338.596 109.018 340.076 109.726C340.14 109.756 340.2 109.795 340.264 109.825C342.665 110.946 342.667 110.95 340.825 112.725C338.986 114.499 337.146 116.272 335.298 118.039C334.945 118.377 334.566 118.822 334.013 118.505C333.431 118.169 333.718 117.654 333.865 117.185C334.294 115.833 334.711 114.479 335.088 113.269Z" fill="#FEC342"/>
</svg>
